{
.appVersion = "1230";
DisplayStrings = (
"¤",
"/carriageReturnControl CR",
"/less_hyphen.dlig",
"/carriagereturn",
A,
"/Abreveacute",
"/Abreve",
a,
g,
q,
"/acircumflexdotbelow.ss01",
"/gdotaccent.ss01"
);
copyright = "Copyright 2019 The Darkergrotesque Project Authors (https://github.com/bettergui/DarkerGrotesque)";
customParameters = (
{
name = trademark;
value = "Darker Grotesque is designed by Gia Bao Lam (also known as Gabriel Lam). For more information, please visit https://bygabriel.co/";
},
{
name = licenseURL;
value = "http://scripts.sil.org/OFL";
},
{
name = license;
value = "This Font Software is licensed under the SIL Open Font License, Version 1.1. This license is available with a FAQ at: http://scripts.sil.org/OFL";
},
{
name = fsType;
value = (
);
}
);
date = "2019-06-17 09:32:53 +0000";
designer = "Gabriel Lam";
designerURL = bygabriel.co;
familyName = "Darker Grotesque";
featurePrefixes = (
{
automatic = 1;
code = "languagesystem DFLT dflt;\012languagesystem latn dflt;\012languagesystem latn ROM;\012languagesystem latn MOL;\012languagesystem latn KAZ;\012languagesystem latn TAT;\012languagesystem latn TRK;\012languagesystem latn CRT;\012languagesystem latn AZE;\012";
name = Languagesystems;
}
);
features = (
{
code = "feature ccmp;\012feature locl;\012feature numr;\012feature dnom;\012feature frac;\012feature salt;\012feature ss01;\012";
name = aalt;
},
{
automatic = 1;

glyphs = (
{
glyphname = A;
lastChange = "2019-01-12 13:08:33 +0000";
layers = (
{
guideLines = (
{
position = "{291, 194}";
},
{
position = "{266, 256}";
}
);
layerId = "D86F237C-A043-4FD6-9305-0CC5F899F330";
paths = (
{
closed = 1;
nodes = (
"498 0 LINE",
"280 563 LINE",
"254 563 LINE",
"259 550 LINE",
"470 0 LINE"
);
},
{
closed = 1;
nodes = (
"46 0 LINE",
"259 550 LINE",
"264 563 LINE",
"236 563 LINE",
"20 0 LINE"
);
},
{
closed = 1;
nodes = (
"402 194 LINE",
"391 221 LINE",
"126 221 LINE",
"115 194 LINE"
);
}
);
width = 516;
},
{
guideLines = (
{
position = "{330, 505}";
},
{
position = "{308, 563}";
}
);
layerId = "F5474A38-5AEA-454E-84E5-A62166EBBEA7";
paths = (
{
closed = 1;
nodes = (
"577 0 LINE",
"409 563 LINE",
"180 563 LINE",
"297 505 LINE",
"428 0 LINE"
);
},
{
closed = 1;
nodes = (
"168 0 LINE",
"297 505 LINE",
"409 563 LINE",
"180 563 LINE",
"18 0 LINE"
);
},
{
closed = 1;
nodes = (
"439 141 LINE",
"443 247 LINE",
"148 247 LINE",
"153 141 LINE"
);
}
);
width = 591;
}
);
leftKerningGroup = A;
rightKerningGroup = A;
unicode = 0041;
},
{
glyphname = Aogonek;
lastChange = "2019-01-08 13:38:00 +0000";
layers = (
{
components = (
{
name = A;
}
);
layerId = "D86F237C-A043-4FD6-9305-0CC5F899F330";
paths = (
{
closed = 1;
nodes = (
"498 -198 OFFCURVE",
"520 -155 OFFCURVE",
"520 -155 CURVE",
"498 -140 LINE",
"498 -140 OFFCURVE",
"489 -174 OFFCURVE",
"448 -174 CURVE",
"414 -174 OFFCURVE",
"396 -152 OFFCURVE",
"396 -123 CURVE",
"396 -49 OFFCURVE",
"498 0 OFFCURVE",
"498 0 CURVE",
"493 13 LINE",
"493 13 OFFCURVE",
"372 -37 OFFCURVE",
"372 -123 CURVE",
"372 -165 OFFCURVE",
"399 -198 OFFCURVE",
"448 -198 CURVE"
);
}
);
width = 516;
},
{
components = (
{
name = A;
}
);
layerId = "F5474A38-5AEA-454E-84E5-A62166EBBEA7";
paths = (
{
closed = 1;
nodes = (
"580 -180 OFFCURVE",
"619 -120 OFFCURVE",
"619 -120 CURVE",
"548 -56 LINE",
"548 -56 OFFCURVE",
"531 -82 OFFCURVE",
"508 -82 CURVE",
"493 -82 OFFCURVE",
"483 -74 OFFCURVE",
"483 -60 CURVE SMOOTH",
"483 -21 OFFCURVE",
"577 0 OFFCURVE",
"577 0 CURVE",
"558 62 LINE",
"558 62 OFFCURVE",
"381 20 OFFCURVE",
"383 -85 CURVE",
"383 -157 OFFCURVE",
"446 -180 OFFCURVE",
"495 -180 CURVE"
);
}
);
width = 609;
}
);
leftKerningGroup = A;
rightKerningGroup = A;
unicode = 0104;
},
{
glyphname = AE;
lastChange = "2019-01-09 03:55:21 +0000";
layers = (
{
layerId = "D86F237C-A043-4FD6-9305-0CC5F899F330";
paths = (
{
closed = 1;
nodes = (
"781 0 LINE",
"781 25 LINE",
"446 25 LINE",
"446 272 LINE",
"711 272 LINE",
"711 298 LINE",
"446 298 LINE",
"446 537 LINE",
"772 537 LINE",
"772 563 LINE",
"419 563 LINE",
"419 0 LINE"
);
},
{
closed = 1;
nodes = (
"430 194 LINE",
"430 221 LINE",
"193 221 LINE",
"182 194 LINE"
);
},
{
closed = 1;
nodes = (
"48 0 LINE",
"436 563 LINE",
"406 563 LINE",
"20 0 LINE"
);
}
);
width = 816;
},
{
guideLines = (
{
position = "{88, 505}";
},
{
position = "{66, 563}";
}
);
layerId = "F5474A38-5AEA-454E-84E5-A62166EBBEA7";
paths = (
{
closed = 1;
nodes = (
"841 0 LINE",
"841 111 LINE",
"541 111 LINE",
"541 229 LINE",
"756 229 LINE",
"756 341 LINE",
"541 341 LINE",
"541 444 LINE",
"830 444 LINE",
"830 563 LINE",
"404 563 LINE",
"404 0 LINE"
);
},
{
closed = 1;
nodes = (
"439 141 LINE",
"443 247 LINE",
"148 247 LINE",
"153 141 LINE"
);
},
{
closed = 1;
nodes = (
"168 0 LINE",
"432 563 LINE",
"300 563 LINE",
"18 0 LINE"
);
}
);
width = 877;
}
);
leftKerningGroup = A;
rightKerningGroup = E;
unicode = 00C6;
},
{
glyphname = B;
lastChange = "2019-04-30 14:52:01 +0000";
layers = (
{
guideLines = (
{
angle = 90;
position = "{327, 125}";
},
{
angle = 90;
position = "{250, 125}";
},
{
angle = 90;
position = "{319, 125}";
},
{
position = "{192, 316}";
},
{
position = "{192, 290}";
}
);
layerId = "D86F237C-A043-4FD6-9305-0CC5F899F330";
paths = (
{
closed = 1;
nodes = (
"264 0 LINE SMOOTH",
"372 0 OFFCURVE",
"478 21 OFFCURVE",
"478 145 CURVE SMOOTH",
"478 221 OFFCURVE",
"447 288 OFFCURVE",
"307 288 CURVE",
"307 291 LINE",
"427 292 OFFCURVE",
"455 348 OFFCURVE",
"455 413 CURVE SMOOTH",
"455 538 OFFCURVE",
"361 563 OFFCURVE",
"248 563 CURVE SMOOTH",
"65 563 LINE",
"65 0 LINE"
);
},
{
closed = 1;
nodes = (
"92 277 LINE",
"247 277 LINE SMOOTH",
"361 277 OFFCURVE",
"450 254 OFFCURVE",
"450 145 CURVE SMOOTH",
"450 42 OFFCURVE",
"370 25 OFFCURVE",
"264 25 CURVE SMOOTH",
"92 25 LINE"
);
},
{
closed = 1;
nodes = (
"92 537 LINE",
"248 537 LINE SMOOTH",
"343 537 OFFCURVE",
"426 526 OFFCURVE",
"426 413 CURVE SMOOTH",
"426 317 OFFCURVE",
"361 303 OFFCURVE",
"247 303 CURVE SMOOTH",
"92 303 LINE"
);
}
);
width = 513;
},
{
guideLines = (
{
angle = 90;
position = "{454, 131}";
},
{
angle = 90;
position = "{556, 136}";
},
{
position = "{239, 563}";
},
{
position = "{198, 334}";
},
{
angle = 90;
position = "{124, 131}";
},
{
angle = 90;
position = "{293, 136}";
}
);
layerId = "F5474A38-5AEA-454E-84E5-A62166EBBEA7";
paths = (
{
closed = 1;
nodes = (
"293 0 LINE SMOOTH",
"377 0 OFFCURVE",
"549 0 OFFCURVE",
"549 154 CURVE SMOOTH",
"549 227 OFFCURVE",
"510 281 OFFCURVE",
"364 286 CURVE",
"364 290 LINE",
"491 297 OFFCURVE",
"521 351 OFFCURVE",
"521 415 CURVE SMOOTH",
"521 563 OFFCURVE",
"359 563 OFFCURVE",
"293 563 CURVE SMOOTH",
"50 563 LINE",
"50 0 LINE"
);
},
{
closed = 1;
nodes = (
"188 238 LINE",
"280 238 LINE SMOOTH",
"345 238 OFFCURVE",
"405 238 OFFCURVE",
"405 175 CURVE SMOOTH",
"405 111 OFFCURVE",
"344 111 OFFCURVE",
"280 111 CURVE SMOOTH",
"188 111 LINE"
);
},
{
closed = 1;
nodes = (
"187 451 LINE",
"275 451 LINE SMOOTH",
"331 451 OFFCURVE",
"384 451 OFFCURVE",
"384 398 CURVE SMOOTH",
"384 342 OFFCURVE",
"325 342 OFFCURVE",
"275 342 CURVE SMOOTH",
"187 342 LINE"
);
}
);
width = 584;
}
);
unicode = 0042;
},
{
glyphname = C;
lastChange = "2019-04-30 14:58:02 +0000";
layers = (
{
guideLines = (
{
position = "{266, -14}";
}
);
layerId = "D86F237C-A043-4FD6-9305-0CC5F899F330";
paths = (
{
closed = 1;
nodes = (
"433 -10 OFFCURVE",
"525 58 OFFCURVE",
"550 190 CURVE",
"521 190 LINE",
"501 81 OFFCURVE",
"424 14 OFFCURVE",
"297 14 CURVE",
"151 14 OFFCURVE",
"57 105 OFFCURVE",
"57 282 CURVE",
"57 455 OFFCURVE",
"153 549 OFFCURVE",
"301 549 CURVE",
"416 549 OFFCURVE",
"495 484 OFFCURVE",
"517 370 CURVE",
"545 370 LINE",
"519 506 OFFCURVE",
"424 573 OFFCURVE",
"301 573 CURVE",
"140 573 OFFCURVE",
"30 477 OFFCURVE",
"30 282 CURVE",
"30 90 OFFCURVE",
"144 -10 OFFCURVE",
"297 -10 CURVE"
);
}
);
width = 590;
},
{
guideLines = (
{
position = "{511, 355}";
},
{
angle = 90;
position = "{382, 220}";
},
{
position = "{511, 215}";
},
{
position = "{382, 127}";
},
{
position = "{382, -10}";
}
);
layerId = "F5474A38-5AEA-454E-84E5-A62166EBBEA7";
paths = (
{
closed = 1;
nodes = (
"476 -10 OFFCURVE",
"563 95 OFFCURVE",
"583 214 CURVE",
"438 214 LINE",
"427 134 OFFCURVE",
"351 121 OFFCURVE",
"305 121 CURVE SMOOTH",
"199 121 OFFCURVE",
"152 182 OFFCURVE",
"152 288 CURVE SMOOTH",
"152 384 OFFCURVE",
"202 441 OFFCURVE",
"306 441 CURVE SMOOTH",
"349 441 OFFCURVE",
"427 432 OFFCURVE",
"437 356 CURVE",
"581 356 LINE",
"563 470 OFFCURVE",
"476 573 OFFCURVE",
"306 573 CURVE SMOOTH",
"141 573 OFFCURVE",
"16 463 OFFCURVE",
"14 277 CURVE SMOOTH",
"12 87 OFFCURVE",
"142 -10 OFFCURVE",
"303 -10 CURVE SMOOTH"
);
}
);
width = 608;
}
);
leftKerningGroup = C;
rightKerningGroup = C;
unicode = 0043;
},
{
glyphname = D;
lastChange = "2019-01-08 13:10:51 +0000";
layers = (
{
guideLines = (
{
angle = 90;
position = "{398, 128}";
},
{
position = "{353, 284}";
},
{
position = "{398, 222}";
},
{
position = "{269, 31}";
},
{
position = "{246, 37}";
},
{
position = "{268, 537}";
}
);
layerId = "D86F237C-A043-4FD6-9305-0CC5F899F330";
paths = (
{
closed = 1;
nodes = (
"163 25 OFFCURVE",
"196 25 OFFCURVE",
"213 25 CURVE",
"392 25 OFFCURVE",
"511 70 OFFCURVE",
"511 282 CURVE",
"511 458 OFFCURVE",
"392 538 OFFCURVE",
"213 538 CURVE",
"97 538 LINE",
"97 25 LINE"
);
},
{
closed = 1;
nodes = (
"539 60 OFFCURVE",
"408 0 OFFCURVE",
"213 0 CURVE",
"193 0 OFFCURVE",
"152 0 OFFCURVE",
"70 0 CURVE",
"70 563 LINE",
"157 563 OFFCURVE",
"195 563 OFFCURVE",
"213 563 CURVE",
"408 563 OFFCURVE",
"539 469 OFFCURVE",
"539 282 CURVE"
);
}
);
width = 569;
},
{
guideLines = (
{
position = "{128, 562}";
},
{
position = "{121, 468}";
},
{
position = "{169, 563}";
},
{
position = "{121, 468}";
},
{
angle = 90;
position = "{465, 132}";
},
{
angle = 90;
position = "{567, 137}";
},
{
position = "{128, 94}";
},
{
position = "{121, 0}";
}
);
layerId = "F5474A38-5AEA-454E-84E5-A62166EBBEA7";
paths = (
{
closed = 1;
nodes = (
"237 114 OFFCURVE",
"256 114 OFFCURVE",
"264 114 CURVE",
"372 114 OFFCURVE",
"436 144 OFFCURVE",
"436 283 CURVE",
"436 389 OFFCURVE",
"372 443 OFFCURVE",
"264 443 CURVE",
"198 443 LINE",
"198 114 LINE"
);
},
{
closed = 1;
nodes = (
"585 60 OFFCURVE",
"443 0 OFFCURVE",
"221 0 CURVE",
"198 0 OFFCURVE",
"152 0 OFFCURVE",
"60 0 CURVE",
"60 563 LINE",
"158 563 OFFCURVE",
"200 563 OFFCURVE",
"221 563 CURVE",
"443 563 OFFCURVE",
"585 469 OFFCURVE",
"585 282 CURVE"
);
}
);
width = 625;
}
);
leftKerningGroup = D;
rightKerningGroup = D;
unicode = 0044;
},
{
glyphname = Eth;
lastChange = "2019-01-08 13:10:51 +0000";
layers = (
{
layerId = "D86F237C-A043-4FD6-9305-0CC5F899F330";
paths = (
{
closed = 1;
nodes = (
"152 0 OFFCURVE",
"193 0 OFFCURVE",
"213 0 CURVE",
"408 0 OFFCURVE",
"539 60 OFFCURVE",
"539 282 CURVE",
"539 469 OFFCURVE",
"408 563 OFFCURVE",
"213 563 CURVE",
"195 563 OFFCURVE",
"157 563 OFFCURVE",
"70 563 CURVE",
"70 0 LINE"
);
},
{
closed = 1;
nodes = (
"293 274 LINE",
"293 299 LINE",
"0 299 LINE",
"0 274 LINE"
);
},
{
closed = 1;
nodes = (
"97 538 LINE",
"213 538 LINE",
"392 538 OFFCURVE",
"511 458 OFFCURVE",
"511 282 CURVE",
"511 70 OFFCURVE",
"392 25 OFFCURVE",
"213 25 CURVE",
"196 25 OFFCURVE",
"163 25 OFFCURVE",
"97 25 CURVE"
);
}
);
width = 600;
},
{
layerId = "F5474A38-5AEA-454E-84E5-A62166EBBEA7";
paths = (
{
closed = 1;
nodes = (
"152 0 OFFCURVE",
"198 0 OFFCURVE",
"221 0 CURVE",
"443 0 OFFCURVE",
"585 60 OFFCURVE",
"585 282 CURVE",
"585 469 OFFCURVE",
"443 563 OFFCURVE",
"221 563 CURVE",
"200 563 OFFCURVE",
"158 563 OFFCURVE",
"60 563 CURVE",
"60 0 LINE"
);
},
{
closed = 1;
nodes = (
"315 241 LINE",
"315 331 LINE",
"0 331 LINE",
"0 241 LINE"
);
},
{
closed = 1;
nodes = (
"198 443 LINE",
"264 443 LINE",
"372 443 OFFCURVE",
"436 389 OFFCURVE",
"436 283 CURVE",
"436 144 OFFCURVE",
"372 114 OFFCURVE",
"264 114 CURVE",
"256 114 OFFCURVE",
"237 114 OFFCURVE",
"198 114 CURVE"
);
}
);
width = 600;
}
);
leftKerningGroup = D;
rightKerningGroup = D;
unicode = 00D0;
},
{
glyphname = Dcroat;
lastChange = "2019-01-08 13:10:51 +0000";
layers = (
{
guideLines = (
{
position = "{362, 282}";
}
);
layerId = "D86F237C-A043-4FD6-9305-0CC5F899F330";
paths = (
{
closed = 1;
nodes = (
"152 0 OFFCURVE",
"193 0 OFFCURVE",
"213 0 CURVE",
"408 0 OFFCURVE",
"539 60 OFFCURVE",
"539 282 CURVE",
"539 469 OFFCURVE",
"408 563 OFFCURVE",
"213 563 CURVE",
"195 563 OFFCURVE",
"157 563 OFFCURVE",
"70 563 CURVE",
"70 0 LINE"
);
},
{
closed = 1;
nodes = (
"293 274 LINE",
"293 299 LINE",
"0 299 LINE",
"0 274 LINE"
);
},
{
closed = 1;
nodes = (
"97 538 LINE",
"213 538 LINE",
"392 538 OFFCURVE",
"511 458 OFFCURVE",
"511 282 CURVE",
"511 70 OFFCURVE",
"392 25 OFFCURVE",
"213 25 CURVE",
"196 25 OFFCURVE",
"163 25 OFFCURVE",
"97 25 CURVE"
);
}
);
width = 600;
},
{
guideLines = (
{
position = "{314, 283}";
}
);
layerId = "F5474A38-5AEA-454E-84E5-A62166EBBEA7";
paths = (
{
closed = 1;
nodes = (
"152 0 OFFCURVE",
"198 0 OFFCURVE",
"221 0 CURVE",
"443 0 OFFCURVE",
"585 60 OFFCURVE",
"585 282 CURVE",
"585 469 OFFCURVE",
"443 563 OFFCURVE",
"221 563 CURVE",
"200 563 OFFCURVE",
"158 563 OFFCURVE",
"60 563 CURVE",
"60 0 LINE"
);
},
{
closed = 1;
nodes = (
"315 241 LINE",
"315 331 LINE",
"0 331 LINE",
"0 241 LINE"
);
},
{
closed = 1;
nodes = (
"198 443 LINE",
"264 443 LINE",
"372 443 OFFCURVE",
"436 389 OFFCURVE",
"436 283 CURVE",
"436 144 OFFCURVE",
"372 114 OFFCURVE",
"264 114 CURVE",
"256 114 OFFCURVE",
"237 114 OFFCURVE",
"198 114 CURVE"
);
}
);
width = 600;
}
);
leftKerningGroup = D;
rightKerningGroup = D;
unicode = 0110;
},
{
glyphname = E;
lastChange = "2019-01-08 13:11:04 +0000";
layers = (
{
guideLines = (
{
angle = 90;
position = "{437, 499}";
}
);
layerId = "D86F237C-A043-4FD6-9305-0CC5F899F330";
paths = (
{
closed = 1;
nodes = (
"87 272 LINE",
"352 272 LINE",
"352 298 LINE",
"87 298 LINE",
"87 537 LINE",
"413 537 LINE",
"413 563 LINE",
"60 563 LINE",
"60 0 LINE",
"422 0 LINE",
"422 25 LINE",
"87 25 LINE"
);
}
);
width = 457;
},
{
guideLines = (
{
angle = 90;
position = "{70, 131}";
},
{
angle = 90;
position = "{185, 136}";
},
{
position = "{130, 332}";
},
{
position = "{123, 238}";
}
);
layerId = "F5474A38-5AEA-454E-84E5-A62166EBBEA7";
paths = (
{
closed = 1;
nodes = (
"187 229 LINE",
"402 229 LINE",
"402 341 LINE",
"187 341 LINE",
"187 444 LINE",
"476 444 LINE",
"476 563 LINE",
"50 563 LINE",
"50 0 LINE",
"487 0 LINE",
"487 111 LINE",
"187 111 LINE"
);
}
);
width = 523;
}
);
leftKerningGroup = E;
rightKerningGroup = E;
unicode = 0045;
},
{
glyphname = Eogonek;
lastChange = "2019-05-01 01:21:46 +0000";
layers = (
{
components = (
{
name = E;
}
);
layerId = "D86F237C-A043-4FD6-9305-0CC5F899F330";
paths = (
{
closed = 1;
nodes = (
"422 -198 OFFCURVE",
"444 -155 OFFCURVE",
"444 -155 CURVE",
"422 -140 LINE",
"422 -140 OFFCURVE",
"413 -174 OFFCURVE",
"372 -174 CURVE",
"338 -174 OFFCURVE",
"320 -152 OFFCURVE",
"320 -123 CURVE",
"320 -49 OFFCURVE",
"422 0 OFFCURVE",
"422 0 CURVE",
"417 13 LINE",
"417 13 OFFCURVE",
"296 -37 OFFCURVE",
"296 -123 CURVE",
"296 -165 OFFCURVE",
"323 -198 OFFCURVE",
"372 -198 CURVE"
);
}
);
width = 457;
},
{
components = (
{
name = E;
}
);
layerId = "F5474A38-5AEA-454E-84E5-A62166EBBEA7";
paths = (
{
closed = 1;
nodes = (
"514 -180 OFFCURVE",
"553 -120 OFFCURVE",
"553 -120 CURVE",
"482 -56 LINE",
"482 -56 OFFCURVE",
"465 -82 OFFCURVE",
"442 -82 CURVE",
"427 -82 OFFCURVE",
"417 -74 OFFCURVE",
"417 -60 CURVE SMOOTH",
"417 -21 OFFCURVE",
"487 0 OFFCURVE",
"487 0 CURVE",
"487 62 LINE",
"487 62 OFFCURVE",
"317 20 OFFCURVE",
"317 -85 CURVE",
"317 -157 OFFCURVE",
"380 -180 OFFCURVE",
"429 -180 CURVE"
);
}
);
width = 523;
}
);
leftKerningGroup = E;
rightKerningGroup = E;
unicode = 0118;
},
{
glyphname = F;
lastChange = "2018-12-30 18:32:39 +0000";
layers = (
{
layerId = "D86F237C-A043-4FD6-9305-0CC5F899F330";
paths = (
{
closed = 1;
nodes = (
"102 290 LINE",
"385 290 LINE",
"385 316 LINE",
"102 316 LINE",
"102 537 LINE",
"453 537 LINE",
"453 563 LINE",
"75 563 LINE",
"75 0 LINE",
"102 0 LINE"
);
}
);
width = 483;
},
{
layerId = "F5474A38-5AEA-454E-84E5-A62166EBBEA7";
paths = (
{
closed = 1;
nodes = (
"197 236 LINE",
"400 236 LINE",
"400 347 LINE",
"197 347 LINE",
"197 444 LINE",
"472 444 LINE",
"472 563 LINE",
"60 563 LINE",
"60 0 LINE",
"197 0 LINE"
);
}
);
width = 470;
}
);
unicode = 0046;
},
{
glyphname = G;
lastChange = "2019-04-30 15:23:25 +0000";
layers = (
{
guideLines = (
{
position = "{491, -14}";
}
);
layerId = "D86F237C-A043-4FD6-9305-0CC5F899F330";
paths = (
{
closed = 1;
nodes = (
"448 -14 OFFCURVE",
"511 91 OFFCURVE",
"523 150 CURVE",
"525 150 LINE",
"533 0 LINE",
"555 0 LINE",
"555 251 LINE",
"329 251 LINE",
"329 226 LINE",
"517 226 LINE",
"510 89 OFFCURVE",
"425 10 OFFCURVE",
"293 10 CURVE SMOOTH",
"144 10 OFFCURVE",
"54 111 OFFCURVE",
"54 279 CURVE",
"61 452 OFFCURVE",
"140 548 OFFCURVE",
"298 548 CURVE SMOOTH",
"419 548 OFFCURVE",
"493 492 OFFCURVE",
"518 379 CURVE",
"543 380 LINE",
"521 506 OFFCURVE",
"428 573 OFFCURVE",
"298 573 CURVE SMOOTH",
"131 573 OFFCURVE",
"30 463 OFFCURVE",
"30 279 CURVE SMOOTH",
"30 96 OFFCURVE",
"131 -14 OFFCURVE",
"291 -14 CURVE SMOOTH"
);
}
);
width = 596;
},
{
guideLines = (
{
position = "{527, 355}";
},
{
position = "{398, 573}";
},
{
position = "{398, 436}";
}
);
layerId = "F5474A38-5AEA-454E-84E5-A62166EBBEA7";
paths = (
{
closed = 1;
nodes = (
"380 -10 OFFCURVE",
"443 27 OFFCURVE",
"468 72 CURVE",
"470 72 LINE",
"500 0 LINE",
"593 0 LINE",
"593 292 LINE",
"376 292 LINE",
"376 192 LINE",
"467 192 LINE",
"443 138 OFFCURVE",
"380 126 OFFCURVE",
"330 126 CURVE SMOOTH",
"216 126 OFFCURVE",
"154 181 OFFCURVE",
"154 289 CURVE",
"153 377 OFFCURVE",
"199 442 OFFCURVE",
"311 442 CURVE SMOOTH",
"363 442 OFFCURVE",
"431 426 OFFCURVE",
"447 356 CURVE",
"582 377 LINE",
"552 505 OFFCURVE",
"476 573 OFFCURVE",
"311 573 CURVE SMOOTH",
"144 573 OFFCURVE",
"21 470 OFFCURVE",
"16 278 CURVE SMOOTH",
"11 88 OFFCURVE",
"123 -10 OFFCURVE",
"290 -10 CURVE SMOOTH"
);
}
);
width = 636;
}
);
leftKerningGroup = G;
rightKerningGroup = G;
unicode = 0047;
},
{
glyphname = H;
lastChange = "2018-12-30 18:32:40 +0000";
layers = (
{
layerId = "D86F237C-A043-4FD6-9305-0CC5F899F330";
paths = (
{
closed = 1;
nodes = (
"102 563 LINE",
"75 563 LINE",
"75 0 LINE",
"102 0 LINE"
);
},
{
closed = 1;
nodes = (
"474 0 LINE",
"499 0 LINE",
"499 563 LINE",
"474 563 LINE"
);
},
{
closed = 1;
nodes = (
"480 306 LINE",
"96 306 LINE",
"96 281 LINE",
"480 281 LINE"
);
}
);
width = 574;
},
{
layerId = "F5474A38-5AEA-454E-84E5-A62166EBBEA7";
paths = (
{
closed = 1;
nodes = (
"190 563 LINE",
"50 563 LINE",
"50 0 LINE",
"190 0 LINE"
);
},
{
closed = 1;
nodes = (
"405 0 LINE",
"545 0 LINE",
"545 563 LINE",
"405 563 LINE"
);
},
{
closed = 1;
nodes = (
"494 336 LINE",
"110 336 LINE",
"110 230 LINE",
"494 230 LINE"
);
}
);
width = 595;
}
);
unicode = 0048;
},
{
glyphname = Hbar;
lastChange = "2019-01-09 01:40:39 +0000";
layers = (
{
guideLines = (
{
angle = 90;
position = "{499, 380}";
},
{
angle = 90;
position = "{534, 380}";
},
{
angle = 90;
position = "{40, 380}";
},
{
angle = 90;
position = "{75, 380}";
}
);
layerId = "D86F237C-A043-4FD6-9305-0CC5F899F330";
paths = (
{
closed = 1;
nodes = (
"499 0 LINE",
"499 563 LINE",
"474 563 LINE",
"474 0 LINE"
);
},
{
closed = 1;
nodes = (
"102 0 LINE",
"102 563 LINE",
"75 563 LINE",
"75 0 LINE"
);
},
{
closed = 1;
nodes = (
"480 281 LINE",
"480 306 LINE",
"96 306 LINE",
"96 281 LINE"
);
},
{
closed = 1;
nodes = (
"549 434 LINE",
"549 459 LINE",
"25 459 LINE",
"25 434 LINE"
);
}
);
width = 579;
},
{
guideLines = (
{
angle = 90;
position = "{545, 380}";
},
{
angle = 90;
position = "{591, 380}";
},
{
angle = 90;
position = "{4, 380}";
},
{
angle = 90;
position = "{50, 380}";
}
);
layerId = "F5474A38-5AEA-454E-84E5-A62166EBBEA7";
paths = (
{
closed = 1;
nodes = (
"545 0 LINE",
"545 563 LINE",
"405 563 LINE",
"405 0 LINE"
);
},
{
closed = 1;
nodes = (
"190 0 LINE",
"190 563 LINE",
"50 563 LINE",
"50 0 LINE"
);
},
{
closed = 1;
nodes = (
"494 230 LINE",
"494 336 LINE",
"110 336 LINE",
"110 230 LINE"
);
},
{
closed = 1;
nodes = (
"591 404 LINE",
"591 500 LINE",
"4 500 LINE",
"4 404 LINE"
);
}
);
width = 600;
}
);
unicode = 0126;
},
{
glyphname = I;
lastChange = "2019-04-30 13:58:05 +0000";
layers = (
{
layerId = "D86F237C-A043-4FD6-9305-0CC5F899F330";
paths = (
{
closed = 1;
nodes = (
"55 24 LINE",
"55 0 LINE",
"240 0 LINE",
"240 24 LINE"
);
},
{
closed = 1;
nodes = (
"240 538 LINE",
"240 563 LINE",
"55 563 LINE",
"55 538 LINE"
);
},
{
closed = 1;
nodes = (
"161 18 LINE",
"161 545 LINE",
"135 545 LINE",
"135 18 LINE"
);
}
);
width = 305;
},
{
layerId = "F5474A38-5AEA-454E-84E5-A62166EBBEA7";
paths = (
{
closed = 1;
nodes = (
"63 119 LINE",
"63 0 LINE",
"347 0 LINE",
"347 119 LINE"
);
},
{
closed = 1;
nodes = (
"347 444 LINE",
"347 563 LINE",
"63 563 LINE",
"63 444 LINE"
);
},
{
closed = 1;
nodes = (
"275 18 LINE",
"275 545 LINE",
"136 545 LINE",
"136 18 LINE"
);
}
);
width = 415;
}
);
leftKerningGroup = I;
rightKerningGroup = I;
unicode = 0049;
},
{
glyphname = Iogonek;
lastChange = "2019-01-08 13:39:11 +0000";
layers = (
{
components = (
{
name = I;
}
);
layerId = "D86F237C-A043-4FD6-9305-0CC5F899F330";
paths = (
{
closed = 1;
nodes = (
"198 -198 OFFCURVE",
"220 -155 OFFCURVE",
"220 -155 CURVE",
"198 -140 LINE",
"198 -140 OFFCURVE",
"189 -174 OFFCURVE",
"148 -174 CURVE",
"114 -174 OFFCURVE",
"96 -152 OFFCURVE",
"96 -123 CURVE",
"96 -49 OFFCURVE",
"198 0 OFFCURVE",
"198 0 CURVE",
"193 13 LINE",
"193 13 OFFCURVE",
"72 -37 OFFCURVE",
"72 -123 CURVE",
"72 -165 OFFCURVE",
"99 -198 OFFCURVE",
"148 -198 CURVE"
);
}
);
width = 305;
},
{
components = (
{
name = I;
}
);
layerId = "F5474A38-5AEA-454E-84E5-A62166EBBEA7";
paths = (
{
closed = 1;
nodes = (
"295 -180 OFFCURVE",
"334 -120 OFFCURVE",
"334 -120 CURVE",
"263 -56 LINE",
"263 -56 OFFCURVE",
"246 -82 OFFCURVE",
"223 -82 CURVE",
"208 -82 OFFCURVE",
"198 -74 OFFCURVE",
"198 -60 CURVE SMOOTH",
"198 -21 OFFCURVE",
"268 0 OFFCURVE",
"268 0 CURVE",
"268 62 LINE",
"268 62 OFFCURVE",
"98 20 OFFCURVE",
"98 -85 CURVE",
"98 -157 OFFCURVE",
"161 -180 OFFCURVE",
"210 -180 CURVE"
);
}
);
width = 415;
}
);
leftKerningGroup = I;
rightKerningGroup = I;
unicode = 012E;
},
{
glyphname = J;
lastChange = "2019-01-07 08:26:21 +0000";
layers = (
{
guideLines = (
{
position = "{279, -14}";
},
{
position = "{181, 138}";
}
);
layerId = "D86F237C-A043-4FD6-9305-0CC5F899F330";
paths = (
{
closed = 1;
nodes = (
"279 -10 OFFCURVE",
"329 42 OFFCURVE",
"329 142 CURVE",
"329 545 LINE",
"303 545 LINE",
"303 142 LINE",
"303 53 OFFCURVE",
"266 14 OFFCURVE",
"187 14 CURVE",
"92 14 OFFCURVE",
"69 78 OFFCURVE",
"69 124 CURVE",
"45 124 LINE",
"45 4 OFFCURVE",
"152 -10 OFFCURVE",
"187 -10 CURVE"
);
},
{
closed = 1;
nodes = (
"329 538 LINE",
"329 562 LINE",
"196 562 LINE",
"196 538 LINE"
);
}
);
width = 394;
},
{
guideLines = (
{
position = "{128, 181}";
}
);
layerId = "F5474A38-5AEA-454E-84E5-A62166EBBEA7";
paths = (
{
closed = 1;
nodes = (
"421 -10 OFFCURVE",
"448 90 OFFCURVE",
"448 246 CURVE",
"448 545 LINE",
"308 545 LINE",
"308 222 LINE",
"308 133 OFFCURVE",
"286 110 OFFCURVE",
"238 110 CURVE",
"182 110 OFFCURVE",
"167 149 OFFCURVE",
"167 195 CURVE",
"35 195 LINE",
"35 75 OFFCURVE",
"92 -10 OFFCURVE",
"243 -10 CURVE"
);
},
{
closed = 1;
nodes = (
"448 457 LINE",
"448 563 LINE",
"190 563 LINE",
"190 457 LINE"
);
}
);
width = 508;
}
);
unicode = 004A;
},
{
glyphname = K;
lastChange = "2019-04-30 14:28:44 +0000";
layers = (
{
guideLines = (
{
angle = 90;
position = "{493, 277}";
},
{
position = "{473, 9}";
},
{
position = "{473, 0}";
}
);
layerId = "D86F237C-A043-4FD6-9305-0CC5F899F330";
paths = (
{
closed = 1;
nodes = (
"481 554 LINE",
"481 563 LINE",
"446 563 LINE",
"96 236 LINE",
"96 199 LINE"
);
},
{
closed = 1;
nodes = (
"103 -1 LINE",
"103 563 LINE",
"75 563 LINE",
"75 -1 LINE"
);
},
{
closed = 1;
nodes = (
"493 0 LINE",
"493 9 LINE",
"218 322 LINE",
"199 304 LINE",
"460 0 LINE"
);
}
);
width = 527;
},
{
guideLines = (
{
angle = 90;
position = "{588, 0}";
}
);
layerId = "F5474A38-5AEA-454E-84E5-A62166EBBEA7";
paths = (
{
closed = 1;
nodes = (
"583 550 LINE",
"583 563 LINE",
"401 563 LINE",
"197 322 LINE",
"197 169 LINE"
);
},
{
closed = 1;
nodes = (
"199 0 LINE",
"199 563 LINE",
"60 563 LINE",
"60 0 LINE"
);
},
{
closed = 1;
nodes = (
"595 0 LINE",
"595 13 LINE",
"350 385 LINE",
"249 286 LINE",
"436 0 LINE"
);
}
);
width = 604;
}
);
leftKerningGroup = K;
rightKerningGroup = K;
unicode = 004B;
},
{
glyphname = Kcommaaccent;
lastChange = "2019-01-08 13:35:43 +0000";
layers = (
{
components = (
{
name = commaaccentcomb;
transform = "{1, 0, 0, 1, 158, 0}";
}
);
layerId = "D86F237C-A043-4FD6-9305-0CC5F899F330";
paths = (
{
closed = 1;
nodes = (
"481 563 LINE",
"442 563 LINE",
"96 236 LINE",
"96 199 LINE"
);
},
{
closed = 1;
nodes = (
"103 -1 LINE",
"103 563 LINE",
"75 563 LINE",
"75 -1 LINE"
);
},
{
closed = 1;
nodes = (
"493 0 LINE",
"218 322 LINE",
"199 304 LINE",
"456 0 LINE"
);
}
);
width = 541;
},
{
components = (
{
name = commaaccentcomb;
transform = "{1, 0, 0, 1, 187, 0}";
}
);
layerId = "F5474A38-5AEA-454E-84E5-A62166EBBEA7";
paths = (
{
closed = 1;
nodes = (
"607 563 LINE",
"411 563 LINE",
"197 322 LINE",
"197 169 LINE"
);
},
{
closed = 1;
nodes = (
"199 0 LINE",
"199 563 LINE",
"60 563 LINE",
"60 0 LINE"
);
},
{
closed = 1;
nodes = (
"609 0 LINE",
"353 385 LINE",
"252 286 LINE",
"446 0 LINE"
);
}
);
width = 600;
}
);
leftKerningGroup = K;
rightKerningGroup = K;
unicode = 0136;
},
{
glyphname = L;
lastChange = "2019-01-08 13:11:21 +0000";
layers = (
{
guideLines = (
{
position = "{103, 23}";
}
);
layerId = "D86F237C-A043-4FD6-9305-0CC5F899F330";
paths = (
{
closed = 1;
nodes = (
"96 15 LINE",
"96 563 LINE",
"70 563 LINE",
"70 15 LINE"
);
},
{
closed = 1;
nodes = (
"443 0 LINE",
"443 24 LINE",
"70 24 LINE",
"70 0 LINE"
);
}
);
width = 465;
},
{
layerId = "F5474A38-5AEA-454E-84E5-A62166EBBEA7";
paths = (
{
closed = 1;
nodes = (
"200 0 LINE",
"200 563 LINE",
"60 563 LINE",
"60 0 LINE"
);
},
{
closed = 1;
nodes = (
"443 0 LINE",
"443 119 LINE",
"60 119 LINE",
"60 0 LINE"
);
}
);
width = 473;
}
);
leftKerningGroup = L;
rightKerningGroup = L;
unicode = 004C;
},
{
glyphname = Lslash;
lastChange = "2019-01-09 03:23:15 +0000";
layers = (
{
components = (
{
name = L;
}
);
layerId = "D86F237C-A043-4FD6-9305-0CC5F899F330";
paths = (
{
closed = 1;
nodes = (
"246 374 LINE",
"246 404 LINE",
"-6 270 LINE",
"-6 240 LINE"
);
}
);
width = 465;
},
{
components = (
{
name = L;
}
);
layerId = "F5474A38-5AEA-454E-84E5-A62166EBBEA7";
paths = (
{
closed = 1;
nodes = (
"303 294 LINE",
"303 414 LINE",
"1 280 LINE",
"1 160 LINE"
);
}
);
width = 473;
}
);
leftKerningGroup = L;
rightKerningGroup = L;
unicode = 0141;
},
{
glyphname = M;
lastChange = "2019-04-30 15:25:34 +0000";
layers = (
{
layerId = "D86F237C-A043-4FD6-9305-0CC5F899F330";
paths = (
{
closed = 1;
nodes = (
"81 0 LINE",
"81 543 LINE",
"83 543 LINE",
"312 0 LINE",
"354 0 LINE",
"583 543 LINE",
"585 543 LINE",
"585 0 LINE",
"611 0 LINE",
"611 563 LINE",
"565 563 LINE",
"335 15 LINE",
"333 15 LINE",
"101 563 LINE",
"55 563 LINE",
"55 0 LINE"
);
}
);
width = 671;
},
{
guideLines = (
{
position = "{351, 501}";
}
);
layerId = "F5474A38-5AEA-454E-84E5-A62166EBBEA7";
paths = (
{
closed = 1;
nodes = (
"205 0 LINE",
"196 504 LINE",
"198 504 LINE",
"284 0 LINE",
"487 0 LINE",
"575 504 LINE",
"576 504 LINE",
"566 0 LINE",
"711 0 LINE",
"711 563 LINE",
"469 563 LINE",
"388 58 LINE",
"386 58 LINE",
"303 563 LINE",
"60 563 LINE",
"60 0 LINE"
);
}
);
width = 766;
}
);
unicode = 004D;
},
{
glyphname = N;
lastChange = "2019-04-30 15:24:32 +0000";
layers = (
{
layerId = "D86F237C-A043-4FD6-9305-0CC5F899F330";
paths = (
{
closed = 1;
nodes = (
"472 13 LINE",
"470 13 LINE",
"100 563 LINE",
"55 563 LINE",
"55 0 LINE",
"80 0 LINE",
"80 550 LINE",
"82 550 LINE",
"450 0 LINE",
"497 0 LINE",
"497 563 LINE",
"472 563 LINE"
);
}
);
width = 557;
},
{
layerId = "F5474A38-5AEA-454E-84E5-A62166EBBEA7";
paths = (
{
closed = 1;
nodes = (
"429 61 LINE",
"427 61 LINE",
"303 563 LINE",
"55 563 LINE",
"55 0 LINE",
"200 0 LINE",
"200 502 LINE",
"202 502 LINE",
"307 0 LINE",
"575 0 LINE",
"575 563 LINE",
"429 563 LINE"
);
}
);
width = 630;
}
);
leftKerningGroup = N;
rightKerningGroup = N;
unicode = 004E;
},
{
glyphname = Eng;
lastChange = "2019-01-09 02:24:23 +0000";
layers = (
{
components = (
{
name = N;
}
);
layerId = "D86F237C-A043-4FD6-9305-0CC5F899F330";
paths = (
{
closed = 1;
nodes = (
"472 -199 OFFCURVE",
"498 -154 OFFCURVE",
"497 -88 CURVE",
"497 33 LINE",
"472 33 LINE",
"472 -93 LINE",
"473 -152 OFFCURVE",
"451 -177 OFFCURVE",
"404 -177 CURVE",
"383 -177 OFFCURVE",
"366 -168 OFFCURVE",
"356 -156 CURVE",
"337 -175 LINE",
"354 -191 OFFCURVE",
"375 -199 OFFCURVE",
"404 -199 CURVE"
);
}
);
width = 600;
},
{
components = (
{
name = N;
}
);
layerId = "F5474A38-5AEA-454E-84E5-A62166EBBEA7";
paths = (
{
closed = 1;
nodes = (
"529 -207 OFFCURVE",
"575 -138 OFFCURVE",
"575 -65 CURVE",
"575 0 LINE",
"435 0 LINE",
"435 -43 LINE",
"435 -71 OFFCURVE",
"418 -79 OFFCURVE",
"405 -79 CURVE",
"384 -79 OFFCURVE",
"370 -63 OFFCURVE",
"370 -63 CURVE",
"295 -156 LINE",
"295 -156 OFFCURVE",
"337 -207 OFFCURVE",
"418 -207 CURVE"
);
}
);
width = 600;
}
);
leftKerningGroup = N;
rightKerningGroup = N;
unicode = 014A;
},
{
glyphname = O;
lastChange = "2019-04-30 14:58:07 +0000";
layers = (
{
guideLines = (
{
position = "{389, -14}";
}
);
layerId = "D86F237C-A043-4FD6-9305-0CC5F899F330";
paths = (
{
closed = 1;
nodes = (
"466 -14 OFFCURVE",
"557 106 OFFCURVE",
"557 280 CURVE",
"557 458 OFFCURVE",
"466 573 OFFCURVE",
"291 573 CURVE",
"113 573 OFFCURVE",
"25 457 OFFCURVE",
"25 280 CURVE",
"25 100 OFFCURVE",
"118 -14 OFFCURVE",
"291 -14 CURVE"
);
},
{
closed = 1;
nodes = (
"129 11 OFFCURVE",
"51 117 OFFCURVE",
"51 280 CURVE",
"51 450 OFFCURVE",
"133 548 OFFCURVE",
"291 548 CURVE",
"453 548 OFFCURVE",
"531 443 OFFCURVE",
"531 280 CURVE",
"531 116 OFFCURVE",
"450 11 OFFCURVE",
"291 11 CURVE"
);
}
);
width = 597;
},
{
guideLines = (
{
position = "{538, 275}";
},
{
position = "{382, 573}";
},
{
position = "{382, 436}";
}
);
layerId = "F5474A38-5AEA-454E-84E5-A62166EBBEA7";
paths = (
{
closed = 1;
nodes = (
"489 -14 OFFCURVE",
"588 106 OFFCURVE",
"588 280 CURVE SMOOTH",
"588 458 OFFCURVE",
"489 573 OFFCURVE",
"302 573 CURVE SMOOTH",
"110 573 OFFCURVE",
"14 457 OFFCURVE",
"14 280 CURVE SMOOTH",
"14 100 OFFCURVE",
"115 -14 OFFCURVE",
"302 -14 CURVE SMOOTH"
);
},
{
closed = 1;
nodes = (
"199 121 OFFCURVE",
"150 195 OFFCURVE",
"150 280 CURVE SMOOTH",
"150 373 OFFCURVE",
"202 442 OFFCURVE",
"300 442 CURVE SMOOTH",
"401 442 OFFCURVE",
"451 368 OFFCURVE",
"451 280 CURVE SMOOTH",
"451 193 OFFCURVE",
"401 121 OFFCURVE",
"300 121 CURVE SMOOTH"
);
}
);
width = 619;
}
);
leftKerningGroup = O;
rightKerningGroup = O;
unicode = 004F;
},
{
glyphname = Ohungarumlaut;
lastChange = "2019-01-08 13:19:41 +0000";
layers = (
{
components = (
{
name = O;
}
);
layerId = "D86F237C-A043-4FD6-9305-0CC5F899F330";
paths = (
{
closed = 1;
nodes = (
"239 632 LINE",
"335 753 LINE",
"305 766 LINE",
"223 639 LINE"
);
},
{
closed = 1;
nodes = (
"349 632 LINE",
"445 753 LINE",
"415 766 LINE",
"333 639 LINE"
);
}
);
width = 597;
},
{
components = (
{
name = O;
}
);
layerId = "F5474A38-5AEA-454E-84E5-A62166EBBEA7";
paths = (
{
closed = 1;
nodes = (
"216 610 LINE",
"328 745 LINE",
"221 798 LINE",
"154 640 LINE"
);
},
{
closed = 1;
nodes = (
"417 610 LINE",
"529 745 LINE",
"422 798 LINE",
"355 640 LINE"
);
}
);
width = 600;
}
);
leftKerningGroup = O;
rightKerningGroup = O;
unicode = 0150;
},
{
glyphname = Oslash;
lastChange = "2019-01-09 03:37:35 +0000";
layers = (
{
components = (
{
name = O;
}
);
guideLines = (
{
angle = 90;
position = "{311, 277}";
},
{
position = "{396, 277}";
}
);
layerId = "D86F237C-A043-4FD6-9305-0CC5F899F330";
paths = (
{
closed = 1;
nodes = (
"110 -34 LINE",
"532 577 LINE",
"512 589 LINE",
"90 -22 LINE"
);
}
);
width = 600;
},
{
components = (
{
name = O;
}
);
guideLines = (
{
angle = 90;
position = "{311, 277}";
},
{
position = "{396, 277}";
}
);
layerId = "F5474A38-5AEA-454E-84E5-A62166EBBEA7";
paths = (
{
closed = 1;
nodes = (
"111 -44 LINE",
"541 578 LINE",
"511 595 LINE",
"81 -27 LINE"
);
}
);
width = 600;
}
);
leftKerningGroup = O;
rightKerningGroup = O;
unicode = 00D8;
},
{
glyphname = OE;
lastChange = "2019-01-09 02:44:01 +0000";
layers = (
{
layerId = "D86F237C-A043-4FD6-9305-0CC5F899F330";
paths = (
{
closed = 1;
nodes = (
"376 0 OFFCURVE",
"373 0 OFFCURVE",
"455 0 CURVE",
"455 563 LINE",
"368 563 OFFCURVE",
"374 563 OFFCURVE",
"356 563 CURVE",
"161 563 OFFCURVE",
"30 469 OFFCURVE",
"30 282 CURVE",
"30 60 OFFCURVE",
"161 0 OFFCURVE",
"356 0 CURVE"
);
},
{
closed = 1;
nodes = (
"177 25 OFFCURVE",
"58 70 OFFCURVE",
"58 282 CURVE",
"58 458 OFFCURVE",
"177 538 OFFCURVE",
"356 538 CURVE",
"428 538 LINE",
"428 25 LINE",
"362 25 OFFCURVE",
"373 25 OFFCURVE",
"356 25 CURVE"
);
},
{
closed = 1;
nodes = (
"790 0 LINE",
"790 25 LINE",
"455 25 LINE",
"455 272 LINE",
"720 272 LINE",
"720 298 LINE",
"455 298 LINE",
"455 537 LINE",
"781 537 LINE",
"781 563 LINE",
"428 563 LINE",
"428 0 LINE"
);
}
);
width = 825;
},
{
layerId = "F5474A38-5AEA-454E-84E5-A62166EBBEA7";
paths = (
{
closed = 1;
nodes = (
"418 0 OFFCURVE",
"431 0 OFFCURVE",
"523 0 CURVE",
"523 563 LINE",
"425 563 OFFCURVE",
"416 563 OFFCURVE",
"395 563 CURVE",
"173 563 OFFCURVE",
"40 469 OFFCURVE",
"40 282 CURVE",
"40 60 OFFCURVE",
"173 0 OFFCURVE",
"395 0 CURVE"
);
},
{
closed = 1;
nodes = (
"253 114 OFFCURVE",
"189 144 OFFCURVE",
"189 283 CURVE",
"189 389 OFFCURVE",
"253 443 OFFCURVE",
"361 443 CURVE",
"385 443 LINE",
"385 114 LINE",
"346 114 OFFCURVE",
"369 114 OFFCURVE",
"361 114 CURVE"
);
},
{
closed = 1;
nodes = (
"822 0 LINE",
"822 111 LINE",
"522 111 LINE",
"522 229 LINE",
"737 229 LINE",
"737 341 LINE",
"522 341 LINE",
"522 444 LINE",
"811 444 LINE",
"811 563 LINE",
"385 563 LINE",
"385 0 LINE"
);
}
);
width = 858;
}
);
unicode = 0152;
},
{
glyphname = P;
lastChange = "2018-12-30 18:32:44 +0000";
layers = (
{
guideLines = (
{
angle = 90;
position = "{341, 232}";
},
{
angle = 90;
position = "{96, 540}";
}
);
layerId = "D86F237C-A043-4FD6-9305-0CC5F899F330";
paths = (
{
closed = 1;
nodes = (
"96 563 LINE",
"70 563 LINE",
"70 0 LINE",
"96 0 LINE"
);
},
{
closed = 1;
nodes = (
"90 537 LINE",
"272 537 LINE",
"379 537 OFFCURVE",
"429 492 OFFCURVE",
"429 393 CURVE",
"429 297 OFFCURVE",
"376 251 OFFCURVE",
"272 251 CURVE",
"89 251 LINE",
"89 224 LINE",
"272 224 LINE",
"389 224 OFFCURVE",
"454 283 OFFCURVE",
"454 393 CURVE",
"454 506 OFFCURVE",
"393 563 OFFCURVE",
"272 563 CURVE",
"90 563 LINE"
);
}
);
width = 479;
},
{
guideLines = (
{
position = "{135, 468}";
}
);
layerId = "F5474A38-5AEA-454E-84E5-A62166EBBEA7";
paths = (
{
closed = 1;
nodes = (
"190 563 LINE",
"50 563 LINE",
"50 0 LINE",
"190 0 LINE"
);
},
{
closed = 1;
nodes = (
"171 451 LINE",
"267 451 LINE",
"324 451 OFFCURVE",
"369 424 OFFCURVE",
"369 367 CURVE",
"369 311 OFFCURVE",
"323 282 OFFCURVE",
"267 282 CURVE",
"172 282 LINE",
"172 184 LINE",
"288 184 LINE",
"412 184 OFFCURVE",
"495 253 OFFCURVE",
"495 365 CURVE",
"495 497 OFFCURVE",
"416 563 OFFCURVE",
"288 563 CURVE",
"171 563 LINE"
);
}
);
width = 508;
}
);
unicode = 0050;
},
{
glyphname = Thorn;
lastChange = "2019-01-09 04:07:15 +0000";
layers = (
{
layerId = "D86F237C-A043-4FD6-9305-0CC5F899F330";
paths = (
{
closed = 1;
nodes = (
"96 563 LINE",
"70 563 LINE",
"70 0 LINE",
"96 0 LINE"
);
},
{
closed = 1;
nodes = (
"90 425 LINE",
"267 425 LINE",
"374 425 OFFCURVE",
"424 380 OFFCURVE",
"424 281 CURVE",
"424 185 OFFCURVE",
"371 139 OFFCURVE",
"267 139 CURVE",
"89 139 LINE",
"89 112 LINE",
"267 112 LINE",
"384 112 OFFCURVE",
"449 171 OFFCURVE",
"449 281 CURVE",
"449 394 OFFCURVE",
"388 451 OFFCURVE",
"267 451 CURVE",
"90 451 LINE"
);
}
);
width = 474;
},
{
layerId = "F5474A38-5AEA-454E-84E5-A62166EBBEA7";
paths = (
{
closed = 1;
nodes = (
"190 563 LINE",
"50 563 LINE",
"50 0 LINE",
"190 0 LINE"
);
},
{
closed = 1;
nodes = (
"171 359 LINE",
"259 359 LINE",
"316 359 OFFCURVE",
"361 332 OFFCURVE",
"361 275 CURVE",
"361 219 OFFCURVE",
"315 190 OFFCURVE",
"259 190 CURVE",
"172 190 LINE",
"172 92 LINE",
"280 92 LINE",
"404 92 OFFCURVE",
"487 161 OFFCURVE",
"487 273 CURVE",
"487 405 OFFCURVE",
"408 471 OFFCURVE",
"280 471 CURVE",
"171 471 LINE"
);
}
);
width = 500;
}
);
unicode = 00DE;
},
{
glyphname = Q;
lastChange = "2018-12-28 19:09:46 +0000";
layers = (
{
guideLines = (
{
position = "{807, -14}";
}
);
layerId = "D86F237C-A043-4FD6-9305-0CC5F899F330";
paths = (
{
closed = 1;
nodes = (
"479 -14 OFFCURVE",
"570 106 OFFCURVE",
"570 282 CURVE",
"570 458 OFFCURVE",
"479 573 OFFCURVE",
"304 573 CURVE",
"126 573 OFFCURVE",
"38 457 OFFCURVE",
"38 280 CURVE",
"38 100 OFFCURVE",
"131 -14 OFFCURVE",
"304 -14 CURVE"
);
},
{
closed = 1;
nodes = (
"393 -102 OFFCURVE",
"412 -75 OFFCURVE",
"412 -75 CURVE",
"404 -53 LINE",
"404 -53 OFFCURVE",
"387 -77 OFFCURVE",
"358 -77 CURVE",
"317 -77 OFFCURVE",
"317 -28 OFFCURVE",
"317 -11 CURVE",
"317 8 LINE",
"293 8 LINE",
"293 -11 LINE",
"293 -80 OFFCURVE",
"322 -102 OFFCURVE",
"358 -102 CURVE"
);
},
{
closed = 1;
nodes = (
"142 11 OFFCURVE",
"64 117 OFFCURVE",
"64 281 CURVE",
"64 450 OFFCURVE",
"146 548 OFFCURVE",
"304 548 CURVE",
"466 548 OFFCURVE",
"544 443 OFFCURVE",
"544 280 CURVE",
"544 116 OFFCURVE",
"463 11 OFFCURVE",
"304 11 CURVE"
);
}
);
width = 601;
},
{
guideLines = (
{
angle = 90;
position = "{323, 46}";
},
{
position = "{273, -139}";
},
{
position = "{273, -366}";
},
{
position = "{213, 69}";
},
{
angle = 90;
position = "{262, -82}";
}
);
layerId = "F5474A38-5AEA-454E-84E5-A62166EBBEA7";
paths = (
{
closed = 1;
nodes = (
"507 -14 OFFCURVE",
"606 106 OFFCURVE",
"606 280 CURVE SMOOTH",
"606 457 OFFCURVE",
"507 573 OFFCURVE",
"319 573 CURVE SMOOTH",
"126 573 OFFCURVE",
"30 456 OFFCURVE",
"30 280 CURVE SMOOTH",
"30 100 OFFCURVE",
"131 -14 OFFCURVE",
"319 -14 CURVE SMOOTH"
);
},
{
closed = 1;
nodes = (
"393 -141 OFFCURVE",
"484 -140 OFFCURVE",
"492 -140 CURVE",
"494 -35 LINE",
"468 -35 OFFCURVE",
"438 -36 OFFCURVE",
"444 -36 CURVE",
"390 -36 OFFCURVE",
"395 -36 OFFCURVE",
"395 25 CURVE",
"395 69 LINE",
"262 69 LINE",
"262 14 LINE",
"262 -147 OFFCURVE",
"342 -141 OFFCURVE",
"400 -141 CURVE"
);
},
{
closed = 1;
nodes = (
"219 124 OFFCURVE",
"172 188 OFFCURVE",
"172 285 CURVE SMOOTH",
"172 387 OFFCURVE",
"222 447 OFFCURVE",
"317 447 CURVE SMOOTH",
"415 447 OFFCURVE",
"463 382 OFFCURVE",
"463 285 CURVE SMOOTH",
"463 187 OFFCURVE",
"415 124 OFFCURVE",
"317 124 CURVE SMOOTH"
);
}
);
width = 636;
}
);
unicode = 0051;
},
{
glyphname = R;
lastChange = "2019-04-30 13:25:33 +0000";
layers = (
{
guideLines = (
{
angle = 90;
position = "{320, 556}";
},
{
position = "{293, 536}";
},
{
position = "{291, -10}";
}
);
layerId = "D86F237C-A043-4FD6-9305-0CC5F899F330";
paths = (
{
closed = 1;
nodes = (
"95 0 LINE",
"95 253 LINE",
"381 253 OFFCURVE",
"402 278 OFFCURVE",
"402 59 CURVE",
"402 -29 OFFCURVE",
"473 -8 OFFCURVE",
"473 -8 CURVE",
"473 17 LINE",
"362 -21 OFFCURVE",
"510 266 OFFCURVE",
"313 266 CURVE",
"409 266 OFFCURVE",
"449 337 OFFCURVE",
"449 407 CURVE",
"449 530 OFFCURVE",
"373 563 OFFCURVE",
"232 563 CURVE",
"68 563 LINE",
"68 0 LINE"
);
},
{
closed = 1;
nodes = (
"95 537 LINE",
"232 537 LINE",
"355 537 OFFCURVE",
"424 520 OFFCURVE",
"424 407 CURVE",
"424 311 OFFCURVE",
"370 278 OFFCURVE",
"257 278 CURVE",
"95 278 LINE"
);
}
);
width = 508;
},
{
guideLines = (
{
position = "{165, 468}";
},
{
position = "{172, 334}";
},
{
position = "{498, -10}";
}
);
layerId = "F5474A38-5AEA-454E-84E5-A62166EBBEA7";
paths = (
{
closed = 1;
nodes = (
"190 0 LINE",
"190 223 LINE",
"342 237 OFFCURVE",
"348 194 OFFCURVE",
"348 130 CURVE SMOOTH",
"348 -20 OFFCURVE",
"470 -38 OFFCURVE",
"545 25 CURVE",
"545 101 LINE",
"427 53 OFFCURVE",
"505 233 OFFCURVE",
"393 233 CURVE",
"469 233 OFFCURVE",
"517 291 OFFCURVE",
"517 393 CURVE SMOOTH",
"517 516 OFFCURVE",
"426 563 OFFCURVE",
"279 563 CURVE SMOOTH",
"50 563 LINE",
"50 0 LINE"
);
},
{
closed = 1;
nodes = (
"190 451 LINE",
"242 451 LINE SMOOTH",
"340 451 OFFCURVE",
"393 455 OFFCURVE",
"393 381 CURVE SMOOTH",
"393 314 OFFCURVE",
"351 321 OFFCURVE",
"260 321 CURVE SMOOTH",
"190 321 LINE"
);
}
);
width = 578;
}
);
leftKerningGroup = R;
rightKerningGroup = R;
unicode = 0052;
},
{
glyphname = S;
lastChange = "2019-04-30 14:57:49 +0000";
layers = (
{
guideLines = (
{
position = "{264, -14}";
},
{
angle = 90;
position = "{299, 452}";
}
);
layerId = "D86F237C-A043-4FD6-9305-0CC5F899F330";
paths = (
{
closed = 1;
nodes = (
"370 -14 OFFCURVE",
"458 38 OFFCURVE",
"461 128 CURVE",
"467 352 OFFCURVE",
"79 243 OFFCURVE",
"84 435 CURVE",
"86 499 OFFCURVE",
"158 548 OFFCURVE",
"259 548 CURVE",
"318 548 OFFCURVE",
"433 520 OFFCURVE",
"429 398 CURVE",
"456 398 LINE",
"460 513 OFFCURVE",
"371 573 OFFCURVE",
"260 573 CURVE",
"153 573 OFFCURVE",
"60 521 OFFCURVE",
"57 435 CURVE",
"51 220 OFFCURVE",
"443 324 OFFCURVE",
"437 128 CURVE",
"436 108 OFFCURVE",
"424 11 OFFCURVE",
"264 11 CURVE",
"57 11 OFFCURVE",
"60 158 OFFCURVE",
"60 166 CURVE",
"33 166 LINE",
"36 40 OFFCURVE",
"148 -14 OFFCURVE",
"263 -14 CURVE"
);
}
);
width = 496;
},
{
guideLines = (
{
position = "{651, 352}";
},
{
position = "{328, 563}";
},
{
angle = 180;
position = "{537, 193}";
},
{
position = "{400, 435}";
}
);
layerId = "F5474A38-5AEA-454E-84E5-A62166EBBEA7";
paths = (
{
closed = 1;
nodes = (
"431 -10 OFFCURVE",
"529 47 OFFCURVE",
"536 145 CURVE SMOOTH",
"553 378 OFFCURVE",
"187 293 OFFCURVE",
"187 398 CURVE SMOOTH",
"187 432 OFFCURVE",
"223 442 OFFCURVE",
"273 442 CURVE SMOOTH",
"319 442 OFFCURVE",
"394 432 OFFCURVE",
"394 370 CURVE",
"529 370 LINE",
"528 508 OFFCURVE",
"413 573 OFFCURVE",
"289 573 CURVE SMOOTH",
"134 573 OFFCURVE",
"45 514 OFFCURVE",
"38 416 CURVE SMOOTH",
"22 186 OFFCURVE",
"380 257 OFFCURVE",
"380 161 CURVE SMOOTH",
"380 121 OFFCURVE",
"331 116 OFFCURVE",
"293 116 CURVE SMOOTH",
"179 116 OFFCURVE",
"163 178 OFFCURVE",
"163 194 CURVE",
"23 194 LINE",
"23 46 OFFCURVE",
"155 -10 OFFCURVE",
"282 -10 CURVE SMOOTH"
);
}
);
width = 584;
}
);
leftKerningGroup = S;
rightKerningGroup = S;
unicode = 0053;
},
{
glyphname = T;
lastChange = "2019-01-08 13:41:51 +0000";
layers = (
{
layerId = "D86F237C-A043-4FD6-9305-0CC5F899F330";
paths = (
{
closed = 1;
nodes = (
"205 545 LINE",
"205 0 LINE",
"231 0 LINE",
"231 545 LINE"
);
},
{
closed = 1;
nodes = (
"425 538 LINE",
"425 563 LINE",
"10 563 LINE",
"10 538 LINE"
);
}
);
width = 434;
},
{
layerId = "F5474A38-5AEA-454E-84E5-A62166EBBEA7";
paths = (
{
closed = 1;
nodes = (
"162 545 LINE",
"162 0 LINE",
"302 0 LINE",
"302 545 LINE"
);
},
{
closed = 1;
nodes = (
"455 444 LINE",
"455 563 LINE",
"10 563 LINE",
"10 444 LINE"
);
}
);
width = 480;
}
);
leftKerningGroup = T;
rightKerningGroup = T;
unicode = 0054;
},
{
glyphname = Tbar;
lastChange = "2019-01-09 01:43:53 +0000";
layers = (
{
layerId = "D86F237C-A043-4FD6-9305-0CC5F899F330";
paths = (
{
closed = 1;
nodes = (
"425 538 LINE",
"425 563 LINE",
"10 563 LINE",
"10 538 LINE"
);
},
{
closed = 1;
nodes = (
"380 302 LINE",
"380 327 LINE",
"55 327 LINE",
"55 302 LINE"
);
},
{
closed = 1;
nodes = (
"205 545 LINE",
"205 0 LINE",
"231 0 LINE",
"231 545 LINE"
);
}
);
width = 434;
},
{
layerId = "F5474A38-5AEA-454E-84E5-A62166EBBEA7";
paths = (
{
closed = 1;
nodes = (
"455 444 LINE",
"455 563 LINE",
"10 563 LINE",
"10 444 LINE"
);
},
{
closed = 1;
nodes = (
"408 237 LINE",
"408 333 LINE",
"58 333 LINE",
"58 237 LINE"
);
},
{
closed = 1;
nodes = (
"163 545 LINE",
"163 0 LINE",
"303 0 LINE",
"303 545 LINE"
);
}
);
width = 480;
}
);
leftKerningGroup = T;
rightKerningGroup = T;
unicode = 0166;
},
{
glyphname = U;
lastChange = "2019-01-08 13:11:46 +0000";
layers = (
{
guideLines = (
{
position = "{288, -14}";
}
);
layerId = "D86F237C-A043-4FD6-9305-0CC5F899F330";
paths = (
{
closed = 1;
nodes = (
"419 -14 OFFCURVE",
"498 76 OFFCURVE",
"498 240 CURVE",
"498 563 LINE",
"474 563 LINE",
"474 240 LINE",
"474 91 OFFCURVE",
"407 11 OFFCURVE",
"274 11 CURVE",
"148 11 OFFCURVE",
"75 93 OFFCURVE",
"75 240 CURVE",
"75 563 LINE",
"50 563 LINE",
"50 240 LINE",
"50 79 OFFCURVE",
"132 -14 OFFCURVE",
"274 -14 CURVE"
);
}
);
width = 558;
},
{
layerId = "F5474A38-5AEA-454E-84E5-A62166EBBEA7";
paths = (
{
closed = 1;
nodes = (
"482 -14 OFFCURVE",
"566 76 OFFCURVE",
"566 240 CURVE",
"566 563 LINE",
"416 563 LINE",
"416 241 LINE",
"416 129 OFFCURVE",
"356 119 OFFCURVE",
"310 119 CURVE",
"272 119 OFFCURVE",
"205 130 OFFCURVE",
"205 241 CURVE",
"205 563 LINE",
"55 563 LINE",
"55 240 LINE",
"55 79 OFFCURVE",
"142 -14 OFFCURVE",
"310 -14 CURVE"
);
}
);
width = 614;
}
);
leftKerningGroup = U;
rightKerningGroup = U;
unicode = 0055;
},
{
glyphname = Uhungarumlaut;
lastChange = "2019-01-08 13:37:03 +0000";
layers = (
{
components = (
{
name = U;
}
);
layerId = "D86F237C-A043-4FD6-9305-0CC5F899F330";
paths = (
{
closed = 1;
nodes = (
"209 632 LINE",
"305 753 LINE",
"275 766 LINE",
"193 639 LINE"
);
},
{
closed = 1;
nodes = (
"319 632 LINE",
"415 753 LINE",
"385 766 LINE",
"303 639 LINE"
);
}
);
width = 558;
},
{
components = (
{
name = U;
}
);
layerId = "F5474A38-5AEA-454E-84E5-A62166EBBEA7";
paths = (
{
closed = 1;
nodes = (
"211 610 LINE",
"323 745 LINE",
"216 798 LINE",
"149 640 LINE"
);
},
{
closed = 1;
nodes = (
"412 610 LINE",
"524 745 LINE",
"417 798 LINE",
"350 640 LINE"
);
}
);
width = 600;
}
);
leftKerningGroup = U;
rightKerningGroup = U;
unicode = 0170;
},
{
glyphname = Uogonek;
lastChange = "2019-01-08 13:37:07 +0000";
layers = (
{
components = (
{
name = U;
}
);
layerId = "D86F237C-A043-4FD6-9305-0CC5F899F330";
paths = (
{
closed = 1;
nodes = (
"334 -198 OFFCURVE",
"356 -155 OFFCURVE",
"356 -155 CURVE",
"334 -140 LINE",
"334 -140 OFFCURVE",
"325 -174 OFFCURVE",
"284 -174 CURVE",
"250 -174 OFFCURVE",
"232 -152 OFFCURVE",
"232 -123 CURVE",
"232 -49 OFFCURVE",
"334 -6 OFFCURVE",
"334 -6 CURVE",
"329 7 LINE",
"329 7 OFFCURVE",
"208 -37 OFFCURVE",
"208 -123 CURVE",
"208 -165 OFFCURVE",
"235 -198 OFFCURVE",
"284 -198 CURVE"
);
}
);
width = 558;
},
{
components = (
{
name = U;
}
);
layerId = "F5474A38-5AEA-454E-84E5-A62166EBBEA7";
paths = (
{
closed = 1;
nodes = (
"401 -186 OFFCURVE",
"440 -126 OFFCURVE",
"440 -126 CURVE",
"369 -62 LINE",
"369 -62 OFFCURVE",
"352 -88 OFFCURVE",
"329 -88 CURVE",
"314 -88 OFFCURVE",
"304 -80 OFFCURVE",
"304 -66 CURVE SMOOTH",
"304 -27 OFFCURVE",
"374 -6 OFFCURVE",
"374 -6 CURVE",
"374 56 LINE",
"374 56 OFFCURVE",
"204 14 OFFCURVE",
"204 -91 CURVE",
"204 -163 OFFCURVE",
"267 -186 OFFCURVE",
"316 -186 CURVE"
);
}
);
width = 614;
}
);
leftKerningGroup = U;
rightKerningGroup = U;
unicode = 0172;
},
{
glyphname = V;
lastChange = "2019-04-30 15:25:48 +0000";
layers = (
{
guideLines = (
{
position = "{69, 569}";
}
);
layerId = "D86F237C-A043-4FD6-9305-0CC5F899F330";
paths = (
{
closed = 1;
nodes = (
"223 16 LINE",
"18 563 LINE",
"-10 563 LINE",
"200 0 LINE",
"246 0 LINE",
"457 563 LINE",
"428 563 LINE"
);
}
);
width = 477;
},
{
layerId = "F5474A38-5AEA-454E-84E5-A62166EBBEA7";
paths = (
{
closed = 1;
nodes = (
"304 57 LINE",
"168 563 LINE",
"15 563 LINE",
"189 0 LINE",
"421 0 LINE",
"595 563 LINE",
"442 563 LINE"
);
}
);
width = 595;
}
);
unicode = 0056;
},
{
glyphname = W;
lastChange = "2019-01-14 08:37:50 +0000";
layers = (
{
guideLines = (
{
angle = 90;
position = "{807, 215}";
},
{
angle = 90;
position = "{432, 215}";
},
{
angle = 90;
position = "{404, 200}";
},
{
angle = 90;
position = "{29, 200}";
}
);
layerId = "D86F237C-A043-4FD6-9305-0CC5F899F330";
paths = (
{
closed = 1;
nodes = (
"209 16 LINE",
"29 563 LINE",
"0 563 LINE",
"185 0 LINE",
"231 0 LINE",
"417 523 LINE",
"432 563 LINE",
"403 563 LINE"
);
},
{
closed = 1;
nodes = (
"616 16 LINE",
"432 563 LINE",
"404 563 LINE",
"417 523 LINE",
"594 0 LINE",
"640 0 LINE",
"837 563 LINE",
"807 563 LINE"
);
}
);
width = 857;
},
{
layerId = "F5474A38-5AEA-454E-84E5-A62166EBBEA7";
paths = (
{
closed = 1;
nodes = (
"242 57 LINE",
"168 563 LINE",
"20 563 LINE",
"131 0 LINE",
"355 0 LINE",
"402 387 LINE",
"476 563 LINE",
"328 563 LINE"
);
},
{
closed = 1;
nodes = (
"567 57 LINE",
"476 563 LINE",
"326 563 LINE",
"402 387 LINE",
"455 0 LINE",
"678 0 LINE",
"782 563 LINE",
"634 563 LINE"
);
}
);
width = 802;
}
);
leftKerningGroup = W;
rightKerningGroup = W;
unicode = 0057;
},
{
glyphname = X;
lastChange = "2019-04-30 15:55:59 +0000";
layers = (
{
layerId = "D86F237C-A043-4FD6-9305-0CC5F899F330";
paths = (
{
closed = 1;
nodes = (
"61 0 LINE",
"259 278 LINE",
"456 0 LINE",
"490 0 LINE",
"276 300 LINE",
"465 563 LINE",
"430 563 LINE",
"259 322 LINE",
"88 563 LINE",
"53 563 LINE",
"244 300 LINE",
"30 0 LINE"
);
}
);
width = 528;
},
{
layerId = "F5474A38-5AEA-454E-84E5-A62166EBBEA7";
paths = (
{
closed = 1;
nodes = (
"178 0 LINE",
"303 210 LINE",
"429 0 LINE",
"591 0 LINE",
"397 295 LINE",
"575 563 LINE",
"413 563 LINE",
"303 376 LINE",
"193 563 LINE",
"29 563 LINE",
"209 295 LINE",
"16 0 LINE"
);
}
);
width = 591;
}
);
unicode = 0058;
},
{
glyphname = Y;
lastChange = "2019-01-14 08:32:53 +0000";
layers = (
{
layerId = "D86F237C-A043-4FD6-9305-0CC5F899F330";
paths = (
{
closed = 1;
nodes = (
"210 207 LINE",
"404 563 LINE",
"376 563 LINE",
"201 241 LINE",
"24 563 LINE",
"-5 563 LINE",
"189 207 LINE"
);
},
{
closed = 1;
nodes = (
"213 0 LINE",
"213 220 LINE",
"186 220 LINE",
"186 0 LINE"
);
}
);
width = 413;
},
{
layerId = "F5474A38-5AEA-454E-84E5-A62166EBBEA7";
paths = (
{
closed = 1;
nodes = (
"302 194 LINE",
"499 563 LINE",
"342 563 LINE",
"235 312 LINE",
"128 563 LINE",
"-29 563 LINE",
"162 194 LINE"
);
},
{
closed = 1;
nodes = (
"302 0 LINE",
"302 207 LINE",
"163 207 LINE",
"163 0 LINE"
);
}
);
width = 464;
}
);
leftKerningGroup = Y;
rightKerningGroup = Y;
unicode = 0059;
},
{
glyphname = Z;
lastChange = "2019-01-08 13:11:58 +0000";
layers = (
{
layerId = "D86F237C-A043-4FD6-9305-0CC5F899F330";
paths = (
{
closed = 1;
nodes = (
"478 0 LINE",
"478 26 LINE",
"64 26 LINE",
"481 540 LINE",
"481 563 LINE",
"68 563 LINE",
"68 537 LINE",
"447 537 LINE",
"30 23 LINE",
"30 0 LINE"
);
}
);
width = 525;
},
{
layerId = "F5474A38-5AEA-454E-84E5-A62166EBBEA7";
paths = (
{
closed = 1;
nodes = (
"534 0 LINE",
"534 119 LINE",
"236 119 LINE",
"535 444 LINE",
"535 563 LINE",
"69 563 LINE",
"69 444 LINE",
"356 444 LINE",
"50 117 LINE",
"50 0 LINE"
);
}
);
width = 583;
}
);
leftKerningGroup = Z;
rightKerningGroup = Z;
unicode = 005A;
},
{
glyphname = I.ss01;
lastChange = "2019-01-11 08:57:39 +0000";
layers = (
{
guideLines = (
{
position = "{148, 56}";
},
{
position = "{148, 55}";
},
{
angle = 90;
position = "{182, 70}";
},
{
angle = 90;
position = "{181, 70}";
}
);
layerId = "D86F237C-A043-4FD6-9305-0CC5F899F330";
paths = (
{
closed = 1;
nodes = (
"252 -76 LINE",
"254 343 OFFCURVE",
"275 413 OFFCURVE",
"466 413 CURVE",
"466 426 LINE",
"258 426 OFFCURVE",
"254 514 OFFCURVE",
"254 684 CURVE",
"240 684 LINE",
"240 514 OFFCURVE",
"236 426 OFFCURVE",
"35 426 CURVE",
"35 413 LINE",
"219 413 OFFCURVE",
"236 343 OFFCURVE",
"240 -75 CURVE"
);
},
{
closed = 1;
nodes = (
"246 352 OFFCURVE",
"251 417 OFFCURVE",
"169 418 CURVE",
"247 418 OFFCURVE",
"247 444 OFFCURVE",
"247 506 CURVE",
"248 506 LINE",
"248 444 OFFCURVE",
"248 418 OFFCURVE",
"327 418 CURVE",
"248 417 OFFCURVE",
"250 351 OFFCURVE",
"248 228 CURVE",
"247 228 LINE"
);
}
);
width = 501;
},
{
layerId = "F5474A38-5AEA-454E-84E5-A62166EBBEA7";
paths = (
{
closed = 1;
nodes = (
"305 -64 LINE",
"306 363 OFFCURVE",
"276 381 OFFCURVE",
"466 381 CURVE",
"466 499 LINE",
"305 499 OFFCURVE",
"307 534 OFFCURVE",
"307 704 CURVE",
"188 704 LINE",
"188 534 OFFCURVE",
"188 499 OFFCURVE",
"35 499 CURVE",
"35 381 LINE",
"220 381 OFFCURVE",
"183 363 OFFCURVE",
"188 -63 CURVE"
);
},
{
closed = 1;
nodes = (
"241 421 OFFCURVE",
"251 437 OFFCURVE",
"169 438 CURVE",
"247 438 OFFCURVE",
"242 464 OFFCURVE",
"242 526 CURVE",
"253 526 LINE",
"253 464 OFFCURVE",
"248 438 OFFCURVE",
"327 438 CURVE",
"248 437 OFFCURVE",
"254 421 OFFCURVE",
"253 192 CURVE",
"242 192 LINE"
);
}
);
width = 501;
}
);
leftKerningGroup = I;
rightKerningGroup = I;
},
{
glyphname = a;
lastChange = "2019-04-30 15:44:37 +0000";
layers = (
{
guideLines = (
{
angle = 90;
position = "{65, 363}";
},
{
position = "{264, -3}";
},
{
angle = 90;
position = "{364, -35}";
},
{
position = "{234, -9}";
},
{
position = "{193, 381}";
},
{
angle = 90;
position = "{336, -35}";
},
{
position = "{192, 200}";
},
{
position = "{171, 137}";
},
{
position = "{171, 260}";
}
);
layerId = "D86F237C-A043-4FD6-9305-0CC5F899F330";
paths = (
{
closed = 1;
nodes = (
"257 -9 OFFCURVE",
"306 31 OFFCURVE",
"332 90 CURVE",
"334 90 LINE",
"339 0 LINE",
"360 0 LINE",
"360 404 LINE",
"333 404 LINE",
"333 312 LINE",
"332 312 LINE",
"307 370 OFFCURVE",
"257 409 OFFCURVE",
"185 409 CURVE SMOOTH",
"76 409 OFFCURVE",
"15 319 OFFCURVE",
"15 200 CURVE SMOOTH",
"15 86 OFFCURVE",
"73 -9 OFFCURVE",
"185 -9 CURVE SMOOTH"
);
},
{
closed = 1;
nodes = (
"97 19 OFFCURVE",
"44 91 OFFCURVE",
"44 200 CURVE SMOOTH",
"44 305 OFFCURVE",
"94 381 OFFCURVE",
"193 381 CURVE SMOOTH",
"278 381 OFFCURVE",
"332 322 OFFCURVE",
"332 199 CURVE SMOOTH",
"332 84 OFFCURVE",
"283 19 OFFCURVE",
"193 19 CURVE SMOOTH"
);
}
);
width = 400;
},
{
associatedMasterId = "D86F237C-A043-4FD6-9305-0CC5F899F330";
layerId = "4F74EB86-85FD-434C-825E-C31914DC3962";
name = "new Layer";
width = 600;
},
{
guideLines = (
{
angle = 90;
position = "{454, -6}";
},
{
angle = 90;
position = "{361, 367}";
},
{
angle = 270;
position = "{484, 47}";
},
{
angle = 90;
position = "{310, -6}";
},
{
position = "{86, 199}";
},
{
angle = 90;
position = "{323, 248}";
},
{
position = "{418, 0}";
},
{
position = "{317, 424}";
},
{
position = "{116, 280}";
},
{
angle = 90;
position = "{175, 64}";
},
{
position = "{116, 338}";
},
{
position = "{418, 292}";
}
);
layerId = "F5474A38-5AEA-454E-84E5-A62166EBBEA7";
paths = (
{
closed = 1;
nodes = (
"278 -10 OFFCURVE",
"306 56 OFFCURVE",
"304 56 CURVE",
"306 56 LINE",
"328 0 LINE",
"450 0 LINE",
"450 414 LINE",
"306 414 LINE",
"306 338 LINE",
"304 338 LINE SMOOTH",
"305 338 OFFCURVE",
"282 414 OFFCURVE",
"174 414 CURVE SMOOTH",
"61 414 OFFCURVE",
"24 330 OFFCURVE",
"24 200 CURVE SMOOTH",
"24 70 OFFCURVE",
"61 -10 OFFCURVE",
"174 -10 CURVE SMOOTH"
);
},
{
closed = 1;
nodes = (
"165 105 OFFCURVE",
"160 151 OFFCURVE",
"160 199 CURVE SMOOTH",
"160 246 OFFCURVE",
"165 292 OFFCURVE",
"233 292 CURVE SMOOTH",
"301 292 OFFCURVE",
"306 247 OFFCURVE",
"306 199 CURVE SMOOTH",
"306 152 OFFCURVE",
"301 105 OFFCURVE",
"233 105 CURVE SMOOTH"
);
}
);
width = 480;
}
);
leftKerningGroup = a.ss01;
rightKerningGroup = a.ss01;
unicode = 0061;
},
{
glyphname = adieresis;
lastChange = "2019-04-28 01:29:32 +0000";
layers = (
{
components = (
{
name = dieresiscomb;
transform = "{1, 0, 0, 1, 64, -237}";
}
);
guideLines = (
{
position = "{319, 464}";
},
{
position = "{319, 403}";
},
{
angle = 90;
position = "{211, 448}";
}
);
layerId = "D86F237C-A043-4FD6-9305-0CC5F899F330";
paths = (
{
closed = 1;
nodes = (
"318 -9 OFFCURVE",
"377 79 OFFCURVE",
"377 200 CURVE",
"377 318 OFFCURVE",
"320 409 OFFCURVE",
"203 409 CURVE",
"88 409 OFFCURVE",
"28 317 OFFCURVE",
"28 200 CURVE",
"28 86 OFFCURVE",
"86 -9 OFFCURVE",
"203 -9 CURVE"
);
},
{
closed = 1;
nodes = (
"112 19 OFFCURVE",
"57 91 OFFCURVE",
"57 200 CURVE",
"57 306 OFFCURVE",
"109 381 OFFCURVE",
"211 381 CURVE",
"295 381 OFFCURVE",
"356 316 OFFCURVE",
"356 200 CURVE",
"356 86 OFFCURVE",
"298 19 OFFCURVE",
"211 19 CURVE"
);
},
{
closed = 1;
nodes = (
"432 -9 OFFCURVE",
"451 1 OFFCURVE",
"455 4 CURVE",
"447 26 LINE",
"441 21 OFFCURVE",
"383 -9 OFFCURVE",
"383 67 CURVE",
"383 404 LINE",
"356 404 LINE",
"356 67 LINE",
"356 7 OFFCURVE",
"385 -8 OFFCURVE",
"410 -9 CURVE"
);
}
);
width = 448;
},
{
components = (
{
name = dieresiscomb;
transform = "{1, 0, 0, 1, 31, -204}";
}
);
guideLines = (
{
position = "{365, 414}";
},
{
position = "{365, 477}";
},
{
angle = 90;
position = "{233, 279}";
}
);
layerId = "F5474A38-5AEA-454E-84E5-A62166EBBEA7";
paths = (
{
closed = 1;
nodes = (
"345 -10 OFFCURVE",
"384 143 OFFCURVE",
"384 238 CURVE",
"384 312 OFFCURVE",
"323 424 OFFCURVE",
"198 424 CURVE",
"76 424 OFFCURVE",
"12 328 OFFCURVE",
"12 207 CURVE",
"12 89 OFFCURVE",
"74 -10 OFFCURVE",
"198 -10 CURVE"
);
},
{
closed = 1;
nodes = (
"159 96 OFFCURVE",
"151 155 OFFCURVE",
"151 208 CURVE",
"151 263 OFFCURVE",
"159 322 OFFCURVE",
"235 322 CURVE",
"313 322 OFFCURVE",
"320 263 OFFCURVE",
"320 208 CURVE",
"320 155 OFFCURVE",
"313 96 OFFCURVE",
"235 96 CURVE"
);
},
{
closed = 1;
nodes = (
"494 -10 OFFCURVE",
"519 23 OFFCURVE",
"518 21 CURVE",
"520 96 LINE",
"464 70 OFFCURVE",
"469 117 OFFCURVE",
"469 147 CURVE",
"469 414 LINE",
"330 414 LINE",
"330 94 LINE",
"330 74 OFFCURVE",
"323 -10 OFFCURVE",
"428 -10 CURVE"
);
}
);
width = 545;
}
);
leftKerningGroup = a.ss01;
rightKerningGroup = a;
unicode = 00E4;
},
{
glyphname = ae;
lastChange = "2019-04-28 01:21:51 +0000";
layers = (
{
layerId = "D86F237C-A043-4FD6-9305-0CC5F899F330";
paths = (
{
closed = 1;
nodes = (
"245 0 OFFCURVE",
"323 63 OFFCURVE",
"334 161 CURVE",
"350 75 OFFCURVE",
"411 0 OFFCURVE",
"517 0 CURVE SMOOTH",
"605 0 OFFCURVE",
"676 54 OFFCURVE",
"693 135 CURVE",
"666 135 LINE",
"652 67 OFFCURVE",
"592 25 OFFCURVE",
"517 25 CURVE SMOOTH",
"414 25 OFFCURVE",
"357 99 OFFCURVE",
"357 211 CURVE",
"694 211 LINE",
"693 236 LINE",
"684 343 OFFCURVE",
"614 414 OFFCURVE",
"517 414 CURVE SMOOTH",
"437 414 OFFCURVE",
"383 372 OFFCURVE",
"354 314 CURVE",
"342 380 OFFCURVE",
"276 413 OFFCURVE",
"209 413 CURVE SMOOTH",
"138 413 OFFCURVE",
"64 374 OFFCURVE",
"51 295 CURVE",
"78 295 LINE",
"85 358 OFFCURVE",
"148 389 OFFCURVE",
"207 389 CURVE SMOOTH",
"270 389 OFFCURVE",
"329 354 OFFCURVE",
"329 291 CURVE SMOOTH",
"329 262 OFFCURVE",
"311 254 OFFCURVE",
"221 235 CURVE SMOOTH",
"135 216 OFFCURVE",
"32 197 OFFCURVE",
"32 102 CURVE SMOOTH",
"32 40 OFFCURVE",
"79 0 OFFCURVE",
"152 0 CURVE SMOOTH"
);
},
{
closed = 1;
nodes = (
"95 26 OFFCURVE",
"59 57 OFFCURVE",
"59 103 CURVE SMOOTH",
"59 176 OFFCURVE",
"136 192 OFFCURVE",
"227 212 CURVE SMOOTH",
"271 222 OFFCURVE",
"308 229 OFFCURVE",
"326 243 CURVE",
"326 125 OFFCURVE",
"271 26 OFFCURVE",
"152 26 CURVE SMOOTH"
);
},
{
closed = 1;
nodes = (
"371 325 OFFCURVE",
"427 389 OFFCURVE",
"517 389 CURVE SMOOTH",
"619 389 OFFCURVE",
"664 298 OFFCURVE",
"666 236 CURVE",
"360 236 LINE"
);
}
);
width = 734;
},
{
layerId = "F5474A38-5AEA-454E-84E5-A62166EBBEA7";
paths = (
{
closed = 1;
nodes = (
"258 0 OFFCURVE",
"290 110 OFFCURVE",
"292 135 CURVE",
"315 60 OFFCURVE",
"377 0 OFFCURVE",
"497 0 CURVE SMOOTH",
"615 0 OFFCURVE",
"672 67 OFFCURVE",
"696 144 CURVE",
"563 171 LINE",
"555 140 OFFCURVE",
"539 120 OFFCURVE",
"496 120 CURVE SMOOTH",
"446 120 OFFCURVE",
"414 146 OFFCURVE",
"414 199 CURVE",
"692 199 LINE",
"692 225 LINE SMOOTH",
"692 340 OFFCURVE",
"605 427 OFFCURVE",
"498 427 CURVE SMOOTH",
"439 427 OFFCURVE",
"395 413 OFFCURVE",
"362 391 CURVE",
"327 415 OFFCURVE",
"280 426 OFFCURVE",
"233 426 CURVE SMOOTH",
"136 426 OFFCURVE",
"42 381 OFFCURVE",
"42 251 CURVE",
"172 251 LINE",
"164 309 OFFCURVE",
"202 325 OFFCURVE",
"232 325 CURVE SMOOTH",
"260 325 OFFCURVE",
"280 310 OFFCURVE",
"280 289 CURVE SMOOTH",
"280 262 OFFCURVE",
"266 254 OFFCURVE",
"180 235 CURVE SMOOTH",
"96 216 OFFCURVE",
"16 193 OFFCURVE",
"16 110 CURVE SMOOTH",
"16 45 OFFCURVE",
"66 0 OFFCURVE",
"141 0 CURVE SMOOTH"
);
},
{
closed = 1;
nodes = (
"186 95 OFFCURVE",
"160 100 OFFCURVE",
"157 127 CURVE SMOOTH",
"154 163 OFFCURVE",
"189 189 OFFCURVE",
"224 202 CURVE SMOOTH",
"240 208 OFFCURVE",
"272 217 OFFCURVE",
"280 226 CURVE",
"280 164 OFFCURVE",
"238 102 OFFCURVE",
"201 97 CURVE SMOOTH"
);
},
{
closed = 1;
nodes = (
"414 267 OFFCURVE",
"419 331 OFFCURVE",
"492 331 CURVE SMOOTH",
"564 331 OFFCURVE",
"552 267 OFFCURVE",
"552 267 CURVE SMOOTH",
"414 267 LINE SMOOTH"
);
}
);
width = 726;
}
);
leftKerningGroup = a;
rightKerningGroup = e;
unicode = 00E6;
},
{
glyphname = b;
lastChange = "2019-04-30 14:32:36 +0000";
layers = (
{
guideLines = (
{
angle = 90;
position = "{630, 453}";
},
{
angle = 90;
position = "{129, 363}";
},
{
position = "{208, -14}";
},
{
position = "{405, 198}";
},
{
angle = 90;
position = "{284, -58}";
},
{
position = "{177, 137}";
},
{
position = "{123, 147}";
},
{
position = "{123, 270}";
},
{
angle = 90;
position = "{78, -35}";
},
{
angle = 90;
position = "{50, -35}";
},
{
position = "{177, 260}";
},
{
position = "{193, 381}";
}
);
layerId = "D86F237C-A043-4FD6-9305-0CC5F899F330";
paths = (
{
closed = 1;
nodes = (
"352 -10 OFFCURVE",
"424 82 OFFCURVE",
"424 198 CURVE SMOOTH",
"424 310 OFFCURVE",
"353 404 OFFCURVE",
"238 404 CURVE SMOOTH",
"125 404 OFFCURVE",
"87 309 OFFCURVE",
"80 288 CURVE",
"78 288 LINE",
"77 563 LINE",
"50 563 LINE",
"50 0 LINE",
"72 0 LINE",
"77 107 LINE",
"79 107 LINE",
"87 87 OFFCURVE",
"129 -10 OFFCURVE",
"239 -10 CURVE SMOOTH"
);
},
{
closed = 1;
nodes = (
"158 18 OFFCURVE",
"80 81 OFFCURVE",
"80 198 CURVE SMOOTH",
"80 312 OFFCURVE",
"152 376 OFFCURVE",
"234 376 CURVE SMOOTH",
"340 376 OFFCURVE",
"397 289 OFFCURVE",
"397 198 CURVE SMOOTH",
"397 107 OFFCURVE",
"348 18 OFFCURVE",
"242 18 CURVE SMOOTH"
);
}
);
width = 457;
},
{
associatedMasterId = "D86F237C-A043-4FD6-9305-0CC5F899F330";
layerId = "4F74EB86-85FD-434C-825E-C31914DC3962";
width = 600;
},
{
guideLines = (
{
angle = 90;
position = "{329, 140}";
},
{
position = "{124, 338}";
},
{
position = "{424, 157}";
},
{
position = "{426, 292}";
},
{
position = "{124, 270}";
},
{
angle = 90;
position = "{333, 161}";
},
{
angle = 90;
position = "{50, -81}";
},
{
position = "{426, 59}";
},
{
angle = 90;
position = "{475, 204}";
},
{
position = "{424, 239}";
},
{
angle = 90;
position = "{172, -81}";
}
);
layerId = "F5474A38-5AEA-454E-84E5-A62166EBBEA7";
paths = (
{
closed = 1;
nodes = (
"438 -10 OFFCURVE",
"475 69 OFFCURVE",
"475 198 CURVE SMOOTH",
"475 335 OFFCURVE",
"436 414 OFFCURVE",
"313 414 CURVE SMOOTH",
"212 414 OFFCURVE",
"185 338 OFFCURVE",
"185 338 CURVE SMOOTH",
"183 338 LINE",
"183 563 LINE",
"39 563 LINE",
"39 0 LINE",
"161 0 LINE",
"183 56 LINE",
"185 56 LINE",
"185 56 OFFCURVE",
"218 -10 OFFCURVE",
"313 -10 CURVE SMOOTH"
);
},
{
closed = 1;
nodes = (
"190 105 OFFCURVE",
"183 151 OFFCURVE",
"183 199 CURVE SMOOTH",
"183 247 OFFCURVE",
"190 292 OFFCURVE",
"261 292 CURVE SMOOTH",
"332 292 OFFCURVE",
"339 247 OFFCURVE",
"339 199 CURVE SMOOTH",
"339 151 OFFCURVE",
"332 105 OFFCURVE",
"261 105 CURVE SMOOTH"
);
}
);
width = 513;
}
);
unicode = 0062;
},
{
glyphname = c;
lastChange = "2019-04-30 14:47:39 +0000";
layers = (
{
guideLines = (
{
position = "{483, -17}";
},
{
angle = 90;
position = "{459, 282}";
}
);
layerId = "D86F237C-A043-4FD6-9305-0CC5F899F330";
paths = (
{
closed = 1;
nodes = (
"306 -10 OFFCURVE",
"377 44 OFFCURVE",
"395 125 CURVE",
"369 125 LINE",
"354 58 OFFCURVE",
"294 17 OFFCURVE",
"215 17 CURVE SMOOTH",
"116 17 OFFCURVE",
"52 85 OFFCURVE",
"52 191 CURVE SMOOTH",
"53 301 OFFCURVE",
"120 377 OFFCURVE",
"218 377 CURVE SMOOTH",
"295 377 OFFCURVE",
"354 336 OFFCURVE",
"369 269 CURVE",
"395 269 LINE",
"377 350 OFFCURVE",
"309 404 OFFCURVE",
"218 404 CURVE SMOOTH",
"104 404 OFFCURVE",
"28 316 OFFCURVE",
"25 192 CURVE SMOOTH",
"25 68 OFFCURVE",
"101 -10 OFFCURVE",
"215 -10 CURVE SMOOTH"
);
}
);
width = 435;
},
{
guideLines = (
{
angle = 90;
position = "{16, 112}";
},
{
angle = 90;
position = "{513, 146}";
},
{
position = "{287, -17}";
},
{
position = "{244, 109}";
},
{
position = "{483, 163}";
},
{
position = "{483, 150}";
},
{
position = "{474, 250}";
},
{
position = "{443, 226}";
}
);
layerId = "F5474A38-5AEA-454E-84E5-A62166EBBEA7";
paths = (
{
closed = 1;
nodes = (
"385 -10 OFFCURVE",
"456 85 OFFCURVE",
"456 173 CURVE",
"329 173 LINE",
"322 128 OFFCURVE",
"289 109 OFFCURVE",
"253 109 CURVE SMOOTH",
"190 109 OFFCURVE",
"164 149 OFFCURVE",
"164 212 CURVE SMOOTH",
"164 263 OFFCURVE",
"191 298 OFFCURVE",
"251 298 CURVE SMOOTH",
"297 298 OFFCURVE",
"322 279 OFFCURVE",
"329 240 CURVE",
"456 240 LINE",
"456 322 OFFCURVE",
"386 416 OFFCURVE",
"246 416 CURVE SMOOTH",
"125 416 OFFCURVE",
"31 337 OFFCURVE",
"28 200 CURVE SMOOTH",
"28 59 OFFCURVE",
"128 -10 OFFCURVE",
"245 -10 CURVE SMOOTH"
);
}
);
width = 486;
}
);
leftKerningGroup = c;
rightKerningGroup = c;
unicode = 0063;
},
{
glyphname = d;
lastChange = "2019-04-30 14:32:53 +0000";
layers = (
{
guideLines = (
{
angle = 90;
position = "{19, -17}";
},
{
position = "{136, 198}";
}
);
layerId = "D86F237C-A043-4FD6-9305-0CC5F899F330";
paths = (
{
closed = 1;
nodes = (
"345 -10 OFFCURVE",
"387 87 OFFCURVE",
"395 107 CURVE",
"397 107 LINE",
"402 0 LINE",
"424 0 LINE",
"424 563 LINE",
"397 563 LINE",
"396 288 LINE",
"394 288 LINE",
"387 309 OFFCURVE",
"349 404 OFFCURVE",
"236 404 CURVE SMOOTH",
"122 404 OFFCURVE",
"50 312 OFFCURVE",
"50 198 CURVE SMOOTH",
"50 84 OFFCURVE",
"120 -10 OFFCURVE",
"235 -10 CURVE SMOOTH"
);
},
{
closed = 1;
nodes = (
"126 18 OFFCURVE",
"77 107 OFFCURVE",
"77 198 CURVE SMOOTH",
"77 289 OFFCURVE",
"134 376 OFFCURVE",
"240 376 CURVE SMOOTH",
"322 376 OFFCURVE",
"394 312 OFFCURVE",
"394 198 CURVE SMOOTH",
"394 81 OFFCURVE",
"316 18 OFFCURVE",
"232 18 CURVE SMOOTH"
);
}
);
width = 469;
},
{
guideLines = (
{
position = "{385, -10}";
},
{
angle = 90;
position = "{335, 414}";
},
{
angle = 90;
position = "{462, 563}";
}
);
layerId = "F5474A38-5AEA-454E-84E5-A62166EBBEA7";
paths = (
{
closed = 1;
nodes = (
"295 -10 OFFCURVE",
"328 56 OFFCURVE",
"328 56 CURVE",
"330 56 LINE",
"352 0 LINE",
"474 0 LINE",
"474 563 LINE",
"330 563 LINE",
"330 338 LINE",
"328 338 LINE SMOOTH",
"328 338 OFFCURVE",
"301 414 OFFCURVE",
"200 414 CURVE SMOOTH",
"77 414 OFFCURVE",
"38 335 OFFCURVE",
"38 198 CURVE SMOOTH",
"38 69 OFFCURVE",
"75 -10 OFFCURVE",
"200 -10 CURVE SMOOTH"
);
},
{
closed = 1;
nodes = (
"181 105 OFFCURVE",
"174 151 OFFCURVE",
"174 199 CURVE SMOOTH",
"174 247 OFFCURVE",
"181 292 OFFCURVE",
"252 292 CURVE SMOOTH",
"323 292 OFFCURVE",
"330 247 OFFCURVE",
"330 199 CURVE SMOOTH",
"330 151 OFFCURVE",
"323 105 OFFCURVE",
"252 105 CURVE SMOOTH"
);
}
);
width = 523;
}
);
leftKerningGroup = d;
rightKerningGroup = d;
unicode = 0064;
},
{
glyphname = eth;
lastChange = "2019-01-09 07:54:44 +0000";
layers = (
{
guideLines = (
{
position = "{229, -10}";
}
);
layerId = "D86F237C-A043-4FD6-9305-0CC5F899F330";
paths = (
{
closed = 1;
nodes = (
"532 -10 OFFCURVE",
"468 486 OFFCURVE",
"195 583 CURVE",
"187 560 LINE",
"306 517 OFFCURVE",
"397 359 OFFCURVE",
"410 223 CURVE",
"410 223 OFFCURVE",
"410 223 OFFCURVE",
"409 223 CURVE SMOOTH",
"409 223 OFFCURVE",
"359 386 OFFCURVE",
"215 386 CURVE",
"-31 386 OFFCURVE",
"-14 -10 OFFCURVE",
"244 -10 CURVE"
);
},
{
closed = 1;
nodes = (
"363 -61 OFFCURVE",
"70 -20 OFFCURVE",
"65 195 CURVE SMOOTH",
"59 434 OFFCURVE",
"400 405 OFFCURVE",
"403 155 CURVE"
);
},
{
closed = 1;
nodes = (
"413 528 LINE",
"401 550 LINE",
"231 447 LINE",
"243 426 LINE"
);
}
);
width = 472;
},
{
layerId = "F5474A38-5AEA-454E-84E5-A62166EBBEA7";
paths = (
{
closed = 1;
nodes = (
"584 -10 OFFCURVE",
"571 468 OFFCURVE",
"261 630 CURVE",
"154 513 LINE",
"154 513 OFFCURVE",
"347 414 OFFCURVE",
"378 303 CURVE",
"378 303 OFFCURVE",
"377 303 OFFCURVE",
"376 303 CURVE",
"376 303 OFFCURVE",
"332 394 OFFCURVE",
"213 394 CURVE",
"-23 394 OFFCURVE",
"-32 -10 OFFCURVE",
"258 -10 CURVE"
);
},
{
closed = 1;
nodes = (
"364 77 OFFCURVE",
"190 79 OFFCURVE",
"174 192 CURVE",
"154 329 OFFCURVE",
"384 324 OFFCURVE",
"384 181 CURVE"
);
},
{
closed = 1;
nodes = (
"449 567 LINE",
"399 604 LINE",
"153 455 LINE",
"203 418 LINE"
);
}
);
width = 538;
}
);
leftKerningGroup = d;
rightKerningGroup = d;
unicode = 00F0;
},
{
glyphname = dcaron;
lastChange = "2019-01-09 10:25:30 +0000";
layers = (
{
components = (
{
name = d;
}
);
guideLines = (
{
angle = 90;
position = "{444, 441}";
},
{
angle = 90;
position = "{401, 441}";
}
);
layerId = "D86F237C-A043-4FD6-9305-0CC5F899F330";
paths = (
{
closed = 1;
nodes = (
"460 441 LINE",
"511 575 LINE",
"481 575 LINE",
"444 441 LINE"
);
}
);
width = 487;
},
{
components = (
{
name = d;
}
);
guideLines = (
{
angle = 90;
position = "{512, 204}";
},
{
angle = 90;
position = "{460, 204}";
}
);
layerId = "F5474A38-5AEA-454E-84E5-A62166EBBEA7";
paths = (
{
closed = 1;
nodes = (
"593 389 LINE",
"669 563 LINE",
"539 563 LINE",
"512 389 LINE"
);
}
);
width = 649;
}
);
unicode = 010F;
},
{
glyphname = dcroat;
lastChange = "2019-04-30 15:50:57 +0000";
layers = (
{
guideLines = (
{
angle = 90;
position = "{455, 625}";
},
{
angle = 90;
position = "{401, 625}";
}
);
layerId = "D86F237C-A043-4FD6-9305-0CC5F899F330";
paths = (
{
closed = 1;
nodes = (
"345 -10 OFFCURVE",
"387 87 OFFCURVE",
"395 107 CURVE",
"397 107 LINE",
"402 0 LINE",
"424 0 LINE",
"424 563 LINE",
"397 563 LINE",
"396 288 LINE",
"394 288 LINE",
"387 309 OFFCURVE",
"349 404 OFFCURVE",
"236 404 CURVE SMOOTH",
"122 404 OFFCURVE",
"50 312 OFFCURVE",
"50 198 CURVE SMOOTH",
"50 84 OFFCURVE",
"120 -10 OFFCURVE",
"235 -10 CURVE SMOOTH"
);
},
{
closed = 1;
nodes = (
"126 18 OFFCURVE",
"77 107 OFFCURVE",
"77 198 CURVE SMOOTH",
"77 289 OFFCURVE",
"134 376 OFFCURVE",
"240 376 CURVE SMOOTH",
"322 376 OFFCURVE",
"394 312 OFFCURVE",
"394 198 CURVE SMOOTH",
"394 81 OFFCURVE",
"316 18 OFFCURVE",
"232 18 CURVE SMOOTH"
);
},
{
closed = 1;
nodes = (
"455 475 LINE",
"455 500 LINE",
"239 500 LINE",
"239 475 LINE"
);
}
);
width = 473;
},
{
guideLines = (
{
angle = 90;
position = "{506, 625}";
},
{
angle = 90;
position = "{456, 625}";
}
);
layerId = "F5474A38-5AEA-454E-84E5-A62166EBBEA7";
paths = (
{
closed = 1;
nodes = (
"290 -10 OFFCURVE",
"323 56 OFFCURVE",
"323 56 CURVE",
"325 56 LINE",
"347 0 LINE",
"469 0 LINE",
"469 563 LINE",
"325 563 LINE",
"325 338 LINE",
"323 338 LINE SMOOTH",
"323 338 OFFCURVE",
"296 414 OFFCURVE",
"195 414 CURVE SMOOTH",
"72 414 OFFCURVE",
"33 335 OFFCURVE",
"33 198 CURVE SMOOTH",
"33 69 OFFCURVE",
"70 -10 OFFCURVE",
"195 -10 CURVE SMOOTH"
);
},
{
closed = 1;
nodes = (
"176 105 OFFCURVE",
"169 151 OFFCURVE",
"169 199 CURVE SMOOTH",
"169 247 OFFCURVE",
"176 292 OFFCURVE",
"247 292 CURVE SMOOTH",
"318 292 OFFCURVE",
"325 247 OFFCURVE",
"325 199 CURVE SMOOTH",
"325 151 OFFCURVE",
"318 105 OFFCURVE",
"247 105 CURVE SMOOTH"
);
},
{
closed = 1;
nodes = (
"506 446 LINE",
"506 526 LINE",
"191 526 LINE",
"191 446 LINE"
);
}
);
width = 521;
}
);
unicode = 0111;
},
{
glyphname = e;
lastChange = "2019-05-21 02:49:47 +0000";
layers = (
{
layerId = "D86F237C-A043-4FD6-9305-0CC5F899F330";
paths = (
{
closed = 1;
nodes = (
"305 -10 OFFCURVE",
"376 44 OFFCURVE",
"393 125 CURVE",
"366 125 LINE",
"352 57 OFFCURVE",
"292 15 OFFCURVE",
"217 15 CURVE SMOOTH",
"114 15 OFFCURVE",
"57 89 OFFCURVE",
"57 201 CURVE",
"394 201 LINE",
"394 209 OFFCURVE",
"394 218 OFFCURVE",
"393 226 CURVE",
"384 333 OFFCURVE",
"314 404 OFFCURVE",
"217 404 CURVE SMOOTH",
"94 404 OFFCURVE",
"32 304 OFFCURVE",
"30 202 CURVE SMOOTH",
"28 97 OFFCURVE",
"91 -10 OFFCURVE",
"217 -10 CURVE SMOOTH"
);
},
{
closed = 1;
nodes = (
"71 315 OFFCURVE",
"127 379 OFFCURVE",
"217 379 CURVE SMOOTH",
"319 379 OFFCURVE",
"364 288 OFFCURVE",
"366 226 CURVE",
"60 226 LINE"
);
}
);
width = 439;
},
{
layerId = "F5474A38-5AEA-454E-84E5-A62166EBBEA7";
paths = (
{
closed = 1;
nodes = (
"362 -10 OFFCURVE",
"428 64 OFFCURVE",
"434 153 CURVE",
"299 153 LINE",
"295 125 OFFCURVE",
"270 105 OFFCURVE",
"232 105 CURVE SMOOTH",
"186 105 OFFCURVE",
"155 130 OFFCURVE",
"155 189 CURVE",
"435 189 LINE",
"435 196 OFFCURVE",
"435 215 OFFCURVE",
"435 215 CURVE SMOOTH",
"435 340 OFFCURVE",
"348 417 OFFCURVE",
"230 417 CURVE SMOOTH",
"106 417 OFFCURVE",
"19 333 OFFCURVE",
"23 197 CURVE SMOOTH",
"26 92 OFFCURVE",
"85 -10 OFFCURVE",
"235 -10 CURVE SMOOTH"
);
},
{
closed = 1;
nodes = (
"157 245 OFFCURVE",
"154 305 OFFCURVE",
"227 305 CURVE SMOOTH",
"299 305 OFFCURVE",
"295 245 OFFCURVE",
"295 245 CURVE",
"157 245 LINE"
);
}
);
width = 474;
}
);
leftKerningGroup = o;
rightKerningGroup = o;
unicode = 0065;
},
{
glyphname = f;
lastChange = "2019-04-28 02:51:49 +0000";
layers = (
{
guideLines = (
{
angle = 90;
position = "{237, 475}";
}
);
layerId = "D86F237C-A043-4FD6-9305-0CC5F899F330";
paths = (
{
closed = 1;
nodes = (
"108 -4 LINE",
"108 538 LINE",
"247 538 LINE",
"247 563 LINE",
"114 563 LINE",
"80 563 OFFCURVE",
"80 536 OFFCURVE",
"80 516 CURVE SMOOTH",
"80 -4 LINE"
);
},
{
closed = 1;
nodes = (
"237 379 LINE",
"237 404 LINE",
"10 404 LINE",
"10 379 LINE"
);
}
);
width = 247;
},
{
guideLines = (
{
angle = 90;
position = "{295, 201}";
},
{
position = "{117, 447}";
}
);
layerId = "F5474A38-5AEA-454E-84E5-A62166EBBEA7";
paths = (
{
closed = 1;
nodes = (
"208 0 LINE",
"208 482 LINE",
"295 482 LINE",
"295 589 LINE",
"199 589 LINE SMOOTH",
"119 589 OFFCURVE",
"69 558 OFFCURVE",
"69 459 CURVE SMOOTH",
"69 0 LINE"
);
},
{
closed = 1;
nodes = (
"295 319 LINE",
"295 414 LINE",
"20 414 LINE",
"20 319 LINE"
);
}
);
width = 309;
}
);
leftKerningGroup = f;
rightKerningGroup = f;
unicode = 0066;
},
{
glyphname = g;
lastChange = "2019-04-30 14:33:08 +0000";
layers = (
{
guideLines = (
{
angle = 90;
position = "{351, -271}";
},
{
position = "{-35, -199}";
},
{
position = "{-35, -174}";
},
{
position = "{386, -152}";
},
{
position = "{97, 198}";
}
);
layerId = "D86F237C-A043-4FD6-9305-0CC5F899F330";
paths = (
{
closed = 1;
nodes = (
"344 -152 LINE",
"378 -152 OFFCURVE",
"378 -125 OFFCURVE",
"378 -105 CURVE SMOOTH",
"378 404 LINE",
"351 404 LINE",
"350 288 LINE",
"348 288 LINE",
"341 309 OFFCURVE",
"303 404 OFFCURVE",
"190 404 CURVE SMOOTH",
"76 404 OFFCURVE",
"4 312 OFFCURVE",
"4 198 CURVE SMOOTH",
"4 84 OFFCURVE",
"74 -10 OFFCURVE",
"189 -10 CURVE SMOOTH",
"299 -10 OFFCURVE",
"341 87 OFFCURVE",
"349 107 CURVE",
"351 107 LINE",
"351 -127 LINE",
"125 -127 LINE",
"125 -152 LINE"
);
},
{
closed = 1;
nodes = (
"80 18 OFFCURVE",
"31 107 OFFCURVE",
"31 198 CURVE SMOOTH",
"31 289 OFFCURVE",
"88 376 OFFCURVE",
"194 376 CURVE SMOOTH",
"276 376 OFFCURVE",
"348 312 OFFCURVE",
"348 198 CURVE SMOOTH",
"348 81 OFFCURVE",
"270 18 OFFCURVE",
"186 18 CURVE SMOOTH"
);
}
);
width = 433;
},
{
guideLines = (
{
position = "{189, 199}";
},
{
angle = 90;
position = "{322, -81}";
},
{
angle = 90;
position = "{238, 132}";
},
{
angle = 90;
position = "{295, 132}";
},
{
angle = 90;
position = "{165, -43}";
},
{
angle = 90;
position = "{238, 132}";
}
);
layerId = "F5474A38-5AEA-454E-84E5-A62166EBBEA7";
paths = (
{
closed = 1;
nodes = (
"284 -199 LINE SMOOTH",
"404 -199 OFFCURVE",
"466 -154 OFFCURVE",
"466 0 CURVE",
"466 414 LINE",
"322 414 LINE",
"322 338 LINE",
"320 338 LINE SMOOTH",
"320 338 OFFCURVE",
"296 414 OFFCURVE",
"195 414 CURVE SMOOTH",
"72 414 OFFCURVE",
"31 336 OFFCURVE",
"31 199 CURVE SMOOTH",
"31 70 OFFCURVE",
"70 -10 OFFCURVE",
"195 -10 CURVE SMOOTH",
"290 -10 OFFCURVE",
"320 56 OFFCURVE",
"320 56 CURVE",
"322 56 LINE",
"322 -67 LINE",
"165 -67 LINE",
"165 -199 LINE"
);
},
{
closed = 1;
nodes = (
"173 105 OFFCURVE",
"166 151 OFFCURVE",
"166 199 CURVE SMOOTH",
"166 247 OFFCURVE",
"173 292 OFFCURVE",
"244 292 CURVE SMOOTH",
"315 292 OFFCURVE",
"322 247 OFFCURVE",
"322 199 CURVE SMOOTH",
"322 151 OFFCURVE",
"315 105 OFFCURVE",
"244 105 CURVE SMOOTH"
);
}
);
width = 496;
}
);
leftKerningGroup = g.ss01;
rightKerningGroup = g.ss01;
unicode = 0067;
},
{
glyphname = gbreve;
lastChange = "2019-04-30 14:02:07 +0000";
layers = (
{
components = (
{
name = brevecomb;
transform = "{1, 0, 0, 1, 41, -208}";
}
);
layerId = "D86F237C-A043-4FD6-9305-0CC5F899F330";
paths = (
{
closed = 1;
nodes = (
"344 -152 LINE",
"378 -152 OFFCURVE",
"378 -125 OFFCURVE",
"378 -105 CURVE SMOOTH",
"378 404 LINE",
"351 404 LINE",
"350 288 LINE",
"348 288 LINE",
"341 309 OFFCURVE",
"303 404 OFFCURVE",
"190 404 CURVE SMOOTH",
"76 404 OFFCURVE",
"4 312 OFFCURVE",
"4 198 CURVE SMOOTH",
"4 84 OFFCURVE",
"74 -10 OFFCURVE",
"189 -10 CURVE SMOOTH",
"299 -10 OFFCURVE",
"341 87 OFFCURVE",
"349 107 CURVE",
"351 107 LINE",
"351 -127 LINE",
"125 -127 LINE",
"125 -152 LINE"
);
},
{
closed = 1;
nodes = (
"80 15 OFFCURVE",
"31 107 OFFCURVE",
"31 198 CURVE SMOOTH",
"31 289 OFFCURVE",
"88 379 OFFCURVE",
"194 379 CURVE SMOOTH",
"276 379 OFFCURVE",
"348 312 OFFCURVE",
"348 198 CURVE SMOOTH",
"348 81 OFFCURVE",
"270 15 OFFCURVE",
"186 15 CURVE SMOOTH"
);
}
);
width = 433;
},
{
components = (
{
name = brevecomb;
transform = "{1, 0, 0, 1, 59, -240}";
}
);
layerId = "F5474A38-5AEA-454E-84E5-A62166EBBEA7";
paths = (
{
closed = 1;
nodes = (
"284 -199 LINE SMOOTH",
"404 -199 OFFCURVE",
"466 -154 OFFCURVE",
"466 0 CURVE",
"466 414 LINE",
"322 414 LINE",
"322 338 LINE",
"320 338 LINE SMOOTH",
"320 338 OFFCURVE",
"296 414 OFFCURVE",
"195 414 CURVE SMOOTH",
"72 414 OFFCURVE",
"31 336 OFFCURVE",
"31 199 CURVE SMOOTH",
"31 70 OFFCURVE",
"70 -10 OFFCURVE",
"195 -10 CURVE SMOOTH",
"290 -10 OFFCURVE",
"320 56 OFFCURVE",
"320 56 CURVE",
"322 56 LINE",
"322 -67 LINE",
"165 -67 LINE",
"165 -199 LINE"
);
},
{
closed = 1;
nodes = (
"173 105 OFFCURVE",
"166 151 OFFCURVE",
"166 199 CURVE SMOOTH",
"166 247 OFFCURVE",
"173 292 OFFCURVE",
"244 292 CURVE SMOOTH",
"315 292 OFFCURVE",
"322 247 OFFCURVE",
"322 199 CURVE SMOOTH",
"322 151 OFFCURVE",
"315 105 OFFCURVE",
"244 105 CURVE SMOOTH"
);
}
);
width = 476;
}
);
leftKerningGroup = g.ss01;
rightKerningGroup = g.ss01;
unicode = 011F;
},
{
glyphname = gcommaaccent;
lastChange = "2019-04-30 14:02:29 +0000";
layers = (
{
components = (
{
name = acutecomb;
transform = "{1, 0, 0, 1, 153, -175}";
}
);
layerId = "D86F237C-A043-4FD6-9305-0CC5F899F330";
paths = (
{
closed = 1;
nodes = (
"344 -152 LINE",
"378 -152 OFFCURVE",
"378 -125 OFFCURVE",
"378 -105 CURVE SMOOTH",
"378 404 LINE",
"351 404 LINE",
"350 288 LINE",
"348 288 LINE",
"341 309 OFFCURVE",
"303 404 OFFCURVE",
"190 404 CURVE SMOOTH",
"76 404 OFFCURVE",
"4 312 OFFCURVE",
"4 198 CURVE SMOOTH",
"4 84 OFFCURVE",
"74 -10 OFFCURVE",
"189 -10 CURVE SMOOTH",
"299 -10 OFFCURVE",
"341 87 OFFCURVE",
"349 107 CURVE",
"351 107 LINE",
"351 -127 LINE",
"125 -127 LINE",
"125 -152 LINE"
);
},
{
closed = 1;
nodes = (
"80 15 OFFCURVE",
"31 107 OFFCURVE",
"31 198 CURVE SMOOTH",
"31 289 OFFCURVE",
"88 379 OFFCURVE",
"194 379 CURVE SMOOTH",
"276 379 OFFCURVE",
"348 312 OFFCURVE",
"348 198 CURVE SMOOTH",
"348 81 OFFCURVE",
"270 15 OFFCURVE",
"186 15 CURVE SMOOTH"
);
}
);
width = 433;
},
{
components = (
{
name = acutecomb;
transform = "{1, 0, 0, 1, 177, -171}";
}
);
layerId = "F5474A38-5AEA-454E-84E5-A62166EBBEA7";
paths = (
{
closed = 1;
nodes = (
"284 -199 LINE SMOOTH",
"404 -199 OFFCURVE",
"466 -154 OFFCURVE",
"466 0 CURVE",
"466 414 LINE",
"322 414 LINE",
"322 338 LINE",
"320 338 LINE SMOOTH",
"320 338 OFFCURVE",
"296 414 OFFCURVE",
"195 414 CURVE SMOOTH",
"72 414 OFFCURVE",
"31 336 OFFCURVE",
"31 199 CURVE SMOOTH",
"31 70 OFFCURVE",
"70 -10 OFFCURVE",
"195 -10 CURVE SMOOTH",
"290 -10 OFFCURVE",
"320 56 OFFCURVE",
"320 56 CURVE",
"322 56 LINE",
"322 -67 LINE",
"165 -67 LINE",
"165 -199 LINE"
);
},
{
closed = 1;
nodes = (
"173 105 OFFCURVE",
"166 151 OFFCURVE",
"166 199 CURVE SMOOTH",
"166 247 OFFCURVE",
"173 292 OFFCURVE",
"244 292 CURVE SMOOTH",
"315 292 OFFCURVE",
"322 247 OFFCURVE",
"322 199 CURVE SMOOTH",
"322 151 OFFCURVE",
"315 105 OFFCURVE",
"244 105 CURVE SMOOTH"
);
}
);
width = 476;
}
);
leftKerningGroup = g.ss01;
rightKerningGroup = g.ss01;
unicode = 0123;
},
{
glyphname = gdotaccent;
lastChange = "2019-04-30 14:02:14 +0000";
layers = (
{
components = (
{
name = dotaccentcomb;
transform = "{1, 0, 0, 1, 111, -226}";
}
);
layerId = "D86F237C-A043-4FD6-9305-0CC5F899F330";
paths = (
{
closed = 1;
nodes = (
"344 -152 LINE",
"378 -152 OFFCURVE",
"378 -125 OFFCURVE",
"378 -105 CURVE SMOOTH",
"378 404 LINE",
"351 404 LINE",
"350 288 LINE",
"348 288 LINE",
"341 309 OFFCURVE",
"303 404 OFFCURVE",
"190 404 CURVE SMOOTH",
"76 404 OFFCURVE",
"4 312 OFFCURVE",
"4 198 CURVE SMOOTH",
"4 84 OFFCURVE",
"74 -10 OFFCURVE",
"189 -10 CURVE SMOOTH",
"299 -10 OFFCURVE",
"341 87 OFFCURVE",
"349 107 CURVE",
"351 107 LINE",
"351 -127 LINE",
"125 -127 LINE",
"125 -152 LINE"
);
},
{
closed = 1;
nodes = (
"80 15 OFFCURVE",
"31 107 OFFCURVE",
"31 198 CURVE SMOOTH",
"31 289 OFFCURVE",
"88 379 OFFCURVE",
"194 379 CURVE SMOOTH",
"276 379 OFFCURVE",
"348 312 OFFCURVE",
"348 198 CURVE SMOOTH",
"348 81 OFFCURVE",
"270 15 OFFCURVE",
"186 15 CURVE SMOOTH"
);
}
);
width = 433;
},
{
components = (
{
name = dotaccentcomb;
transform = "{1, 0, 0, 1, 129, -214}";
}
);
layerId = "F5474A38-5AEA-454E-84E5-A62166EBBEA7";
paths = (
{
closed = 1;
nodes = (
"284 -199 LINE SMOOTH",
"404 -199 OFFCURVE",
"466 -154 OFFCURVE",
"466 0 CURVE",
"466 414 LINE",
"322 414 LINE",
"322 338 LINE",
"320 338 LINE SMOOTH",
"320 338 OFFCURVE",
"296 414 OFFCURVE",
"195 414 CURVE SMOOTH",
"72 414 OFFCURVE",
"31 336 OFFCURVE",
"31 199 CURVE SMOOTH",
"31 70 OFFCURVE",
"70 -10 OFFCURVE",
"195 -10 CURVE SMOOTH",
"290 -10 OFFCURVE",
"320 56 OFFCURVE",
"320 56 CURVE",
"322 56 LINE",
"322 -67 LINE",
"165 -67 LINE",
"165 -199 LINE"
);
},
{
closed = 1;
nodes = (
"173 105 OFFCURVE",
"166 151 OFFCURVE",
"166 199 CURVE SMOOTH",
"166 247 OFFCURVE",
"173 292 OFFCURVE",
"244 292 CURVE SMOOTH",
"315 292 OFFCURVE",
"322 247 OFFCURVE",
"322 199 CURVE SMOOTH",
"322 151 OFFCURVE",
"315 105 OFFCURVE",
"244 105 CURVE SMOOTH"
);
}
);
width = 476;
}
);
leftKerningGroup = g.ss01;
rightKerningGroup = g.ss01;
unicode = 0121;
},
{
glyphname = h;
lastChange = "2019-04-30 15:44:43 +0000";
layers = (
{
layerId = "D86F237C-A043-4FD6-9305-0CC5F899F330";
paths = (
{
closed = 1;
nodes = (
"66 0 LINE",
"66 190 LINE SMOOTH",
"66 294 OFFCURVE",
"120 378 OFFCURVE",
"224 378 CURVE SMOOTH",
"321 378 OFFCURVE",
"355 312 OFFCURVE",
"355 202 CURVE SMOOTH",
"355 0 LINE",
"381 0 LINE",
"381 202 LINE SMOOTH",
"381 304 OFFCURVE",
"359 404 OFFCURVE",
"222 404 CURVE SMOOTH",
"110 404 OFFCURVE",
"75 311 OFFCURVE",
"68 290 CURVE",
"66 290 LINE",
"66 563 LINE",
"40 563 LINE",
"40 0 LINE"
);
}
);
width = 426;
},
{
guideLines = (
{
angle = 90;
position = "{436, -28}";
},
{
angle = 90;
position = "{309, -28}";
},
{
angle = 90;
position = "{165, -28}";
},
{
angle = 90;
position = "{38, -28}";
},
{
position = "{243, 142}";
}
);
layerId = "F5474A38-5AEA-454E-84E5-A62166EBBEA7";
paths = (
{
closed = 1;
nodes = (
"189 0 LINE",
"189 199 LINE SMOOTH",
"189 242 OFFCURVE",
"190 292 OFFCURVE",
"256 292 CURVE SMOOTH",
"323 292 OFFCURVE",
"325 242 OFFCURVE",
"325 199 CURVE SMOOTH",
"325 0 LINE",
"461 0 LINE",
"461 198 LINE SMOOTH",
"461 254 OFFCURVE",
"461 414 OFFCURVE",
"314 414 CURVE SMOOTH",
"213 414 OFFCURVE",
"191 338 OFFCURVE",
"191 338 CURVE SMOOTH",
"189 338 LINE",
"189 563 LINE",
"45 563 LINE",
"45 0 LINE"
);
}
);
width = 506;
}
);
leftKerningGroup = h;
rightKerningGroup = h;
unicode = 0068;
},
{
glyphname = hbar;
lastChange = "2019-01-08 13:27:28 +0000";
layers = (
{
guideLines = (
{
angle = 90;
position = "{60, 625}";
},
{
angle = 90;
position = "{6, 625}";
}
);
layerId = "D86F237C-A043-4FD6-9305-0CC5F899F330";
paths = (
{
closed = 1;
nodes = (
"401 0 LINE",
"401 202 LINE",
"401 304 OFFCURVE",
"379 404 OFFCURVE",
"242 404 CURVE",
"107 404 OFFCURVE",
"81 270 OFFCURVE",
"86 290 CURVE",
"86 190 LINE",
"86 294 OFFCURVE",
"140 378 OFFCURVE",
"244 378 CURVE",
"341 378 OFFCURVE",
"375 312 OFFCURVE",
"375 202 CURVE",
"375 0 LINE"
);
},
{
closed = 1;
nodes = (
"86 0 LINE",
"86 563 LINE",
"60 563 LINE",
"60 0 LINE"
);
},
{
closed = 1;
nodes = (
"222 500 LINE",
"6 500 LINE",
"6 475 LINE",
"222 475 LINE"
);
}
);
width = 456;
},
{
guideLines = (
{
angle = 90;
position = "{45, 625}";
},
{
angle = 90;
position = "{-5, 625}";
}
);
layerId = "F5474A38-5AEA-454E-84E5-A62166EBBEA7";
paths = (
{
closed = 1;
nodes = (
"445 0 LINE",
"445 146 LINE",
"445 228 OFFCURVE",
"469 417 OFFCURVE",
"305 417 CURVE",
"201 417 OFFCURVE",
"181 273 OFFCURVE",
"185 295 CURVE",
"185 149 LINE",
"185 249 OFFCURVE",
"198 295 OFFCURVE",
"240 295 CURVE",
"318 295 OFFCURVE",
"305 219 OFFCURVE",
"305 131 CURVE",
"305 0 LINE"
);
},
{
closed = 1;
nodes = (
"185 0 LINE",
"185 563 LINE",
"45 563 LINE",
"45 0 LINE"
);
},
{
closed = 1;
nodes = (
"310 526 LINE",
"-5 526 LINE",
"-5 446 LINE",
"310 446 LINE"
);
}
);
width = 491;
}
);
leftKerningGroup = h;
rightKerningGroup = h;
unicode = 0127;
},
{
glyphname = i;
lastChange = "2019-04-30 14:33:55 +0000";
layers = (
{
guideLines = (
{
angle = 90;
position = "{131, 467}";
},
{
angle = 90;
position = "{105, 467}";
}
);
layerId = "D86F237C-A043-4FD6-9305-0CC5F899F330";
paths = (
{
closed = 1;
nodes = (
"86 0 LINE",
"86 404 LINE",
"85 404 OFFCURVE",
"60 404 OFFCURVE",
"60 404 CURVE",
"60 0 LINE"
);
},
{
closed = 1;
nodes = (
"90 446 OFFCURVE",
"94 457 OFFCURVE",
"94 472 CURVE",
"94 485 OFFCURVE",
"90 496 OFFCURVE",
"74 496 CURVE",
"58 496 OFFCURVE",
"54 485 OFFCURVE",
"54 472 CURVE",
"54 457 OFFCURVE",
"58 446 OFFCURVE",
"74 446 CURVE"
);
}
);
width = 146;
},
{
layerId = "F5474A38-5AEA-454E-84E5-A62166EBBEA7";
paths = (
{
closed = 1;
nodes = (
"190 0 LINE",
"190 414 LINE",
"189 414 OFFCURVE",
"52 414 OFFCURVE",
"50 414 CURVE",
"50 0 LINE"
);
},
{
closed = 1;
nodes = (
"174 462 OFFCURVE",
"189 491 OFFCURVE",
"189 531 CURVE SMOOTH",
"189 568 OFFCURVE",
"174 599 OFFCURVE",
"120 599 CURVE SMOOTH",
"64 599 OFFCURVE",
"49 568 OFFCURVE",
"49 531 CURVE SMOOTH",
"49 492 OFFCURVE",
"63 460 OFFCURVE",
"120 461 CURVE SMOOTH"
);
}
);
width = 238;
}
);
leftKerningGroup = i;
rightKerningGroup = i;
unicode = 0069;
},
{
glyphname = idotless;
lastChange = "2019-01-08 13:27:48 +0000";
layers = (
{
layerId = "D86F237C-A043-4FD6-9305-0CC5F899F330";
paths = (
{
closed = 1;
nodes = (
"81 0 LINE",
"81 404 LINE",
"70 404 OFFCURVE",
"72 404 OFFCURVE",
"55 404 CURVE",
"55 0 LINE"
);
}
);
width = 138;
},
{
layerId = "F5474A38-5AEA-454E-84E5-A62166EBBEA7";
paths = (
{
closed = 1;
nodes = (
"185 0 LINE",
"185 417 LINE",
"184 417 OFFCURVE",
"46 417 OFFCURVE",
"45 417 CURVE",
"45 0 LINE"
);
}
);
width = 230;
}
);
leftKerningGroup = i;
rightKerningGroup = i;
unicode = 0131;
},
{
glyphname = iacute;
lastChange = "2019-04-30 13:59:00 +0000";
layers = (
{
components = (
{
name = acutecomb;
transform = "{1, 0, 0, 1, 12, -176}";
}
);
guideLines = (
{
angle = 90;
position = "{58, -60}";
},
{
angle = 90;
position = "{58, -60}";
},
{
angle = 90;
position = "{45, 443}";
}
);
layerId = "D86F237C-A043-4FD6-9305-0CC5F899F330";
paths = (
{
closed = 1;
nodes = (
"71 0 LINE",
"71 404 LINE",
"70 404 OFFCURVE",
"45 404 OFFCURVE",
"45 404 CURVE",
"45 0 LINE"
);
}
);
width = 131;
},
{
components = (
{
name = acutecomb;
transform = "{1, 0, 0, 1, 44, -171}";
}
);
guideLines = (
{
angle = 90;
position = "{159, 370}";
},
{
angle = 90;
position = "{41, 370}";
},
{
angle = 90;
position = "{73, 370}";
},
{
position = "{295, 470}";
},
{
position = "{295, 417}";
},
{
angle = 90;
position = "{110, 370}";
}
);
layerId = "F5474A38-5AEA-454E-84E5-A62166EBBEA7";
paths = (
{
closed = 1;
nodes = (
"180 0 LINE",
"180 417 LINE",
"179 417 OFFCURVE",
"41 417 OFFCURVE",
"40 417 CURVE",
"40 0 LINE"
);
}
);
width = 238;
}
);
leftKerningGroup = i;
rightKerningGroup = i;
unicode = 00ED;
},
{
glyphname = icircumflex;
lastChange = "2019-01-09 03:17:28 +0000";
layers = (
{
components = (
{
name = circumflexcomb;
transform = "{1, 0, 0, 1, -120, -171}";
}
);
guideLines = (
{
angle = 90;
position = "{73, -60}";
}
);
layerId = "D86F237C-A043-4FD6-9305-0CC5F899F330";
paths = (
{
closed = 1;
nodes = (
"86 0 LINE",
"86 404 LINE",
"85 404 OFFCURVE",
"60 404 OFFCURVE",
"60 404 CURVE",
"60 0 LINE"
);
}
);
width = 160;
},
{
components = (
{
name = circumflexcomb;
transform = "{1, 0, 0, 1, -95, -234}";
}
);
guideLines = (
{
angle = 90;
position = "{150, 370}";
}
);
layerId = "F5474A38-5AEA-454E-84E5-A62166EBBEA7";
paths = (
{
closed = 1;
nodes = (
"220 0 LINE",
"220 417 LINE",
"219 417 OFFCURVE",
"81 417 OFFCURVE",
"80 417 CURVE",
"80 0 LINE"
);
}
);
width = 289;
}
);
leftKerningGroup = i;
rightKerningGroup = i;
unicode = 00EE;
},
{
glyphname = idieresis;
lastChange = "2019-01-09 03:17:32 +0000";
layers = (
{
components = (
{
name = dieresiscomb;
transform = "{1, 0, 0, 1, -60, -237}";
}
);
guideLines = (
{
angle = 90;
position = "{84, -60}";
}
);
layerId = "D86F237C-A043-4FD6-9305-0CC5F899F330";
paths = (
{
closed = 1;
nodes = (
"98 0 LINE",
"98 404 LINE",
"97 404 OFFCURVE",
"72 404 OFFCURVE",
"72 404 CURVE",
"72 0 LINE"
);
}
);
width = 189;
},
{
components = (
{
name = dieresiscomb;
transform = "{1, 0, 0, 1, -70, -204}";
}
);
guideLines = (
{
angle = 90;
position = "{153, 370}";
}
);
layerId = "F5474A38-5AEA-454E-84E5-A62166EBBEA7";
paths = (
{
closed = 1;
nodes = (
"223 0 LINE",
"223 417 LINE",
"222 417 OFFCURVE",
"84 417 OFFCURVE",
"83 417 CURVE",
"83 0 LINE"
);
}
);
width = 296;
}
);
leftKerningGroup = i;
rightKerningGroup = i;
unicode = 00EF;
},
{
glyphname = igrave;
lastChange = "2019-04-30 14:29:26 +0000";
layers = (
{
components = (
{
name = gravecomb;
transform = "{1, 0, 0, 1, -50, -180}";
}
);
guideLines = (
{
angle = 90;
position = "{70, -60}";
},
{
angle = 90;
position = "{83, 443}";
}
);
layerId = "D86F237C-A043-4FD6-9305-0CC5F899F330";
paths = (
{
closed = 1;
nodes = (
"83 0 LINE",
"83 404 LINE",
"82 404 OFFCURVE",
"57 404 OFFCURVE",
"57 404 CURVE",
"57 0 LINE"
);
}
);
width = 140;
},
{
components = (
{
name = gravecomb;
transform = "{1, 0, 0, 1, -27, -171}";
}
);
guideLines = (
{
angle = 90;
position = "{170, 370}";
},
{
angle = 90;
position = "{191, 370}";
},
{
angle = 90;
position = "{121, 370}";
},
{
position = "{232, 470}";
},
{
position = "{232, 417}";
},
{
angle = 90;
position = "{160, 370}";
},
{
angle = 90;
position = "{73, 370}";
}
);
layerId = "F5474A38-5AEA-454E-84E5-A62166EBBEA7";
paths = (
{
closed = 1;
nodes = (
"191 0 LINE",
"191 414 LINE",
"190 414 OFFCURVE",
"52 414 OFFCURVE",
"51 414 CURVE",
"51 0 LINE"
);
}
);
width = 241;
}
);
leftKerningGroup = i;
rightKerningGroup = i;
unicode = 00EC;
},
{
glyphname = ihookabove;
lastChange = "2019-01-09 03:17:20 +0000";
layers = (
{
components = (
{
name = hookabovecomb;
transform = "{1, 0, 0, 1, 17, -171}";
}
);
layerId = "D86F237C-A043-4FD6-9305-0CC5F899F330";
paths = (
{
closed = 1;
nodes = (
"112 0 LINE",
"112 404 LINE",
"111 404 OFFCURVE",
"86 404 OFFCURVE",
"86 404 CURVE",
"86 0 LINE"
);
}
);
width = 221;
},
{
components = (
{
name = hookabovecomb;
transform = "{1, 0, 0, 1, -20, -122}";
}
);
layerId = "F5474A38-5AEA-454E-84E5-A62166EBBEA7";
paths = (
{
closed = 1;
nodes = (
"194 0 LINE",
"194 414 LINE",
"193 414 OFFCURVE",
"55 414 OFFCURVE",
"54 414 CURVE",
"54 0 LINE"
);
}
);
width = 257;
}
);
leftKerningGroup = i;
rightKerningGroup = i;
unicode = 1EC9;
},
{
glyphname = imacron;
lastChange = "2019-01-09 03:16:48 +0000";
layers = (
{
components = (
{
name = macron;
transform = "{0.7, 0, 0, 1, -53, -274}";
}
);
layerId = "D86F237C-A043-4FD6-9305-0CC5F899F330";
paths = (
{
closed = 1;
nodes = (
"66 0 LINE",
"66 404 LINE",
"65 404 OFFCURVE",
"40 404 OFFCURVE",
"40 404 CURVE",
"40 0 LINE"
);
}
);
width = 135;
},
{
components = (
{
name = macron;
transform = "{1, 0, 0, 1, -75, -246}";
}
);
guideLines = (
{
angle = 90;
position = "{116, 370}";
}
);
layerId = "F5474A38-5AEA-454E-84E5-A62166EBBEA7";
paths = (
{
closed = 1;
nodes = (
"186 0 LINE",
"186 417 LINE",
"185 417 OFFCURVE",
"47 417 OFFCURVE",
"46 417 CURVE",
"46 0 LINE"
);
}
);
width = 260;
}
);
leftKerningGroup = i;
rightKerningGroup = i;
unicode = 012B;
},
{
glyphname = iogonek;
lastChange = "2019-01-08 13:28:16 +0000";
layers = (
{
layerId = "D86F237C-A043-4FD6-9305-0CC5F899F330";
paths = (
{
closed = 1;
nodes = (
"81 0 LINE",
"81 404 LINE",
"81 404 OFFCURVE",
"78 403 OFFCURVE",
"68 403 CURVE",
"58 403 OFFCURVE",
"55 404 OFFCURVE",
"55 404 CURVE",
"55 0 LINE"
);
},
{
closed = 1;
nodes = (
"85 464 OFFCURVE",
"89 475 OFFCURVE",
"89 490 CURVE",
"89 503 OFFCURVE",
"85 514 OFFCURVE",
"69 514 CURVE",
"53 514 OFFCURVE",
"49 503 OFFCURVE",
"49 490 CURVE",
"49 475 OFFCURVE",
"53 464 OFFCURVE",
"69 464 CURVE"
);
},
{
closed = 1;
nodes = (
"81 -198 OFFCURVE",
"103 -155 OFFCURVE",
"103 -155 CURVE",
"81 -140 LINE",
"81 -140 OFFCURVE",
"72 -174 OFFCURVE",
"31 -174 CURVE",
"-3 -174 OFFCURVE",
"-21 -152 OFFCURVE",
"-21 -123 CURVE",
"-21 -49 OFFCURVE",
"81 0 OFFCURVE",
"81 0 CURVE",
"76 13 LINE",
"76 13 OFFCURVE",
"-45 -37 OFFCURVE",
"-45 -123 CURVE",
"-45 -165 OFFCURVE",
"-18 -198 OFFCURVE",
"31 -198 CURVE"
);
}
);
width = 160;
},
{
layerId = "F5474A38-5AEA-454E-84E5-A62166EBBEA7";
paths = (
{
closed = 1;
nodes = (
"190 0 LINE",
"190 417 LINE",
"190 417 OFFCURVE",
"165 403 OFFCURVE",
"119 403 CURVE SMOOTH",
"73 403 OFFCURVE",
"50 417 OFFCURVE",
"50 417 CURVE",
"50 0 LINE"
);
},
{
closed = 1;
nodes = (
"177 430 OFFCURVE",
"193 462 OFFCURVE",
"193 504 CURVE SMOOTH",
"193 543 OFFCURVE",
"177 575 OFFCURVE",
"120 575 CURVE SMOOTH",
"61 575 OFFCURVE",
"45 543 OFFCURVE",
"45 504 CURVE SMOOTH",
"45 463 OFFCURVE",
"60 430 OFFCURVE",
"120 430 CURVE SMOOTH"
);
},
{
closed = 1;
nodes = (
"217 -180 OFFCURVE",
"256 -120 OFFCURVE",
"256 -120 CURVE",
"185 -56 LINE",
"185 -56 OFFCURVE",
"168 -82 OFFCURVE",
"145 -82 CURVE",
"130 -82 OFFCURVE",
"120 -74 OFFCURVE",
"120 -60 CURVE SMOOTH",
"120 -21 OFFCURVE",
"190 0 OFFCURVE",
"190 0 CURVE",
"190 62 LINE",
"190 62 OFFCURVE",
"20 20 OFFCURVE",
"20 -85 CURVE",
"20 -157 OFFCURVE",
"83 -180 OFFCURVE",
"132 -180 CURVE"
);
}
);
width = 266;
}
);
leftKerningGroup = i;
rightKerningGroup = i;
unicode = 012F;
},
{
glyphname = itilde;
lastChange = "2019-01-08 12:59:00 +0000";
layers = (
{
components = (
{
name = tildecomb;
transform = "{1, 0, 0, 1, -95, -109}";
}
);
layerId = "D86F237C-A043-4FD6-9305-0CC5F899F330";
paths = (
{
closed = 1;
nodes = (
"92 0 LINE",
"92 404 LINE",
"81 404 OFFCURVE",
"83 404 OFFCURVE",
"66 404 CURVE",
"66 0 LINE"
);
}
);
width = 169;
},
{
components = (
{
name = tildecomb;
transform = "{1, 0, 0, 1, -73, -186}";
}
);
guideLines = (
{
angle = 90;
position = "{173, 370}";
},
{
angle = 90;
position = "{75, 370}";
},
{
angle = 90;
position = "{124, 370}";
}
);
layerId = "F5474A38-5AEA-454E-84E5-A62166EBBEA7";
paths = (
{
closed = 1;
nodes = (
"194 0 LINE",
"194 417 LINE",
"193 417 OFFCURVE",
"55 417 OFFCURVE",
"54 417 CURVE",
"54 0 LINE"
);
}
);
width = 256;
}
);
leftKerningGroup = i;
rightKerningGroup = i;
unicode = 0129;
},
{
glyphname = j;
lastChange = "2019-05-01 01:19:13 +0000";
layers = (
{
guideLines = (
{
position = "{238, -128}";
},
{
angle = 90;
position = "{99, 455}";
},
{
angle = 90;
position = "{72, 455}";
},
{
position = "{386, -152}";
}
);
layerId = "D86F237C-A043-4FD6-9305-0CC5F899F330";
paths = (
{
closed = 1;
nodes = (
"102 466 OFFCURVE",
"106 477 OFFCURVE",
"106 492 CURVE SMOOTH",
"106 505 OFFCURVE",
"102 516 OFFCURVE",
"86 516 CURVE SMOOTH",
"70 516 OFFCURVE",
"66 505 OFFCURVE",
"66 492 CURVE SMOOTH",
"66 477 OFFCURVE",
"70 466 OFFCURVE",
"86 466 CURVE SMOOTH"
);
},
{
closed = 1;
nodes = (
"72 -127 LINE",
"1 -127 LINE",
"1 -152 LINE",
"65 -152 LINE SMOOTH",
"99 -152 OFFCURVE",
"99 -125 OFFCURVE",
"99 -105 CURVE SMOOTH",
"99 404 LINE",
"72 404 LINE"
);
}
);
width = 151;
},
{
guideLines = (
{
angle = 90;
position = "{-18, 51}";
}
);
layerId = "F5474A38-5AEA-454E-84E5-A62166EBBEA7";
paths = (
{
closed = 1;
nodes = (
"213 430 OFFCURVE",
"228 462 OFFCURVE",
"228 503 CURVE SMOOTH",
"228 543 OFFCURVE",
"213 575 OFFCURVE",
"156 575 CURVE SMOOTH",
"96 575 OFFCURVE",
"81 543 OFFCURVE",
"81 503 CURVE SMOOTH",
"81 462 OFFCURVE",
"96 430 OFFCURVE",
"156 430 CURVE SMOOTH"
);
},
{
closed = 1;
nodes = (
"84 -92 LINE",
"17 -92 LINE",
"17 -199 LINE",
"94 -199 LINE SMOOTH",
"174 -199 OFFCURVE",
"224 -168 OFFCURVE",
"224 -69 CURVE SMOOTH",
"224 414 LINE",
"84 414 LINE"
);
}
);
width = 279;
}
);
unicode = 006A;
},
{
glyphname = k;
lastChange = "2019-04-30 14:27:05 +0000";
layers = (
{
layerId = "D86F237C-A043-4FD6-9305-0CC5F899F330";
paths = (
{
closed = 1;
nodes = (
"82 563 LINE",
"55 563 LINE",
"55 -1 LINE",
"82 -1 LINE"
);
},
{
closed = 1;
nodes = (
"178 211 LINE",
"358 -2 LINE",
"394 -2 LINE",
"197 229 LINE"
);
},
{
closed = 1;
nodes = (
"390 404 LINE",
"351 404 LINE",
"75 143 LINE",
"75 106 LINE"
);
}
);
width = 409;
},
{
guideLines = (
{
angle = 90;
position = "{488, 151}";
}
);
layerId = "F5474A38-5AEA-454E-84E5-A62166EBBEA7";
paths = (
{
closed = 1;
nodes = (
"175 563 LINE",
"35 563 LINE",
"35 0 LINE",
"175 0 LINE"
);
},
{
closed = 1;
nodes = (
"164 214 LINE",
"309 1 LINE",
"474 1 LINE",
"266 312 LINE"
);
},
{
closed = 1;
nodes = (
"471 417 LINE",
"303 417 LINE",
"173 249 LINE",
"173 96 LINE"
);
}
);
width = 468;
}
);
leftKerningGroup = k;
rightKerningGroup = k;
unicode = 006B;
},
{
glyphname = kcommaaccent;
lastChange = "2019-01-08 13:28:23 +0000";
layers = (
{
components = (
{
name = commaaccentcomb;
transform = "{1, 0, 0, 1, 107, 29}";
}
);
layerId = "D86F237C-A043-4FD6-9305-0CC5F899F330";
paths = (
{
closed = 1;
nodes = (
"82 563 LINE",
"55 563 LINE",
"55 -1 LINE",
"82 -1 LINE"
);
},
{
closed = 1;
nodes = (
"178 211 LINE",
"358 -2 LINE",
"394 -2 LINE",
"197 229 LINE"
);
},
{
closed = 1;
nodes = (
"390 404 LINE",
"351 404 LINE",
"75 143 LINE",
"75 106 LINE"
);
}
);
width = 419;
},
{
components = (
{
name = commaaccentcomb;
transform = "{1, 0, 0, 1, 119, 0}";
}
);
layerId = "F5474A38-5AEA-454E-84E5-A62166EBBEA7";
paths = (
{
closed = 1;
nodes = (
"190 563 LINE",
"50 563 LINE",
"50 0 LINE",
"190 0 LINE"
);
},
{
closed = 1;
nodes = (
"179 214 LINE",
"324 1 LINE",
"489 1 LINE",
"281 312 LINE"
);
},
{
closed = 1;
nodes = (
"486 417 LINE",
"318 417 LINE",
"188 249 LINE",
"188 96 LINE"
);
}
);
width = 483;
}
);
leftKerningGroup = k;
rightKerningGroup = k;
unicode = 0137;
},
{
glyphname = l;
lastChange = "2019-04-28 01:43:41 +0000";
layers = (
{
guideLines = (
{
position = "{194, -9}";
}
);
layerId = "D86F237C-A043-4FD6-9305-0CC5F899F330";
paths = (
{
closed = 1;
nodes = (
"82 0 LINE",
"82 563 LINE",
"55 563 LINE",
"55 0 LINE"
);
}
);
width = 137;
},
{
layerId = "F5474A38-5AEA-454E-84E5-A62166EBBEA7";
paths = (
{
closed = 1;
nodes = (
"181 0 LINE",
"181 563 LINE",
"45 563 LINE",
"45 0 LINE"
);
}
);
width = 226;
}
);
leftKerningGroup = l;
rightKerningGroup = l;
unicode = 006C;
},
{
glyphname = lcaron;
lastChange = "2019-01-09 10:26:05 +0000";
layers = (
{
components = (
{
alignment = -1;
name = l;
}
);
guideLines = (
{
angle = 90;
position = "{124, 441}";
},
{
angle = 90;
position = "{81, 441}";
}
);
layerId = "D86F237C-A043-4FD6-9305-0CC5F899F330";
paths = (
{
closed = 1;
nodes = (
"140 441 LINE",
"191 575 LINE",
"161 575 LINE",
"124 441 LINE"
);
}
);
width = 201;
},
{
components = (
{
alignment = -1;
name = l;
}
);
guideLines = (
{
angle = 90;
position = "{233, 217}";
},
{
angle = 90;
position = "{181, 217}";
}
);
layerId = "F5474A38-5AEA-454E-84E5-A62166EBBEA7";
paths = (
{
closed = 1;
nodes = (
"314 389 LINE",
"390 563 LINE",
"260 563 LINE",
"233 389 LINE"
);
}
);
width = 315;
}
);
leftKerningGroup = l;
rightKerningGroup = l;
unicode = 013E;
},
{
glyphname = lslash;
lastChange = "2019-01-09 03:24:57 +0000";
layers = (
{
components = (
{
name = l;
}
);
layerId = "D86F237C-A043-4FD6-9305-0CC5F899F330";
paths = (
{
closed = 1;
nodes = (
"156 374 LINE",
"156 404 LINE",
"-6 270 LINE",
"-6 240 LINE"
);
}
);
width = 192;
},
{
components = (
{
name = l;
}
);
layerId = "F5474A38-5AEA-454E-84E5-A62166EBBEA7";
paths = (
{
closed = 1;
nodes = (
"253 294 LINE",
"253 414 LINE",
"-9 280 LINE",
"-9 160 LINE"
);
}
);
width = 285;
}
);
leftKerningGroup = l;
rightKerningGroup = l;
unicode = 0142;
},
{
glyphname = m;
lastChange = "2019-04-30 14:27:21 +0000";
layers = (
{
layerId = "D86F237C-A043-4FD6-9305-0CC5F899F330";
paths = (
{
closed = 1;
nodes = (
"66 0 LINE",
"66 190 LINE SMOOTH",
"66 293 OFFCURVE",
"112 378 OFFCURVE",
"203 378 CURVE SMOOTH",
"315 378 OFFCURVE",
"315 249 OFFCURVE",
"315 202 CURVE SMOOTH",
"315 0 LINE",
"341 0 LINE",
"341 202 LINE SMOOTH",
"341 256 OFFCURVE",
"341 404 OFFCURVE",
"207 404 CURVE SMOOTH",
"104 404 OFFCURVE",
"77 318 OFFCURVE",
"68 290 CURVE",
"66 290 LINE",
"61 404 LINE",
"40 404 LINE",
"40 0 LINE"
);
},
{
closed = 1;
nodes = (
"341 190 LINE",
"341 293 OFFCURVE",
"387 378 OFFCURVE",
"478 378 CURVE SMOOTH",
"590 378 OFFCURVE",
"590 249 OFFCURVE",
"590 202 CURVE SMOOTH",
"590 0 LINE",
"616 0 LINE",
"616 202 LINE SMOOTH",
"616 256 OFFCURVE",
"616 404 OFFCURVE",
"482 404 CURVE SMOOTH",
"379 404 OFFCURVE",
"345 318 OFFCURVE",
"336 290 CURVE",
"325 290 LINE"
);
}
);
width = 661;
},
{
layerId = "F5474A38-5AEA-454E-84E5-A62166EBBEA7";
paths = (
{
closed = 1;
nodes = (
"158 0 LINE",
"158 199 LINE SMOOTH",
"158 239 OFFCURVE",
"158 292 OFFCURVE",
"216 292 CURVE SMOOTH",
"275 292 OFFCURVE",
"275 236 OFFCURVE",
"275 199 CURVE SMOOTH",
"275 0 LINE",
"391 0 LINE",
"391 198 LINE SMOOTH",
"391 254 OFFCURVE",
"401 414 OFFCURVE",
"275 414 CURVE SMOOTH",
"189 414 OFFCURVE",
"160 338 OFFCURVE",
"160 338 CURVE SMOOTH",
"158 338 LINE",
"158 414 LINE",
"35 414 LINE",
"35 0 LINE"
);
},
{
closed = 1;
nodes = (
"391 199 LINE",
"391 239 OFFCURVE",
"391 292 OFFCURVE",
"449 292 CURVE SMOOTH",
"508 292 OFFCURVE",
"508 236 OFFCURVE",
"508 199 CURVE SMOOTH",
"508 0 LINE",
"624 0 LINE",
"624 198 LINE SMOOTH",
"624 255 OFFCURVE",
"629 414 OFFCURVE",
"502 414 CURVE SMOOTH",
"414 414 OFFCURVE",
"379 338 OFFCURVE",
"379 338 CURVE SMOOTH",
"372 338 LINE"
);
}
);
width = 659;
}
);
unicode = 006D;
},
{
glyphname = n;
lastChange = "2019-04-30 14:27:25 +0000";
layers = (
{
guideLines = (
{
position = "{116, 198}";
},
{
angle = 90;
position = "{40, 180}";
},
{
angle = 90;
position = "{61, 145}";
}
);
layerId = "D86F237C-A043-4FD6-9305-0CC5F899F330";
paths = (
{
closed = 1;
nodes = (
"66 0 LINE",
"66 190 LINE SMOOTH",
"66 294 OFFCURVE",
"120 378 OFFCURVE",
"224 378 CURVE SMOOTH",
"321 378 OFFCURVE",
"355 312 OFFCURVE",
"355 202 CURVE SMOOTH",
"355 0 LINE",
"381 0 LINE",
"381 202 LINE SMOOTH",
"381 304 OFFCURVE",
"359 404 OFFCURVE",
"222 404 CURVE SMOOTH",
"110 404 OFFCURVE",
"75 311 OFFCURVE",
"68 290 CURVE",
"66 290 LINE",
"61 404 LINE",
"40 404 LINE",
"40 0 LINE"
);
}
);
width = 426;
},
{
guideLines = (
{
angle = 90;
position = "{157, 300}";
},
{
angle = 90;
position = "{294, 300}";
},
{
angle = 90;
position = "{243, 300}";
},
{
angle = 90;
position = "{321, 300}";
},
{
angle = 90;
position = "{36, 300}";
}
);
layerId = "F5474A38-5AEA-454E-84E5-A62166EBBEA7";
paths = (
{
closed = 1;
nodes = (
"179 0 LINE",
"179 199 LINE SMOOTH",
"179 242 OFFCURVE",
"180 292 OFFCURVE",
"246 292 CURVE SMOOTH",
"313 292 OFFCURVE",
"315 242 OFFCURVE",
"315 199 CURVE SMOOTH",
"315 0 LINE",
"451 0 LINE",
"451 198 LINE SMOOTH",
"451 261 OFFCURVE",
"462 414 OFFCURVE",
"311 414 CURVE SMOOTH",
"205 414 OFFCURVE",
"181 338 OFFCURVE",
"181 338 CURVE SMOOTH",
"179 338 LINE",
"156 412 LINE",
"35 412 LINE",
"35 0 LINE"
);
}
);
width = 486;
}
);
leftKerningGroup = n;
rightKerningGroup = n;
unicode = 006E;
},
{
glyphname = eng;
lastChange = "2019-01-09 02:22:01 +0000";
layers = (
{
components = (
{
name = n;
}
);
layerId = "D86F237C-A043-4FD6-9305-0CC5F899F330";
paths = (
{
closed = 1;
nodes = (
"371 -199 OFFCURVE",
"397 -154 OFFCURVE",
"396 -88 CURVE",
"396 33 LINE",
"370 33 LINE",
"370 -93 LINE",
"371 -152 OFFCURVE",
"349 -177 OFFCURVE",
"302 -177 CURVE",
"281 -177 OFFCURVE",
"264 -168 OFFCURVE",
"254 -156 CURVE",
"235 -175 LINE",
"252 -191 OFFCURVE",
"273 -199 OFFCURVE",
"302 -199 CURVE"
);
}
);
width = 451;
},
{
components = (
{
name = n;
}
);
layerId = "F5474A38-5AEA-454E-84E5-A62166EBBEA7";
paths = (
{
closed = 1;
nodes = (
"415 -198 OFFCURVE",
"461 -129 OFFCURVE",
"461 -56 CURVE",
"461 9 LINE",
"321 9 LINE",
"321 -34 LINE",
"321 -62 OFFCURVE",
"304 -70 OFFCURVE",
"291 -70 CURVE",
"270 -70 OFFCURVE",
"256 -54 OFFCURVE",
"256 -54 CURVE",
"181 -147 LINE",
"181 -147 OFFCURVE",
"223 -198 OFFCURVE",
"304 -198 CURVE"
);
}
);
width = 506;
}
);
leftKerningGroup = n;
rightKerningGroup = n;
unicode = 014B;
},
{
glyphname = o;
lastChange = "2019-04-30 15:44:50 +0000";
layers = (
{
guideLines = (
{
position = "{575, -14}";
}
);
layerId = "D86F237C-A043-4FD6-9305-0CC5F899F330";
paths = (
{
closed = 1;
nodes = (
"339 -10 OFFCURVE",
"397 79 OFFCURVE",
"397 196 CURVE",
"397 321 OFFCURVE",
"333 404 OFFCURVE",
"214 404 CURVE",
"92 404 OFFCURVE",
"30 318 OFFCURVE",
"30 196 CURVE",
"30 76 OFFCURVE",
"91 -10 OFFCURVE",
"214 -10 CURVE"
);
},
{
closed = 1;
nodes = (
"95 16 OFFCURVE",
"58 110 OFFCURVE",
"58 196 CURVE",
"58 284 OFFCURVE",
"95 378 OFFCURVE",
"214 378 CURVE",
"333 378 OFFCURVE",
"369 284 OFFCURVE",
"369 196 CURVE",
"369 110 OFFCURVE",
"333 16 OFFCURVE",
"214 16 CURVE"
);
}
);
width = 442;
},
{
guideLines = (
{
position = "{220, 93}";
},
{
position = "{235, 319}";
},
{
angle = 90;
position = "{239, 43}";
}
);
layerId = "F5474A38-5AEA-454E-84E5-A62166EBBEA7";
paths = (
{
closed = 1;
nodes = (
"388 -10 OFFCURVE",
"457 82 OFFCURVE",
"457 202 CURVE",
"457 330 OFFCURVE",
"382 415 OFFCURVE",
"239 415 CURVE",
"92 414 OFFCURVE",
"18 325 OFFCURVE",
"20 202 CURVE",
"20 79 OFFCURVE",
"92 -10 OFFCURVE",
"239 -10 CURVE"
);
},
{
closed = 1;
nodes = (
"164 106 OFFCURVE",
"154 159 OFFCURVE",
"154 207 CURVE",
"154 256 OFFCURVE",
"164 309 OFFCURVE",
"239 309 CURVE",
"313 309 OFFCURVE",
"323 256 OFFCURVE",
"323 207 CURVE",
"323 159 OFFCURVE",
"313 106 OFFCURVE",
"239 106 CURVE"
);
}
);
width = 487;
}
);
leftKerningGroup = o;
rightKerningGroup = o;
unicode = 006F;
},
{
glyphname = ohungarumlaut;
lastChange = "2019-04-30 15:11:03 +0000";
layers = (
{
components = (
{
name = o;
}
);
layerId = "D86F237C-A043-4FD6-9305-0CC5F899F330";
paths = (
{
closed = 1;
nodes = (
"160 444 LINE",
"256 565 LINE",
"226 578 LINE",
"144 451 LINE"
);
},
{
closed = 1;
nodes = (
"270 444 LINE",
"366 565 LINE",
"336 578 LINE",
"254 451 LINE"
);
}
);
width = 437;
},
{
components = (
{
name = o;
}
);
layerId = "F5474A38-5AEA-454E-84E5-A62166EBBEA7";
paths = (
{
closed = 1;
nodes = (
"156 461 LINE",
"268 596 LINE",
"161 649 LINE",
"94 491 LINE"
);
},
{
closed = 1;
nodes = (
"357 461 LINE",
"469 596 LINE",
"362 649 LINE",
"295 491 LINE"
);
}
);
width = 499;
}
);
leftKerningGroup = o;
rightKerningGroup = o;
unicode = 0151;
},
{
glyphname = oslash;
lastChange = "2019-04-30 15:11:03 +0000";
layers = (
{
components = (
{
alignment = -1;
name = o;
}
);
guideLines = (
{
angle = 90;
position = "{211, 200}";
},
{
position = "{296, 200}";
}
);
layerId = "D86F237C-A043-4FD6-9305-0CC5F899F330";
paths = (
{
closed = 1;
nodes = (
"78 -34 LINE",
"365 422 LINE",
"344 434 LINE",
"57 -22 LINE"
);
}
);
width = 437;
},
{
components = (
{
name = o;
}
);
guideLines = (
{
angle = 90;
position = "{230, 207}";
},
{
position = "{315, 207}";
}
);
layerId = "F5474A38-5AEA-454E-84E5-A62166EBBEA7";
paths = (
{
closed = 1;
nodes = (
"92 -44 LINE",
"398 443 LINE",
"368 460 LINE",
"62 -27 LINE"
);
}
);
width = 479;
}
);
leftKerningGroup = o;
rightKerningGroup = o;
unicode = 00F8;
},
{
glyphname = oe;
lastChange = "2019-01-09 02:30:09 +0000";
layers = (
{
layerId = "D86F237C-A043-4FD6-9305-0CC5F899F330";
paths = (
{
closed = 1;
nodes = (
"339 -10 OFFCURVE",
"396 79 OFFCURVE",
"396 196 CURVE",
"396 321 OFFCURVE",
"333 404 OFFCURVE",
"214 404 CURVE",
"92 404 OFFCURVE",
"30 318 OFFCURVE",
"30 196 CURVE",
"30 76 OFFCURVE",
"91 -10 OFFCURVE",
"214 -10 CURVE"
);
},
{
closed = 1;
nodes = (
"95 16 OFFCURVE",
"58 110 OFFCURVE",
"58 196 CURVE",
"58 284 OFFCURVE",
"95 378 OFFCURVE",
"214 378 CURVE",
"333 378 OFFCURVE",
"370 284 OFFCURVE",
"370 196 CURVE",
"370 110 OFFCURVE",
"333 16 OFFCURVE",
"214 16 CURVE"
);
},
{
closed = 1;
nodes = (
"645 -10 OFFCURVE",
"716 44 OFFCURVE",
"733 125 CURVE",
"706 125 LINE",
"692 57 OFFCURVE",
"632 15 OFFCURVE",
"557 15 CURVE",
"454 15 OFFCURVE",
"396 89 OFFCURVE",
"396 201 CURVE",
"734 201 LINE",
"734 209 OFFCURVE",
"734 218 OFFCURVE",
"733 226 CURVE SMOOTH",
"720 333 OFFCURVE",
"654 404 OFFCURVE",
"557 404 CURVE",
"434 404 OFFCURVE",
"372 304 OFFCURVE",
"370 202 CURVE SMOOTH",
"368 97 OFFCURVE",
"431 -10 OFFCURVE",
"557 -10 CURVE"
);
},
{
closed = 1;
nodes = (
"410 315 OFFCURVE",
"467 379 OFFCURVE",
"557 379 CURVE",
"659 379 OFFCURVE",
"704 288 OFFCURVE",
"706 226 CURVE",
"399 226 LINE"
);
}
);
width = 774;
},
{
layerId = "F5474A38-5AEA-454E-84E5-A62166EBBEA7";
paths = (
{
closed = 1;
nodes = (
"380 -10 OFFCURVE",
"449 82 OFFCURVE",
"449 202 CURVE",
"449 330 OFFCURVE",
"374 415 OFFCURVE",
"231 415 CURVE",
"84 414 OFFCURVE",
"10 325 OFFCURVE",
"12 202 CURVE",
"12 79 OFFCURVE",
"84 -10 OFFCURVE",
"231 -10 CURVE"
);
},
{
closed = 1;
nodes = (
"156 106 OFFCURVE",
"146 159 OFFCURVE",
"146 207 CURVE",
"146 256 OFFCURVE",
"156 309 OFFCURVE",
"231 309 CURVE",
"305 309 OFFCURVE",
"315 256 OFFCURVE",
"315 207 CURVE",
"315 159 OFFCURVE",
"305 106 OFFCURVE",
"231 106 CURVE"
);
},
{
closed = 1;
nodes = (
"651 -10 OFFCURVE",
"708 57 OFFCURVE",
"732 134 CURVE",
"599 161 LINE",
"591 130 OFFCURVE",
"575 110 OFFCURVE",
"532 110 CURVE SMOOTH",
"482 110 OFFCURVE",
"450 136 OFFCURVE",
"450 189 CURVE",
"728 189 LINE",
"728 196 OFFCURVE",
"728 215 OFFCURVE",
"728 215 CURVE SMOOTH",
"731 330 OFFCURVE",
"641 417 OFFCURVE",
"534 417 CURVE",
"367 417 OFFCURVE",
"313 305 OFFCURVE",
"316 197 CURVE SMOOTH",
"319 92 OFFCURVE",
"376 -10 OFFCURVE",
"533 -10 CURVE"
);
},
{
closed = 1;
nodes = (
"450 257 OFFCURVE",
"449 321 OFFCURVE",
"528 321 CURVE SMOOTH",
"600 321 OFFCURVE",
"588 257 OFFCURVE",
"588 257 CURVE",
"450 257 LINE"
);
}
);
width = 754;
}
);
leftKerningGroup = o;
rightKerningGroup = e;
unicode = 0153;
},
{
glyphname = p;
lastChange = "2019-05-21 02:50:09 +0000";
layers = (
{
guideLines = (
{
angle = 90;
position = "{77, 18}";
},
{
position = "{316, 198}";
},
{
position = "{386, -152}";
}
);
layerId = "D86F237C-A043-4FD6-9305-0CC5F899F330";
paths = (
{
closed = 1;
nodes = (
"351 -10 OFFCURVE",
"424 81 OFFCURVE",
"424 197 CURVE SMOOTH",
"424 311 OFFCURVE",
"353 404 OFFCURVE",
"238 404 CURVE SMOOTH",
"125 404 OFFCURVE",
"87 309 OFFCURVE",
"80 288 CURVE",
"78 288 LINE",
"72 404 LINE",
"50 404 LINE",
"50 -152 LINE",
"77 -152 LINE",
"77 107 LINE",
"79 107 LINE",
"87 87 OFFCURVE",
"129 -10 OFFCURVE",
"239 -10 CURVE SMOOTH"
);
},
{
closed = 1;
nodes = (
"158 18 OFFCURVE",
"80 81 OFFCURVE",
"80 198 CURVE SMOOTH",
"80 312 OFFCURVE",
"152 376 OFFCURVE",
"234 376 CURVE SMOOTH",
"340 376 OFFCURVE",
"397 289 OFFCURVE",
"397 198 CURVE SMOOTH",
"397 107 OFFCURVE",
"348 18 OFFCURVE",
"242 18 CURVE SMOOTH"
);
}
);
width = 457;
},
{
guideLines = (
{
position = "{377, 199}";
},
{
angle = 90;
position = "{49, -81}";
},
{
angle = 90;
position = "{171, -81}";
}
);
layerId = "F5474A38-5AEA-454E-84E5-A62166EBBEA7";
paths = (
{
closed = 1;
nodes = (
"441 -10 OFFCURVE",
"483 66 OFFCURVE",
"483 198 CURVE SMOOTH",
"483 332 OFFCURVE",
"443 414 OFFCURVE",
"318 414 CURVE SMOOTH",
"217 414 OFFCURVE",
"195 338 OFFCURVE",
"195 338 CURVE SMOOTH",
"193 338 LINE",
"171 414 LINE",
"49 414 LINE",
"49 -199 LINE",
"193 -199 LINE",
"193 56 LINE",
"195 56 LINE",
"195 56 OFFCURVE",
"223 -10 OFFCURVE",
"318 -10 CURVE SMOOTH"
);
},
{
closed = 1;
nodes = (
"200 105 OFFCURVE",
"193 151 OFFCURVE",
"193 199 CURVE SMOOTH",
"193 247 OFFCURVE",
"200 292 OFFCURVE",
"271 292 CURVE SMOOTH",
"342 292 OFFCURVE",
"349 247 OFFCURVE",
"349 199 CURVE SMOOTH",
"349 151 OFFCURVE",
"342 105 OFFCURVE",
"271 105 CURVE SMOOTH"
);
}
);
width = 510;
}
);
rightKerningGroup = o;
unicode = 0070;
},
{
glyphname = thorn;
lastChange = "2019-05-21 02:50:20 +0000";
layers = (
{
layerId = "D86F237C-A043-4FD6-9305-0CC5F899F330";
paths = (
{
closed = 1;
nodes = (
"364 -10 OFFCURVE",
"424 95 OFFCURVE",
"424 199 CURVE SMOOTH",
"424 302 OFFCURVE",
"361 404 OFFCURVE",
"238 404 CURVE",
"106 404 OFFCURVE",
"75 278 OFFCURVE",
"77 286 CURVE",
"77 107 LINE",
"71 128 OFFCURVE",
"106 -10 OFFCURVE",
"239 -10 CURVE"
);
},
{
closed = 1;
nodes = (
"78 -199 LINE",
"78 129 LINE",
"77 563 LINE",
"50 563 LINE",
"50 -199 LINE"
);
},
{
closed = 1;
nodes = (
"150 15 OFFCURVE",
"77 95 OFFCURVE",
"77 198 CURVE",
"77 301 OFFCURVE",
"147 379 OFFCURVE",
"234 379 CURVE",
"340 379 OFFCURVE",
"397 289 OFFCURVE",
"397 198 CURVE SMOOTH",
"397 107 OFFCURVE",
"348 15 OFFCURVE",
"242 15 CURVE"
);
}
);
width = 457;
},
{
layerId = "F5474A38-5AEA-454E-84E5-A62166EBBEA7";
paths = (
{
closed = 1;
nodes = (
"438 -10 OFFCURVE",
"477 99 OFFCURVE",
"477 206 CURVE",
"477 310 OFFCURVE",
"436 413 OFFCURVE",
"332 413 CURVE",
"227 413 OFFCURVE",
"195 307 OFFCURVE",
"194 304 CURVE",
"194 78 LINE",
"196 72 OFFCURVE",
"242 -10 OFFCURVE",
"331 -10 CURVE"
);
},
{
closed = 1;
nodes = (
"194 -199 LINE",
"194 72 LINE",
"194 563 LINE",
"50 563 LINE",
"50 -199 LINE"
);
},
{
closed = 1;
nodes = (
"195 105 OFFCURVE",
"190 142 OFFCURVE",
"190 197 CURVE SMOOTH",
"190 256 OFFCURVE",
"199 292 OFFCURVE",
"257 292 CURVE",
"317 292 OFFCURVE",
"323 244 OFFCURVE",
"323 197 CURVE",
"323 151 OFFCURVE",
"317 105 OFFCURVE",
"255 105 CURVE"
);
}
);
width = 512;
}
);
rightKerningGroup = o;
unicode = 00FE;
},
{
glyphname = q;
lastChange = "2019-05-21 02:50:00 +0000";
layers = (
{
guideLines = (
{
position = "{126, 198}";
},
{
position = "{386, -152}";
}
);
layerId = "D86F237C-A043-4FD6-9305-0CC5F899F330";
paths = (
{
closed = 1;
nodes = (
"328 -10 OFFCURVE",
"370 87 OFFCURVE",
"378 107 CURVE",
"380 107 LINE",
"380 -152 LINE",
"407 -152 LINE",
"407 404 LINE",
"385 404 LINE",
"379 288 LINE",
"377 288 LINE",
"370 309 OFFCURVE",
"332 404 OFFCURVE",
"219 404 CURVE SMOOTH",
"106 404 OFFCURVE",
"33 313 OFFCURVE",
"33 197 CURVE SMOOTH",
"33 84 OFFCURVE",
"103 -10 OFFCURVE",
"218 -10 CURVE SMOOTH"
);
},
{
closed = 1;
nodes = (
"109 18 OFFCURVE",
"60 107 OFFCURVE",
"60 198 CURVE SMOOTH",
"60 289 OFFCURVE",
"117 376 OFFCURVE",
"223 376 CURVE SMOOTH",
"305 376 OFFCURVE",
"377 312 OFFCURVE",
"377 198 CURVE SMOOTH",
"377 81 OFFCURVE",
"299 18 OFFCURVE",
"215 18 CURVE SMOOTH"
);
}
);
width = 457;
},
{
guideLines = (
{
position = "{133, 198}";
}
);
layerId = "F5474A38-5AEA-454E-84E5-A62166EBBEA7";
paths = (
{
closed = 1;
nodes = (
"287 -10 OFFCURVE",
"315 56 OFFCURVE",
"315 56 CURVE",
"317 56 LINE",
"317 -199 LINE",
"461 -199 LINE",
"461 414 LINE",
"339 414 LINE",
"317 338 LINE",
"315 338 LINE SMOOTH",
"315 338 OFFCURVE",
"293 414 OFFCURVE",
"192 414 CURVE SMOOTH",
"67 414 OFFCURVE",
"27 332 OFFCURVE",
"27 198 CURVE SMOOTH",
"27 66 OFFCURVE",
"69 -10 OFFCURVE",
"192 -10 CURVE SMOOTH"
);
},
{
closed = 1;
nodes = (
"168 105 OFFCURVE",
"161 151 OFFCURVE",
"161 199 CURVE SMOOTH",
"161 247 OFFCURVE",
"168 292 OFFCURVE",
"239 292 CURVE SMOOTH",
"310 292 OFFCURVE",
"317 247 OFFCURVE",
"317 199 CURVE SMOOTH",
"317 151 OFFCURVE",
"310 105 OFFCURVE",
"239 105 CURVE SMOOTH"
);
}
);
width = 510;
}
);
leftKerningGroup = o;
unicode = 0071;
},
{
glyphname = r;
lastChange = "2019-05-21 02:48:56 +0000";
layers = (
{
guideLines = (
{
position = "{231, 374}";
},
{
angle = 90;
position = "{231, 384}";
}
);
layerId = "D86F237C-A043-4FD6-9305-0CC5F899F330";
paths = (
{
closed = 1;
nodes = (
"81 0 LINE",
"81 202 LINE",
"82 288 LINE",
"76 404 LINE",
"55 404 LINE",
"55 0 LINE"
);
},
{
closed = 1;
nodes = (
"81 291 OFFCURVE",
"88 374 OFFCURVE",
"231 374 CURVE SMOOTH",
"256 374 LINE",
"256 404 LINE",
"231 404 LINE SMOOTH",
"139 406 OFFCURVE",
"87 357 OFFCURVE",
"78 289 CURVE",
"81 202 LINE"
);
}
);
width = 266;
},
{
guideLines = (
{
angle = 90;
position = "{332, 333}";
}
);
layerId = "F5474A38-5AEA-454E-84E5-A62166EBBEA7";
paths = (
{
closed = 1;
nodes = (
"175 0 LINE",
"175 203 LINE",
"176 293 LINE",
"167 414 LINE",
"35 414 LINE",
"35 0 LINE"
);
},
{
closed = 1;
nodes = (
"175 250 OFFCURVE",
"231 259 OFFCURVE",
"331 259 CURVE SMOOTH",
"341 259 LINE",
"341 414 LINE",
"332 414 LINE SMOOTH",
"200 414 OFFCURVE",
"170 307 OFFCURVE",
"172 258 CURVE SMOOTH",
"175 165 LINE"
);
}
);
width = 374;
}
);
leftKerningGroup = r;
rightKerningGroup = r;
unicode = 0072;
},
{
glyphname = s;
lastChange = "2019-05-25 06:12:44 +0000";
layers = (
{
guideLines = (
{
angle = 90;
position = "{201, 180}";
},
{
angle = 90;
position = "{27, 141}";
},
{
angle = 90;
position = "{379, 136}";
},
{
position = "{354, 488}";
},
{
position = "{287, 191}";
},
{
position = "{336, -14}";
}
);
layerId = "D86F237C-A043-4FD6-9305-0CC5F899F330";
paths = (
{
closed = 1;
nodes = (
"277 -10 OFFCURVE",
"355 20 OFFCURVE",
"355 97 CURVE SMOOTH",
"355 272 OFFCURVE",
"71 181 OFFCURVE",
"71 311 CURVE SMOOTH",
"71 363 OFFCURVE",
"128 388 OFFCURVE",
"195 388 CURVE SMOOTH",
"243 388 OFFCURVE",
"331 375 OFFCURVE",
"325 284 CURVE",
"353 284 LINE",
"360 395 OFFCURVE",
"259 414 OFFCURVE",
"201 414 CURVE SMOOTH",
"109 414 OFFCURVE",
"46 369 OFFCURVE",
"45 311 CURVE SMOOTH",
"42 146 OFFCURVE",
"327 241 OFFCURVE",
"329 97 CURVE SMOOTH",
"330 34 OFFCURVE",
"258 13 OFFCURVE",
"190 13 CURVE SMOOTH",
"59 13 OFFCURVE",
"62 119 OFFCURVE",
"62 123 CURVE",
"34 123 LINE",
"34 123 OFFCURVE",
"29 -10 OFFCURVE",
"189 -10 CURVE SMOOTH"
);
}
);
width = 390;
},
{
guideLines = (
{
position = "{339, 429}";
},
{
position = "{339, 144}";
},
{
position = "{361, 317}";
},
{
position = "{339, -10}";
}
);
layerId = "F5474A38-5AEA-454E-84E5-A62166EBBEA7";
paths = (
{
closed = 1;
nodes = (
"333 -10 OFFCURVE",
"400 32 OFFCURVE",
"400 110 CURVE SMOOTH",
"400 258 OFFCURVE",
"157 225 OFFCURVE",
"157 296 CURVE SMOOTH",
"157 309 OFFCURVE",
"165 325 OFFCURVE",
"204 325 CURVE SMOOTH",
"240 325 OFFCURVE",
"276 312 OFFCURVE",
"276 266 CURVE",
"402 266 LINE",
"399 372 OFFCURVE",
"317 429 OFFCURVE",
"197 429 CURVE SMOOTH",
"101 429 OFFCURVE",
"30 392 OFFCURVE",
"30 307 CURVE SMOOTH",
"30 152 OFFCURVE",
"267 179 OFFCURVE",
"267 120 CURVE SMOOTH",
"267 112 OFFCURVE",
"262 90 OFFCURVE",
"217 90 CURVE SMOOTH",
"146 90 OFFCURVE",
"151 145 OFFCURVE",
"151 148 CURVE",
"23 148 LINE",
"23 -8 OFFCURVE",
"196 -10 OFFCURVE",
"221 -10 CURVE SMOOTH"
);
}
);
width = 427;
}
);
leftKerningGroup = s;
rightKerningGroup = s;
unicode = 0073;
},
{
glyphname = germandbls;
lastChange = "2019-05-21 02:48:21 +0000";
layers = (
{
guideLines = (
{
position = "{371, -10}";
},
{
position = "{345, 350}";
},
{
position = "{345, 410}";
},
{
position = "{345, 367}";
},
{
position = "{345, 427}";
}
);
layerId = "D86F237C-A043-4FD6-9305-0CC5F899F330";
paths = (
{
closed = 1;
nodes = (
"376 -10 OFFCURVE",
"453 55 OFFCURVE",
"453 142 CURVE",
"453 292 OFFCURVE",
"246 278 OFFCURVE",
"246 335 CURVE",
"246 381 OFFCURVE",
"378 374 OFFCURVE",
"378 478 CURVE",
"378 568 OFFCURVE",
"272 563 OFFCURVE",
"208 563 CURVE",
"55 563 LINE",
"55 0 LINE",
"80 0 LINE",
"80 538 LINE",
"208 538 LINE",
"299 538 OFFCURVE",
"352 529 OFFCURVE",
"352 471 CURVE",
"352 389 OFFCURVE",
"223 395 OFFCURVE",
"223 334 CURVE",
"223 258 OFFCURVE",
"429 276 OFFCURVE",
"429 142 CURVE",
"429 67 OFFCURVE",
"361 15 OFFCURVE",
"274 15 CURVE",
"173 15 OFFCURVE",
"147 87 OFFCURVE",
"146 90 CURVE",
"121 90 LINE",
"140 26 OFFCURVE",
"202 -10 OFFCURVE",
"274 -10 CURVE"
);
}
);
width = 473;
},
{
layerId = "F5474A38-5AEA-454E-84E5-A62166EBBEA7";
paths = (
{
closed = 1;
nodes = (
"520 -10 OFFCURVE",
"612 47 OFFCURVE",
"612 143 CURVE",
"612 293 OFFCURVE",
"397 279 OFFCURVE",
"397 336 CURVE",
"397 391 OFFCURVE",
"527 374 OFFCURVE",
"527 478 CURVE",
"527 570 OFFCURVE",
"387 563 OFFCURVE",
"323 563 CURVE",
"55 563 LINE",
"55 0 LINE",
"195 0 LINE",
"195 451 LINE",
"323 451 LINE",
"323 451 OFFCURVE",
"397 451 OFFCURVE",
"397 451 CURVE",
"397 369 OFFCURVE",
"288 404 OFFCURVE",
"288 334 CURVE",
"288 258 OFFCURVE",
"474 256 OFFCURVE",
"474 171 CURVE",
"474 145 OFFCURVE",
"457 111 OFFCURVE",
"410 111 CURVE",
"346 111 OFFCURVE",
"348 169 OFFCURVE",
"348 169 CURVE",
"229 169 LINE",
"229 90 OFFCURVE",
"265 -10 OFFCURVE",
"429 -10 CURVE"
);
}
);
width = 637;
}
);
unicode = 00DF;
},
{
glyphname = t;
lastChange = "2019-04-28 02:49:13 +0000";
layers = (
{
guideLines = (
{
position = "{144, -9}";
},
{
angle = 90;
position = "{75, 47}";
},
{
position = "{39, 509}";
},
{
position = "{212, 0}";
},
{
angle = 90;
position = "{102, 47}";
},
{
angle = 90;
position = "{197, 30}";
},
{
position = "{209, 47}";
}
);
layerId = "D86F237C-A043-4FD6-9305-0CC5F899F330";
paths = (
{
closed = 1;
nodes = (
"197 0 LINE",
"197 25 LINE",
"102 25 LINE",
"102 386 LINE",
"75 386 LINE",
"75 47 LINE SMOOTH",
"75 27 OFFCURVE",
"75 0 OFFCURVE",
"109 0 CURVE"
);
},
{
closed = 1;
nodes = (
"197 379 LINE",
"197 404 LINE",
"102 404 LINE",
"102 509 LINE",
"75 509 LINE",
"75 404 OFFCURVE",
"82 404 OFFCURVE",
"7 404 CURVE",
"7 379 LINE"
);
}
);
width = 247;
},
{
guideLines = (
{
angle = 90;
position = "{71, 308}";
},
{
angle = 90;
position = "{299, 27}";
},
{
position = "{149, 0}";
},
{
angle = 90;
position = "{73, -26}";
},
{
position = "{107, 130}";
},
{
angle = 90;
position = "{203, 49}";
}
);
layerId = "F5474A38-5AEA-454E-84E5-A62166EBBEA7";
paths = (
{
closed = 1;
nodes = (
"299 0 LINE",
"299 107 LINE",
"203 107 LINE",
"203 332 LINE",
"73 332 LINE",
"73 130 LINE SMOOTH",
"73 31 OFFCURVE",
"123 0 OFFCURVE",
"203 0 CURVE"
);
},
{
closed = 1;
nodes = (
"296 319 LINE",
"296 414 LINE",
"203 414 LINE",
"203 519 LINE",
"93 519 LINE",
"93 426 OFFCURVE",
"62 414 OFFCURVE",
"15 414 CURVE",
"15 319 LINE"
);
}
);
width = 334;
}
);
leftKerningGroup = t;
rightKerningGroup = t;
unicode = 0074;
},
{
glyphname = tbar;
lastChange = "2019-01-09 01:47:37 +0000";
layers = (
{
guideLines = (
{
angle = 90;
position = "{7, 193}";
}
);
layerId = "D86F237C-A043-4FD6-9305-0CC5F899F330";
paths = (
{
closed = 1;
nodes = (
"186 35 LINE",
"149 -2 OFFCURVE",
"102 11 OFFCURVE",
"102 67 CURVE",
"102 386 LINE",
"75 386 LINE",
"75 67 LINE",
"75 -11 OFFCURVE",
"141 -34 OFFCURVE",
"197 16 CURVE"
);
},
{
closed = 1;
nodes = (
"178 210 LINE",
"178 235 LINE",
"18 235 LINE",
"18 210 LINE"
);
},
{
closed = 1;
nodes = (
"197 379 LINE",
"197 404 LINE",
"102 404 LINE",
"102 509 LINE",
"75 509 LINE",
"75 404 OFFCURVE",
"82 404 OFFCURVE",
"7 404 CURVE",
"7 379 LINE"
);
}
);
width = 247;
},
{
layerId = "F5474A38-5AEA-454E-84E5-A62166EBBEA7";
paths = (
{
closed = 1;
nodes = (
"299 96 LINE",
"270 87 OFFCURVE",
"203 71 OFFCURVE",
"203 186 CURVE",
"203 335 LINE",
"73 335 LINE",
"73 145 LINE",
"73 0 OFFCURVE",
"200 -45 OFFCURVE",
"296 19 CURVE"
);
},
{
closed = 1;
nodes = (
"296 159 LINE",
"296 255 LINE",
"15 255 LINE",
"15 159 LINE"
);
},
{
closed = 1;
nodes = (
"296 310 LINE",
"296 417 LINE",
"203 417 LINE",
"203 522 LINE",
"93 522 LINE",
"93 429 OFFCURVE",
"62 417 OFFCURVE",
"15 417 CURVE",
"15 310 LINE"
);
}
);
width = 334;
}
);
leftKerningGroup = t;
rightKerningGroup = t;
unicode = 0167;
},
{
glyphname = tcaron;
lastChange = "2019-01-09 02:22:43 +0000";
layers = (
{
components = (
{
alignment = -1;
name = t;
}
);
layerId = "D86F237C-A043-4FD6-9305-0CC5F899F330";
paths = (
{
closed = 1;
nodes = (
"159 441 LINE",
"210 575 LINE",
"180 575 LINE",
"143 441 LINE"
);
}
);
width = 245;
},
{
components = (
{
alignment = -1;
name = t;
}
);
guideLines = (
{
position = "{365, 521}";
},
{
position = "{365, 584}";
}
);
layerId = "F5474A38-5AEA-454E-84E5-A62166EBBEA7";
paths = (
{
closed = 1;
nodes = (
"325 467 LINE",
"401 641 LINE",
"271 641 LINE",
"244 467 LINE"
);
}
);
width = 343;
}
);
leftKerningGroup = t;
rightKerningGroup = t;
unicode = 0165;
},
{
glyphname = u;
lastChange = "2019-04-30 15:06:44 +0000";
layers = (
{
guideLines = (
{
position = "{475, -14}";
},
{
angle = 90;
position = "{717, -21}";
},
{
angle = 90;
position = "{696, -56}";
}
);
layerId = "D86F237C-A043-4FD6-9305-0CC5F899F330";
paths = (
{
closed = 1;
nodes = (
"282 -10 OFFCURVE",
"331 53 OFFCURVE",
"347 103 CURVE",
"349 103 LINE",
"354 0 LINE",
"375 0 LINE",
"375 404 LINE",
"349 404 LINE",
"348 184 LINE",
"342 97 OFFCURVE",
"300 16 OFFCURVE",
"199 16 CURVE SMOOTH",
"90 16 OFFCURVE",
"65 91 OFFCURVE",
"65 192 CURVE SMOOTH",
"65 404 LINE",
"38 404 LINE",
"38 192 LINE SMOOTH",
"38 76 OFFCURVE",
"74 -10 OFFCURVE",
"199 -10 CURVE SMOOTH"
);
}
);
width = 430;
},
{
guideLines = (
{
position = "{410, 59}";
},
{
position = "{341, -10}";
}
);
layerId = "F5474A38-5AEA-454E-84E5-A62166EBBEA7";
paths = (
{
closed = 1;
nodes = (
"276 -10 OFFCURVE",
"300 66 OFFCURVE",
"300 66 CURVE SMOOTH",
"302 66 LINE",
"325 0 LINE",
"446 0 LINE",
"446 414 LINE",
"302 414 LINE",
"302 205 LINE SMOOTH",
"302 162 OFFCURVE",
"301 112 OFFCURVE",
"235 112 CURVE SMOOTH",
"168 112 OFFCURVE",
"166 162 OFFCURVE",
"166 205 CURVE SMOOTH",
"166 414 LINE",
"30 414 LINE",
"30 206 LINE SMOOTH",
"30 143 OFFCURVE",
"19 -10 OFFCURVE",
"170 -10 CURVE SMOOTH"
);
}
);
width = 476;
}
);
leftKerningGroup = u;
rightKerningGroup = u;
unicode = 0075;
},
{
glyphname = uhungarumlaut;
lastChange = "2019-01-08 13:30:22 +0000";
layers = (
{
components = (
{
name = u;
}
);
layerId = "D86F237C-A043-4FD6-9305-0CC5F899F330";
paths = (
{
closed = 1;
nodes = (
"150 444 LINE",
"246 565 LINE",
"216 578 LINE",
"134 451 LINE"
);
},
{
closed = 1;
nodes = (
"260 444 LINE",
"356 565 LINE",
"326 578 LINE",
"244 451 LINE"
);
}
);
width = 430;
},
{
components = (
{
name = u;
}
);
layerId = "F5474A38-5AEA-454E-84E5-A62166EBBEA7";
paths = (
{
closed = 1;
nodes = (
"146 461 LINE",
"258 596 LINE",
"151 649 LINE",
"84 491 LINE"
);
},
{
closed = 1;
nodes = (
"347 461 LINE",
"459 596 LINE",
"352 649 LINE",
"285 491 LINE"
);
}
);
width = 509;
}
);
leftKerningGroup = u;
rightKerningGroup = u;
unicode = 0171;
},
{
glyphname = uogonek;
lastChange = "2019-01-08 12:37:50 +0000";
layers = (
{
components = (
{
name = u;
}
);
layerId = "D86F237C-A043-4FD6-9305-0CC5F899F330";
paths = (
{
closed = 1;
nodes = (
"375 -198 OFFCURVE",
"397 -155 OFFCURVE",
"397 -155 CURVE",
"375 -140 LINE",
"375 -140 OFFCURVE",
"366 -174 OFFCURVE",
"325 -174 CURVE",
"291 -174 OFFCURVE",
"273 -152 OFFCURVE",
"273 -123 CURVE",
"273 -49 OFFCURVE",
"375 0 OFFCURVE",
"375 0 CURVE",
"370 13 LINE",
"370 13 OFFCURVE",
"249 -37 OFFCURVE",
"249 -123 CURVE",
"249 -165 OFFCURVE",
"276 -198 OFFCURVE",
"325 -198 CURVE"
);
}
);
width = 430;
},
{
components = (
{
name = u;
}
);
layerId = "F5474A38-5AEA-454E-84E5-A62166EBBEA7";
paths = (
{
closed = 1;
nodes = (
"466 -180 OFFCURVE",
"505 -120 OFFCURVE",
"505 -120 CURVE",
"434 -56 LINE",
"434 -56 OFFCURVE",
"417 -82 OFFCURVE",
"394 -82 CURVE",
"379 -82 OFFCURVE",
"369 -74 OFFCURVE",
"369 -60 CURVE SMOOTH",
"369 -21 OFFCURVE",
"439 0 OFFCURVE",
"439 0 CURVE",
"439 62 LINE",
"439 62 OFFCURVE",
"269 20 OFFCURVE",
"269 -85 CURVE",
"269 -157 OFFCURVE",
"332 -180 OFFCURVE",
"381 -180 CURVE"
);
}
);
width = 489;
}
);
leftKerningGroup = u;
rightKerningGroup = u;
unicode = 0173;
},
{
glyphname = v;
lastChange = "2019-04-30 15:20:38 +0000";
layers = (
{
guideLines = (
{
position = "{63, 392}";
}
);
layerId = "D86F237C-A043-4FD6-9305-0CC5F899F330";
paths = (
{
closed = 1;
nodes = (
"179 21 LINE",
"177 21 LINE",
"18 404 LINE",
"-10 404 LINE",
"-10 392 LINE",
"157 0 LINE",
"197 0 LINE",
"364 392 LINE",
"364 404 LINE",
"336 404 LINE"
);
}
);
width = 379;
},
{
guideLines = (
{
position = "{110, 395}";
},
{
position = "{314, 116}";
}
);
layerId = "F5474A38-5AEA-454E-84E5-A62166EBBEA7";
paths = (
{
closed = 1;
nodes = (
"228 116 LINE",
"226 116 LINE",
"134 414 LINE",
"0 414 LINE",
"0 394 LINE",
"129 0 LINE",
"322 0 LINE",
"450 395 LINE",
"450 414 LINE",
"314 414 LINE"
);
}
);
width = 481;
}
);
unicode = 0076;
},
{
glyphname = w;
lastChange = "2019-05-01 01:21:19 +0000";
layers = (
{
guideLines = (
{
position = "{63, 392}";
}
);
layerId = "D86F237C-A043-4FD6-9305-0CC5F899F330";
paths = (
{
closed = 1;
nodes = (
"162 0 LINE",
"276 356 LINE",
"278 356 LINE",
"393 0 LINE",
"434 0 LINE",
"553 392 LINE",
"553 404 LINE",
"529 404 LINE",
"416 24 LINE",
"414 24 LINE",
"290 404 LINE",
"264 404 LINE",
"142 24 LINE",
"140 24 LINE",
"24 404 LINE",
"0 404 LINE",
"0 392 LINE",
"123 0 LINE"
);
}
);
width = 571;
},
{
guideLines = (
{
position = "{115, 395}";
},
{
position = "{314, 116}";
},
{
position = "{110, 395}";
}
);
layerId = "F5474A38-5AEA-454E-84E5-A62166EBBEA7";
paths = (
{
closed = 1;
nodes = (
"288 0 LINE",
"323 175 LINE",
"325 175 LINE",
"363 0 LINE",
"556 0 LINE",
"642 395 LINE",
"642 416 LINE",
"505 416 LINE",
"460 116 LINE",
"458 116 LINE",
"383 416 LINE",
"264 416 LINE",
"193 116 LINE",
"191 116 LINE",
"147 416 LINE",
"9 416 LINE",
"9 395 LINE",
"91 0 LINE"
);
}
);
width = 669;
}
);
unicode = 0077;
},
{
glyphname = x;
lastChange = "2018-12-26 03:22:27 +0000";
layers = (
{
layerId = "D86F237C-A043-4FD6-9305-0CC5F899F330";
paths = (
{
closed = 1;
nodes = (
"53 0 LINE",
"185 185 LINE",
"318 0 LINE",
"354 0 LINE",
"202 208 LINE",
"345 404 LINE",
"311 404 LINE",
"185 231 LINE",
"60 404 LINE",
"26 404 LINE",
"168 208 LINE",
"20 0 LINE"
);
}
);
width = 390;
},
{
guideLines = (
{
angle = 90;
position = "{-4, 215}";
},
{
position = "{241, 215}";
}
);
layerId = "F5474A38-5AEA-454E-84E5-A62166EBBEA7";
paths = (
{
closed = 1;
nodes = (
"141 0 LINE",
"229 134 LINE",
"318 0 LINE",
"468 0 LINE",
"318 214 LINE",
"459 414 LINE",
"307 414 LINE",
"229 291 LINE",
"150 414 LINE",
"-1 414 LINE",
"141 214 LINE",
"-10 0 LINE"
);
}
);
width = 474;
}
);
unicode = 0078;
},
{
glyphname = y;
lastChange = "2019-05-01 01:20:31 +0000";
layers = (
{
guideLines = (
{
position = "{31, -174}";
}
);
layerId = "D86F237C-A043-4FD6-9305-0CC5F899F330";
paths = (
{
closed = 1;
nodes = (
"41 -174 LINE SMOOTH",
"79 -174 OFFCURVE",
"94 -161 OFFCURVE",
"126 -93 CURVE SMOOTH",
"359 404 LINE",
"329 404 LINE",
"176 72 LINE",
"31 404 LINE",
"2 404 LINE",
"161 40 LINE",
"103 -85 LINE SMOOTH",
"79 -136 OFFCURVE",
"69 -149 OFFCURVE",
"44 -149 CURVE SMOOTH",
"-5 -149 LINE",
"-5 -174 LINE"
);
}
);
width = 374;
},
{
guideLines = (
{
position = "{108, -93}";
}
);
layerId = "F5474A38-5AEA-454E-84E5-A62166EBBEA7";
paths = (
{
closed = 1;
nodes = (
"93 -199 LINE",
"188 -199 OFFCURVE",
"222 -183 OFFCURVE",
"277 -48 CURVE",
"464 414 LINE",
"321 414 LINE",
"228 132 LINE",
"143 414 LINE",
"0 414 LINE",
"161 -9 LINE",
"149 -37 LINE SMOOTH",
"119 -95 OFFCURVE",
"100 -93 OFFCURVE",
"70 -93 CURVE",
"0 -93 LINE",
"0 -199 LINE"
);
}
);
width = 474;
}
);
leftKerningGroup = y;
rightKerningGroup = y;
unicode = 0079;
},
{
glyphname = z;
lastChange = "2019-01-09 01:59:58 +0000";
layers = (
{
layerId = "D86F237C-A043-4FD6-9305-0CC5F899F330";
paths = (
{
closed = 1;
nodes = (
"381 0 LINE",
"381 27 LINE",
"73 27 LINE",
"381 380 LINE",
"381 404 LINE",
"48 404 LINE",
"48 377 LINE",
"341 377 LINE",
"35 21 LINE",
"35 0 LINE"
);
}
);
width = 416;
},
{
layerId = "F5474A38-5AEA-454E-84E5-A62166EBBEA7";
paths = (
{
closed = 1;
nodes = (
"414 0 LINE",
"414 102 LINE",
"202 102 LINE",
"414 319 LINE",
"414 417 LINE",
"49 417 LINE",
"49 316 LINE",
"255 316 LINE",
"35 100 LINE",
"35 0 LINE"
);
}
);
width = 459;
}
);
leftKerningGroup = z;
rightKerningGroup = z;
unicode = 007A;
},
{
glyphname = a.ss01;
lastChange = "2019-04-28 01:30:15 +0000";
layers = (
{
guideLines = (
{
angle = 90;
position = "{231, 363}";
},
{
position = "{431, -3}";
},
{
angle = 90;
position = "{420, -9}";
},
{
position = "{400, -9}";
}
);
layerId = "D86F237C-A043-4FD6-9305-0CC5F899F330";
paths = (
{
closed = 1;
nodes = (
"403 -9 OFFCURVE",
"424 1 OFFCURVE",
"428 4 CURVE",
"420 26 LINE",
"414 21 OFFCURVE",
"356 -9 OFFCURVE",
"356 67 CURVE SMOOTH",
"356 282 LINE SMOOTH",
"356 363 OFFCURVE",
"283 404 OFFCURVE",
"209 404 CURVE SMOOTH",
"138 404 OFFCURVE",
"64 365 OFFCURVE",
"51 286 CURVE",
"78 286 LINE",
"85 349 OFFCURVE",
"148 380 OFFCURVE",
"207 380 CURVE SMOOTH",
"270 380 OFFCURVE",
"329 345 OFFCURVE",
"329 282 CURVE SMOOTH",
"329 67 LINE SMOOTH",
"329 7 OFFCURVE",
"356 -8 OFFCURVE",
"381 -9 CURVE"
);
},
{
closed = 1;
nodes = (
"90 18 OFFCURVE",
"59 48 OFFCURVE",
"59 94 CURVE SMOOTH",
"59 167 OFFCURVE",
"136 183 OFFCURVE",
"227 203 CURVE SMOOTH",
"271 213 OFFCURVE",
"308 220 OFFCURVE",
"326 234 CURVE",
"326 116 OFFCURVE",
"241 18 OFFCURVE",
"147 18 CURVE SMOOTH"
);
},
{
closed = 1;
nodes = (
"232 -9 OFFCURVE",
"303 55 OFFCURVE",
"335 162 CURVE",
"329 282 LINE",
"329 253 OFFCURVE",
"311 245 OFFCURVE",
"221 226 CURVE SMOOTH",
"135 207 OFFCURVE",
"32 188 OFFCURVE",
"32 93 CURVE SMOOTH",
"32 31 OFFCURVE",
"77 -9 OFFCURVE",
"145 -9 CURVE SMOOTH"
);
}
);
width = 448;
},
{
associatedMasterId = "D86F237C-A043-4FD6-9305-0CC5F899F330";
layerId = "4F74EB86-85FD-434C-825E-C31914DC3962";
width = 600;
},
{
guideLines = (
{
angle = 90;
position = "{449, -6}";
},
{
angle = 90;
position = "{233, 367}";
},
{
angle = 270;
position = "{479, 47}";
},
{
angle = 90;
position = "{347, -6}";
},
{
position = "{81, 238}";
},
{
position = "{460, 264}";
},
{
position = "{429, 240}";
}
);
layerId = "F5474A38-5AEA-454E-84E5-A62166EBBEA7";
paths = (
{
closed = 1;
nodes = (
"446 -10 OFFCURVE",
"472 23 OFFCURVE",
"472 21 CURVE",
"473 96 LINE",
"417 70 OFFCURVE",
"419 117 OFFCURVE",
"419 147 CURVE",
"419 261 LINE SMOOTH",
"419 374 OFFCURVE",
"327 416 OFFCURVE",
"233 416 CURVE SMOOTH",
"136 416 OFFCURVE",
"42 371 OFFCURVE",
"42 241 CURVE",
"172 241 LINE",
"164 299 OFFCURVE",
"202 315 OFFCURVE",
"232 315 CURVE SMOOTH",
"260 315 OFFCURVE",
"280 300 OFFCURVE",
"280 279 CURVE SMOOTH",
"280 94 LINE",
"280 74 OFFCURVE",
"275 -10 OFFCURVE",
"380 -10 CURVE SMOOTH"
);
},
{
closed = 1;
nodes = (
"186 85 OFFCURVE",
"160 90 OFFCURVE",
"157 117 CURVE",
"154 153 OFFCURVE",
"189 179 OFFCURVE",
"224 192 CURVE SMOOTH",
"240 198 OFFCURVE",
"272 207 OFFCURVE",
"280 216 CURVE",
"280 154 OFFCURVE",
"238 92 OFFCURVE",
"201 87 CURVE SMOOTH"
);
},
{
closed = 1;
nodes = (
"223 -10 OFFCURVE",
"262 44 OFFCURVE",
"281 110 CURVE",
"280 279 LINE",
"280 252 OFFCURVE",
"266 244 OFFCURVE",
"180 225 CURVE",
"96 206 OFFCURVE",
"16 183 OFFCURVE",
"16 100 CURVE SMOOTH",
"16 35 OFFCURVE",
"66 -10 OFFCURVE",
"141 -10 CURVE SMOOTH"
);
}
);
width = 498;
}
);
leftKerningGroup = a;
rightKerningGroup = a;
},
{
glyphname = aogonek.ss01;
lastChange = "2019-04-28 01:31:10 +0000";
layers = (
{
layerId = "D86F237C-A043-4FD6-9305-0CC5F899F330";
paths = (
{
closed = 1;
nodes = (
"403 -9 OFFCURVE",
"424 1 OFFCURVE",
"428 4 CURVE",
"420 26 LINE",
"414 21 OFFCURVE",
"356 -9 OFFCURVE",
"356 67 CURVE SMOOTH",
"356 282 LINE SMOOTH",
"356 363 OFFCURVE",
"283 404 OFFCURVE",
"209 404 CURVE SMOOTH",
"138 404 OFFCURVE",
"64 365 OFFCURVE",
"51 286 CURVE",
"78 286 LINE",
"85 349 OFFCURVE",
"148 380 OFFCURVE",
"207 380 CURVE SMOOTH",
"270 380 OFFCURVE",
"329 345 OFFCURVE",
"329 282 CURVE SMOOTH",
"329 67 LINE SMOOTH",
"329 7 OFFCURVE",
"356 -8 OFFCURVE",
"381 -9 CURVE"
);
},
{
closed = 1;
nodes = (
"232 -9 OFFCURVE",
"303 55 OFFCURVE",
"335 162 CURVE",
"329 282 LINE",
"329 253 OFFCURVE",
"311 245 OFFCURVE",
"221 226 CURVE SMOOTH",
"135 207 OFFCURVE",
"32 188 OFFCURVE",
"32 93 CURVE SMOOTH",
"32 31 OFFCURVE",
"77 -9 OFFCURVE",
"145 -9 CURVE SMOOTH"
);
},
{
closed = 1;
nodes = (
"90 18 OFFCURVE",
"59 48 OFFCURVE",
"59 94 CURVE SMOOTH",
"59 167 OFFCURVE",
"136 183 OFFCURVE",
"227 203 CURVE SMOOTH",
"271 213 OFFCURVE",
"308 220 OFFCURVE",
"326 234 CURVE",
"326 116 OFFCURVE",
"251 18 OFFCURVE",
"147 18 CURVE SMOOTH"
);
},
{
closed = 1;
nodes = (
"430 -199 OFFCURVE",
"452 -156 OFFCURVE",
"452 -156 CURVE",
"430 -141 LINE",
"430 -141 OFFCURVE",
"421 -175 OFFCURVE",
"380 -175 CURVE",
"346 -175 OFFCURVE",
"328 -153 OFFCURVE",
"328 -124 CURVE",
"328 -50 OFFCURVE",
"430 -1 OFFCURVE",
"430 -1 CURVE",
"425 12 LINE",
"425 12 OFFCURVE",
"304 -38 OFFCURVE",
"304 -124 CURVE",
"304 -166 OFFCURVE",
"331 -199 OFFCURVE",
"380 -199 CURVE"
);
}
);
width = 447;
},
{
layerId = "F5474A38-5AEA-454E-84E5-A62166EBBEA7";
paths = (
{
closed = 1;
nodes = (
"445 -10 OFFCURVE",
"472 22 OFFCURVE",
"472 21 CURVE",
"473 96 LINE",
"417 70 OFFCURVE",
"419 117 OFFCURVE",
"419 147 CURVE",
"419 261 LINE SMOOTH",
"419 374 OFFCURVE",
"327 416 OFFCURVE",
"233 416 CURVE SMOOTH",
"136 416 OFFCURVE",
"42 371 OFFCURVE",
"42 241 CURVE",
"172 241 LINE",
"164 299 OFFCURVE",
"202 315 OFFCURVE",
"232 315 CURVE SMOOTH",
"260 315 OFFCURVE",
"280 300 OFFCURVE",
"280 279 CURVE SMOOTH",
"280 94 LINE",
"280 74 OFFCURVE",
"275 -10 OFFCURVE",
"380 -10 CURVE SMOOTH"
);
},
{
closed = 1;
nodes = (
"222 -10 OFFCURVE",
"262 44 OFFCURVE",
"281 110 CURVE",
"280 279 LINE",
"280 252 OFFCURVE",
"266 244 OFFCURVE",
"180 225 CURVE",
"96 206 OFFCURVE",
"16 184 OFFCURVE",
"16 97 CURVE SMOOTH",
"16 35 OFFCURVE",
"65 -10 OFFCURVE",
"144 -10 CURVE SMOOTH"
);
},
{
closed = 1;
nodes = (
"187 85 OFFCURVE",
"160 90 OFFCURVE",
"157 117 CURVE",
"150 151 OFFCURVE",
"189 179 OFFCURVE",
"224 192 CURVE SMOOTH",
"240 198 OFFCURVE",
"273 208 OFFCURVE",
"281 217 CURVE",
"281 155 OFFCURVE",
"239 93 OFFCURVE",
"201 87 CURVE SMOOTH"
);
},
{
closed = 1;
nodes = (
"499 -199 OFFCURVE",
"538 -139 OFFCURVE",
"538 -139 CURVE",
"467 -75 LINE",
"467 -75 OFFCURVE",
"450 -101 OFFCURVE",
"427 -101 CURVE",
"412 -101 OFFCURVE",
"402 -93 OFFCURVE",
"402 -79 CURVE SMOOTH",
"402 -40 OFFCURVE",
"472 -19 OFFCURVE",
"472 -19 CURVE",
"472 43 LINE",
"472 43 OFFCURVE",
"302 1 OFFCURVE",
"302 -104 CURVE",
"302 -176 OFFCURVE",
"365 -199 OFFCURVE",
"414 -199 CURVE"
);
}
);
width = 513;
}
);
leftKerningGroup = a;
rightKerningGroup = a;
},
{
glyphname = f.ss01;
lastChange = "2019-01-14 08:14:39 +0000";
layers = (
{
layerId = "D86F237C-A043-4FD6-9305-0CC5F899F330";
paths = (
{
closed = 1;
nodes = (
"256 343 LINE",
"31 343 LINE",
"31 317 LINE",
"117 317 LINE",
"117 0 LINE",
"143 0 LINE",
"143 317 LINE",
"256 317 LINE"
);
},
{
closed = 1;
nodes = (
"256 343 LINE",
"135 338 OFFCURVE",
"54 377 OFFCURVE",
"54 452 CURVE",
"54 500 OFFCURVE",
"99 536 OFFCURVE",
"160 536 CURVE",
"263 536 OFFCURVE",
"286 446 OFFCURVE",
"287 442 CURVE",
"313 442 LINE",
"294 514 OFFCURVE",
"229 563 OFFCURVE",
"160 563 CURVE",
"84 563 OFFCURVE",
"28 515 OFFCURVE",
"28 452 CURVE",
"28 384 OFFCURVE",
"94 343 OFFCURVE",
"152 343 CURVE SMOOTH"
);
}
);
width = 301;
},
{
layerId = "F5474A38-5AEA-454E-84E5-A62166EBBEA7";
paths = (
{
closed = 1;
nodes = (
"321 343 LINE",
"26 343 LINE",
"26 237 LINE",
"100 237 LINE",
"99 0 LINE",
"238 0 LINE",
"239 237 LINE",
"321 237 LINE"
);
},
{
closed = 1;
nodes = (
"321 343 LINE",
"146 338 OFFCURVE",
"135 379 OFFCURVE",
"135 411 CURVE",
"135 419 OFFCURVE",
"142 448 OFFCURVE",
"178 448 CURVE",
"215 448 OFFCURVE",
"229 432 OFFCURVE",
"228 408 CURVE",
"364 408 LINE",
"365 474 OFFCURVE",
"309 563 OFFCURVE",
"178 563 CURVE",
"90 563 OFFCURVE",
"15 515 OFFCURVE",
"15 452 CURVE",
"15 361 OFFCURVE",
"110 336 OFFCURVE",
"180 338 CURVE SMOOTH"
);
}
);
width = 362;
}
);
},
{
glyphname = g.ss01;
lastChange = "2019-04-28 01:32:06 +0000";
layers = (
{
guideLines = (
{
position = "{415, 6}";
}
);
layerId = "D86F237C-A043-4FD6-9305-0CC5F899F330";
paths = (
{
closed = 1;
nodes = (
"87 122 OFFCURVE",
"140 119 OFFCURVE",
"220 119 CURVE",
"333 119 OFFCURVE",
"384 187 OFFCURVE",
"384 260 CURVE",
"384 321 OFFCURVE",
"348 372 OFFCURVE",
"299 390 CURVE",
"310 395 OFFCURVE",
"342 407 OFFCURVE",
"342 448 CURVE",
"342 505 OFFCURVE",
"278 514 OFFCURVE",
"229 501 CURVE",
"235 476 LINE",
"280 490 OFFCURVE",
"316 483 OFFCURVE",
"316 447 CURVE",
"316 395 OFFCURVE",
"268 404 OFFCURVE",
"220 404 CURVE",
"117 404 OFFCURVE",
"56 348 OFFCURVE",
"56 260 CURVE",
"56 199 OFFCURVE",
"84 148 OFFCURVE",
"156 132 CURVE",
"118 132 OFFCURVE",
"60 123 OFFCURVE",
"60 71 CURVE",
"60 29 OFFCURVE",
"86 11 OFFCURVE",
"122 2 CURVE",
"61 2 OFFCURVE",
"27 -32 OFFCURVE",
"25 -88 CURVE SMOOTH",
"22 -170 OFFCURVE",
"109 -197 OFFCURVE",
"217 -195 CURVE SMOOTH",
"309 -193 OFFCURVE",
"412 -169 OFFCURVE",
"412 -86 CURVE SMOOTH",
"412 10 OFFCURVE",
"308 15 OFFCURVE",
"218 16 CURVE SMOOTH",
"148 17 OFFCURVE",
"87 14 OFFCURVE",
"87 71 CURVE"
);
},
{
closed = 1;
nodes = (
"83 323 OFFCURVE",
"117 378 OFFCURVE",
"219 378 CURVE",
"316 378 OFFCURVE",
"355 328 OFFCURVE",
"355 260 CURVE",
"355 182 OFFCURVE",
"307 146 OFFCURVE",
"220 146 CURVE",
"158 146 OFFCURVE",
"83 167 OFFCURVE",
"83 260 CURVE"
);
},
{
closed = 1;
nodes = (
"130 -170 OFFCURVE",
"53 -155 OFFCURVE",
"53 -89 CURVE",
"53 -15 OFFCURVE",
"125 -9 OFFCURVE",
"217 -9 CURVE",
"309 -9 OFFCURVE",
"382 -21 OFFCURVE",
"382 -89 CURVE",
"382 -147 OFFCURVE",
"307 -170 OFFCURVE",
"217 -170 CURVE"
);
}
);
width = 455;
},
{
guideLines = (
{
position = "{183, 258}";
},
{
position = "{312, -91}";
},
{
angle = 90;
position = "{232, 132}";
},
{
angle = 90;
position = "{289, 132}";
},
{
angle = 90;
position = "{175, 132}";
},
{
angle = 90;
position = "{232, 132}";
}
);
layerId = "F5474A38-5AEA-454E-84E5-A62166EBBEA7";
paths = (
{
closed = 1;
nodes = (
"165 125 OFFCURVE",
"223 118 OFFCURVE",
"231 118 CURVE",
"368 118 OFFCURVE",
"432 178 OFFCURVE",
"432 256 CURVE",
"432 320 OFFCURVE",
"388 378 OFFCURVE",
"329 396 CURVE",
"331 396 OFFCURVE",
"406 404 OFFCURVE",
"406 462 CURVE",
"406 518 OFFCURVE",
"326 559 OFFCURVE",
"245 531 CURVE",
"263 442 LINE",
"308 462 OFFCURVE",
"342 452 OFFCURVE",
"342 433 CURVE",
"342 413 OFFCURVE",
"287 417 OFFCURVE",
"234 417 CURVE",
"110 417 OFFCURVE",
"36 353 OFFCURVE",
"36 256 CURVE",
"36 200 OFFCURVE",
"75 143 OFFCURVE",
"157 132 CURVE",
"111 132 OFFCURVE",
"60 113 OFFCURVE",
"60 80 CURVE",
"60 55 OFFCURVE",
"91 31 OFFCURVE",
"130 33 CURVE",
"50 33 OFFCURVE",
"10 -22 OFFCURVE",
"10 -74 CURVE SMOOTH",
"10 -157 OFFCURVE",
"85 -200 OFFCURVE",
"231 -200 CURVE SMOOTH",
"364 -200 OFFCURVE",
"456 -156 OFFCURVE",
"456 -66 CURVE SMOOTH",
"456 55 OFFCURVE",
"328 75 OFFCURVE",
"232 75 CURVE SMOOTH",
"211 75 OFFCURVE",
"165 69 OFFCURVE",
"165 95 CURVE"
);
},
{
closed = 1;
nodes = (
"179 302 OFFCURVE",
"190 332 OFFCURVE",
"233 332 CURVE",
"272 332 OFFCURVE",
"285 302 OFFCURVE",
"285 261 CURVE",
"285 225 OFFCURVE",
"274 196 OFFCURVE",
"233 196 CURVE",
"184 196 OFFCURVE",
"179 226 OFFCURVE",
"179 261 CURVE"
);
},
{
closed = 1;
nodes = (
"188 -97 OFFCURVE",
"146 -89 OFFCURVE",
"146 -46 CURVE",
"146 -15 OFFCURVE",
"184 1 OFFCURVE",
"232 1 CURVE",
"285 1 OFFCURVE",
"321 -17 OFFCURVE",
"321 -46 CURVE",
"321 -91 OFFCURVE",
"282 -97 OFFCURVE",
"232 -97 CURVE"
);
}
);
width = 474;
}
);
leftKerningGroup = g;
rightKerningGroup = g;
},
{
glyphname = gcommaaccent.ss01;
lastChange = "2019-04-28 01:32:11 +0000";
layers = (
{
components = (
{
name = g.ss01;
}
);
layerId = "D86F237C-A043-4FD6-9305-0CC5F899F330";
paths = (
{
closed = 1;
nodes = (
"215 563 LINE",
"266 697 LINE",
"236 697 LINE",
"199 563 LINE"
);
}
);
width = 455;
},
{
components = (
{
name = g.ss01;
}
);
layerId = "F5474A38-5AEA-454E-84E5-A62166EBBEA7";
paths = (
{
closed = 1;
nodes = (
"264 600 LINE",
"340 774 LINE",
"210 774 LINE",
"183 600 LINE"
);
}
);
width = 476;
}
);
leftKerningGroup = g;
rightKerningGroup = g;
},
{
glyphname = lcaron.ss01;
lastChange = "2019-04-28 01:29:00 +0000";
layers = (
{
components = (
{
alignment = -1;
name = l;
}
);
guideLines = (
{
angle = 90;
position = "{124, 441}";
},
{
angle = 90;
position = "{81, 441}";
}
);
layerId = "D86F237C-A043-4FD6-9305-0CC5F899F330";
paths = (
{
closed = 1;
nodes = (
"140 441 LINE",
"191 575 LINE",
"161 575 LINE",
"124 441 LINE"
);
}
);
width = 201;
},
{
components = (
{
alignment = -1;
name = l;
}
);
guideLines = (
{
angle = 90;
position = "{233, 217}";
},
{
angle = 90;
position = "{181, 217}";
}
);
layerId = "F5474A38-5AEA-454E-84E5-A62166EBBEA7";
paths = (
{
closed = 1;
nodes = (
"314 389 LINE",
"390 563 LINE",
"260 563 LINE",
"233 389 LINE"
);
}
);
width = 315;
}
);
leftKerningGroup = l;
rightKerningGroup = l;
},
{
glyphname = x.ss01;
lastChange = "2019-01-11 02:10:24 +0000";
layers = (
{
guideLines = (
{
position = "{149, 91}";
},
{
position = "{149, 351}";
},
{
position = "{149, 223}";
}
);
layerId = "D86F237C-A043-4FD6-9305-0CC5F899F330";
paths = (
{
closed = 1;
nodes = (
"267 148 LINE",
"286 167 LINE",
"74 379 LINE",
"55 360 LINE"
);
},
{
closed = 1;
nodes = (
"74 149 LINE",
"285 361 LINE",
"267 379 LINE",
"55 168 LINE"
);
}
);
width = 341;
},
{
guideLines = (
{
angle = 90;
position = "{51, 215}";
},
{
position = "{124, 76}";
},
{
position = "{124, 376}";
},
{
position = "{124, 225}";
}
);
layerId = "F5474A38-5AEA-454E-84E5-A62166EBBEA7";
paths = (
{
closed = 1;
nodes = (
"267 124 LINE",
"334 191 LINE",
"121 403 LINE",
"55 336 LINE"
);
},
{
closed = 1;
nodes = (
"123 124 LINE",
"335 336 LINE",
"269 403 LINE",
"56 191 LINE"
);
}
);
width = 390;
}
);
},
{
glyphname = N_o.dlig;
lastChange = "2019-01-10 15:05:56 +0000";
layers = (
{
components = (
{
name = N;
}
);
layerId = "D86F237C-A043-4FD6-9305-0CC5F899F330";
paths = (
{
closed = 1;
nodes = (
"767 313 OFFCURVE",
"801 369 OFFCURVE",
"801 442 CURVE",
"801 521 OFFCURVE",
"763 573 OFFCURVE",
"693 573 CURVE",
"620 573 OFFCURVE",
"584 519 OFFCURVE",
"584 442 CURVE",
"584 367 OFFCURVE",
"620 313 OFFCURVE",
"693 313 CURVE"
);
},
{
closed = 1;
nodes = (
"630 337 OFFCURVE",
"611 392 OFFCURVE",
"611 443 CURVE",
"611 494 OFFCURVE",
"630 549 OFFCURVE",
"693 549 CURVE",
"756 549 OFFCURVE",
"774 494 OFFCURVE",
"774 443 CURVE",
"774 392 OFFCURVE",
"756 337 OFFCURVE",
"693 337 CURVE"
);
},
{
closed = 1;
nodes = (
"802 222 LINE",
"802 248 LINE",
"582 248 LINE",
"582 222 LINE"
);
}
);
width = 867;
},
{
components = (
{
name = N;
}
);
layerId = "F5474A38-5AEA-454E-84E5-A62166EBBEA7";
paths = (
{
closed = 1;
nodes = (
"821 341 OFFCURVE",
"858 389 OFFCURVE",
"858 451 CURVE",
"858 517 OFFCURVE",
"818 561 OFFCURVE",
"740 561 CURVE",
"659 560 OFFCURVE",
"619 513 OFFCURVE",
"621 451 CURVE",
"621 387 OFFCURVE",
"660 341 OFFCURVE",
"740 341 CURVE"
);
},
{
closed = 1;
nodes = (
"718 422 OFFCURVE",
"710 434 OFFCURVE",
"710 452 CURVE",
"710 466 OFFCURVE",
"718 481 OFFCURVE",
"740 481 CURVE",
"757 481 OFFCURVE",
"768 466 OFFCURVE",
"768 452 CURVE",
"768 434 OFFCURVE",
"757 422 OFFCURVE",
"740 422 CURVE"
);
},
{
closed = 1;
nodes = (
"859 192 LINE",
"859 286 LINE",
"619 286 LINE",
"619 192 LINE"
);
}
);
width = 919;
}
);
leftMetricsKey = N;
},
{
glyphname = f_f.dlig;
lastChange = "2019-04-30 15:18:23 +0000";
layers = (
{
layerId = "D86F237C-A043-4FD6-9305-0CC5F899F330";
paths = (
{
closed = 1;
nodes = (
"108 -4 LINE",
"108 538 LINE",
"247 538 LINE",
"247 563 LINE",
"114 563 LINE",
"80 563 OFFCURVE",
"80 536 OFFCURVE",
"80 516 CURVE SMOOTH",
"80 -4 LINE"
);
},
{
closed = 1;
nodes = (
"237 379 LINE",
"237 404 LINE",
"10 404 LINE",
"10 379 LINE"
);
},
{
closed = 1;
nodes = (
"346 -4 LINE",
"346 538 LINE",
"485 538 LINE",
"485 563 LINE",
"352 563 LINE",
"318 563 OFFCURVE",
"318 536 OFFCURVE",
"318 516 CURVE SMOOTH",
"318 -4 LINE"
);
},
{
closed = 1;
nodes = (
"475 379 LINE",
"475 404 LINE",
"237 404 LINE",
"237 379 LINE"
);
}
);
width = 485;
},
{
layerId = "F5474A38-5AEA-454E-84E5-A62166EBBEA7";
paths = (
{
closed = 1;
nodes = (
"208 0 LINE",
"208 482 LINE",
"295 482 LINE",
"295 589 LINE",
"199 589 LINE SMOOTH",
"119 589 OFFCURVE",
"69 558 OFFCURVE",
"69 459 CURVE SMOOTH",
"69 0 LINE"
);
},
{
closed = 1;
nodes = (
"295 319 LINE",
"295 414 LINE",
"20 414 LINE",
"20 319 LINE"
);
},
{
closed = 1;
nodes = (
"498 0 LINE",
"498 482 LINE",
"585 482 LINE",
"585 589 LINE",
"489 589 LINE SMOOTH",
"409 589 OFFCURVE",
"359 558 OFFCURVE",
"359 459 CURVE SMOOTH",
"359 0 LINE"
);
},
{
closed = 1;
nodes = (
"585 319 LINE",
"585 414 LINE",
"295 414 LINE",
"295 319 LINE"
);
}
);
width = 599;
}
);
leftKerningGroup = f;
rightKerningGroup = f;
},
{
glyphname = f_i.dlig;
lastChange = "2019-04-30 15:13:37 +0000";
layers = (
{
guideLines = (
{
position = "{554, 317}";
},
{
angle = 90;
position = "{330, 154}";
},
{
angle = 90;
position = "{143, 154}";
}
);
layerId = "D86F237C-A043-4FD6-9305-0CC5F899F330";
paths = (
{
closed = 1;
nodes = (
"108 -4 LINE",
"108 538 LINE",
"247 538 LINE",
"247 563 LINE",
"114 563 LINE",
"80 563 OFFCURVE",
"80 536 OFFCURVE",
"80 516 CURVE SMOOTH",
"80 -4 LINE"
);
},
{
closed = 1;
nodes = (
"320 379 LINE",
"320 404 LINE",
"10 404 LINE",
"10 379 LINE"
);
},
{
closed = 1;
nodes = (
"321 0 LINE",
"321 404 LINE",
"320 404 OFFCURVE",
"295 404 OFFCURVE",
"295 404 CURVE",
"295 0 LINE"
);
}
);
width = 373;
},
{
guideLines = (
{
angle = 90;
position = "{412, 145}";
},
{
angle = 90;
position = "{239, 154}";
}
);
layerId = "F5474A38-5AEA-454E-84E5-A62166EBBEA7";
paths = (
{
closed = 1;
nodes = (
"208 0 LINE",
"208 482 LINE",
"295 482 LINE",
"295 589 LINE",
"199 589 LINE SMOOTH",
"119 589 OFFCURVE",
"69 558 OFFCURVE",
"69 459 CURVE SMOOTH",
"69 0 LINE"
);
},
{
closed = 1;
nodes = (
"363 319 LINE",
"363 414 LINE",
"20 414 LINE",
"20 319 LINE"
);
},
{
closed = 1;
nodes = (
"492 0 LINE",
"492 414 LINE",
"491 414 OFFCURVE",
"354 414 OFFCURVE",
"352 414 CURVE",
"352 0 LINE"
);
}
);
width = 540;
}
);
},
{
glyphname = f_t.dlig;
lastChange = "2019-04-30 15:18:39 +0000";
layers = (
{
guideLines = (
{
position = "{348, 343}";
},
{
position = "{39, 509}";
},
{
angle = 90;
position = "{363, 154}";
},
{
angle = 90;
position = "{143, 154}";
}
);
layerId = "D86F237C-A043-4FD6-9305-0CC5F899F330";
paths = (
{
closed = 1;
nodes = (
"108 -4 LINE",
"108 538 LINE",
"247 538 LINE",
"247 563 LINE",
"114 563 LINE",
"80 563 OFFCURVE",
"80 536 OFFCURVE",
"80 516 CURVE SMOOTH",
"80 -4 LINE"
);
},
{
closed = 1;
nodes = (
"237 379 LINE",
"237 404 LINE",
"10 404 LINE",
"10 379 LINE"
);
},
{
closed = 1;
nodes = (
"426 0 LINE",
"426 25 LINE",
"331 25 LINE",
"331 386 LINE",
"304 386 LINE",
"304 47 LINE SMOOTH",
"304 27 OFFCURVE",
"304 0 OFFCURVE",
"338 0 CURVE"
);
},
{
closed = 1;
nodes = (
"426 379 LINE",
"426 404 LINE",
"331 404 LINE",
"331 509 LINE",
"304 509 LINE",
"304 404 OFFCURVE",
"311 404 OFFCURVE",
"236 404 CURVE",
"236 379 LINE"
);
}
);
width = 476;
},
{
guideLines = (
{
position = "{359, 344}";
},
{
position = "{749, 237}";
},
{
position = "{749, 522}";
},
{
angle = 90;
position = "{435, 145}";
},
{
angle = 90;
position = "{239, 154}";
}
);
layerId = "F5474A38-5AEA-454E-84E5-A62166EBBEA7";
paths = (
{
closed = 1;
nodes = (
"208 0 LINE",
"208 482 LINE",
"295 482 LINE",
"295 589 LINE",
"199 589 LINE SMOOTH",
"119 589 OFFCURVE",
"69 558 OFFCURVE",
"69 459 CURVE SMOOTH",
"69 0 LINE"
);
},
{
closed = 1;
nodes = (
"295 319 LINE",
"295 414 LINE",
"20 414 LINE",
"20 319 LINE"
);
},
{
closed = 1;
nodes = (
"579 0 LINE",
"579 107 LINE",
"483 107 LINE",
"483 332 LINE",
"353 332 LINE",
"353 130 LINE SMOOTH",
"353 31 OFFCURVE",
"403 0 OFFCURVE",
"483 0 CURVE"
);
},
{
closed = 1;
nodes = (
"576 319 LINE",
"576 414 LINE",
"483 414 LINE",
"483 519 LINE",
"373 519 LINE",
"373 426 OFFCURVE",
"342 414 OFFCURVE",
"295 414 CURVE",
"295 319 LINE"
);
}
);
width = 614;
}
);
},
{
glyphname = t_t.dlig;
lastChange = "2019-04-30 15:18:51 +0000";
layers = (
{
layerId = "D86F237C-A043-4FD6-9305-0CC5F899F330";
paths = (
{
closed = 1;
nodes = (
"197 0 LINE",
"197 25 LINE",
"102 25 LINE",
"102 386 LINE",
"75 386 LINE",
"75 47 LINE SMOOTH",
"75 27 OFFCURVE",
"75 0 OFFCURVE",
"109 0 CURVE"
);
},
{
closed = 1;
nodes = (
"211 379 LINE",
"211 404 LINE",
"102 404 LINE",
"102 509 LINE",
"75 509 LINE",
"75 404 OFFCURVE",
"82 404 OFFCURVE",
"7 404 CURVE",
"7 379 LINE"
);
},
{
closed = 1;
nodes = (
"401 0 LINE",
"401 25 LINE",
"306 25 LINE",
"306 386 LINE",
"279 386 LINE",
"279 47 LINE SMOOTH",
"279 27 OFFCURVE",
"279 0 OFFCURVE",
"313 0 CURVE"
);
},
{
closed = 1;
nodes = (
"401 379 LINE",
"401 404 LINE",
"306 404 LINE",
"306 509 LINE",
"279 509 LINE",
"279 404 OFFCURVE",
"286 404 OFFCURVE",
"211 404 CURVE",
"211 379 LINE"
);
}
);
width = 451;
},
{
layerId = "F5474A38-5AEA-454E-84E5-A62166EBBEA7";
paths = (
{
closed = 1;
nodes = (
"299 0 LINE",
"299 107 LINE",
"203 107 LINE",
"203 332 LINE",
"73 332 LINE",
"73 130 LINE SMOOTH",
"73 31 OFFCURVE",
"123 0 OFFCURVE",
"203 0 CURVE"
);
},
{
closed = 1;
nodes = (
"324 319 LINE",
"324 414 LINE",
"203 414 LINE",
"203 519 LINE",
"93 519 LINE",
"93 426 OFFCURVE",
"62 414 OFFCURVE",
"15 414 CURVE",
"15 319 LINE"
);
},
{
closed = 1;
nodes = (
"608 0 LINE",
"608 107 LINE",
"512 107 LINE",
"512 332 LINE",
"382 332 LINE",
"382 130 LINE SMOOTH",
"382 31 OFFCURVE",
"432 0 OFFCURVE",
"512 0 CURVE"
);
},
{
closed = 1;
nodes = (
"605 319 LINE",
"605 414 LINE",
"512 414 LINE",
"512 519 LINE",
"402 519 LINE",
"402 426 OFFCURVE",
"371 414 OFFCURVE",
"324 414 CURVE",
"324 319 LINE"
);
}
);
width = 643;
}
);
leftMetricsKey = t;
},
{
glyphname = ordfeminine;
lastChange = "2019-06-18 04:46:19 +0000";
layers = (
{
layerId = "D86F237C-A043-4FD6-9305-0CC5F899F330";
paths = (
{
closed = 1;
nodes = (
"166 401 OFFCURVE",
"196 425 OFFCURVE",
"211 461 CURVE",
"213 461 LINE",
"216 406 LINE",
"228 406 LINE",
"228 651 LINE",
"212 651 LINE",
"211 595 LINE",
"196 631 OFFCURVE",
"166 654 OFFCURVE",
"122 654 CURVE SMOOTH",
"56 654 OFFCURVE",
"19 600 OFFCURVE",
"19 527 CURVE SMOOTH",
"19 458 OFFCURVE",
"54 401 OFFCURVE",
"122 401 CURVE SMOOTH"
);
},
{
closed = 1;
nodes = (
"69 418 OFFCURVE",
"36 461 OFFCURVE",
"36 527 CURVE SMOOTH",
"36 591 OFFCURVE",
"67 637 OFFCURVE",
"127 637 CURVE SMOOTH",
"179 637 OFFCURVE",
"211 602 OFFCURVE",
"211 527 CURVE SMOOTH",
"211 457 OFFCURVE",
"182 418 OFFCURVE",
"127 418 CURVE SMOOTH"
);
}
);
width = 243;
},
{
layerId = "F5474A38-5AEA-454E-84E5-A62166EBBEA7";
paths = (
{
closed = 1;
nodes = (
"203 406 OFFCURVE",
"222 450 OFFCURVE",
"221 450 CURVE",
"222 450 LINE",
"237 413 LINE",
"321 413 LINE",
"321 695 LINE",
"222 695 LINE",
"221 643 LINE SMOOTH",
"221 642 OFFCURVE",
"206 695 OFFCURVE",
"132 695 CURVE SMOOTH",
"55 695 OFFCURVE",
"30 637 OFFCURVE",
"30 549 CURVE SMOOTH",
"30 460 OFFCURVE",
"55 406 OFFCURVE",
"132 406 CURVE SMOOTH"
);
},
{
closed = 1;
nodes = (
"126 485 OFFCURVE",
"122 516 OFFCURVE",
"122 548 CURVE SMOOTH",
"122 580 OFFCURVE",
"126 612 OFFCURVE",
"172 612 CURVE SMOOTH",
"218 612 OFFCURVE",
"222 581 OFFCURVE",
"222 548 CURVE SMOOTH",
"222 516 OFFCURVE",
"218 485 OFFCURVE",
"172 485 CURVE SMOOTH"
);
}
);
width = 350;
}
);
unicode = 00AA;
},
{
glyphname = ordmasculine;
lastChange = "2019-06-18 05:54:58 +0000";
layers = (
{
layerId = "D86F237C-A043-4FD6-9305-0CC5F899F330";
paths = (
{
closed = 1;
nodes = (
"225 404 OFFCURVE",
"265 464 OFFCURVE",
"265 544 CURVE",
"265 629 OFFCURVE",
"221 686 OFFCURVE",
"141 686 CURVE",
"57 686 OFFCURVE",
"15 627 OFFCURVE",
"15 544 CURVE",
"15 462 OFFCURVE",
"57 404 OFFCURVE",
"141 404 CURVE"
);
},
{
closed = 1;
nodes = (
"59 421 OFFCURVE",
"34 485 OFFCURVE",
"34 544 CURVE",
"34 604 OFFCURVE",
"59 668 OFFCURVE",
"141 668 CURVE",
"221 668 OFFCURVE",
"246 604 OFFCURVE",
"246 544 CURVE",
"246 485 OFFCURVE",
"221 421 OFFCURVE",
"141 421 CURVE"
);
}
);
width = 280;
},
{
layerId = "F5474A38-5AEA-454E-84E5-A62166EBBEA7";
paths = (
{
closed = 1;
nodes = (
"270 415 OFFCURVE",
"317 478 OFFCURVE",
"317 563 CURVE",
"317 650 OFFCURVE",
"265 708 OFFCURVE",
"166 708 CURVE",
"64 707 OFFCURVE",
"14 647 OFFCURVE",
"15 563 CURVE",
"15 476 OFFCURVE",
"64 415 OFFCURVE",
"166 415 CURVE"
);
},
{
closed = 1;
nodes = (
"114 495 OFFCURVE",
"107 532 OFFCURVE",
"107 565 CURVE",
"107 599 OFFCURVE",
"114 637 OFFCURVE",
"166 637 CURVE",
"217 637 OFFCURVE",
"225 599 OFFCURVE",
"225 565 CURVE",
"225 532 OFFCURVE",
"217 495 OFFCURVE",
"166 495 CURVE"
);
}
);
width = 332;
}
);
unicode = 00BA;
},
{
glyphname = zero;
lastChange = "2019-01-09 09:20:17 +0000";
layers = (
{
guideLines = (
{
position = "{359, 549}";
},
{
position = "{359, 573}";
},
{
angle = 90;
position = "{457, 213}";
},
{
angle = 90;
position = "{430, 213}";
}
);
layerId = "D86F237C-A043-4FD6-9305-0CC5F899F330";
paths = (
{
closed = 1;
nodes = (
"391 -14 OFFCURVE",
"457 106 OFFCURVE",
"457 280 CURVE",
"457 458 OFFCURVE",
"391 573 OFFCURVE",
"241 573 CURVE",
"88 573 OFFCURVE",
"25 457 OFFCURVE",
"25 280 CURVE",
"25 100 OFFCURVE",
"92 -14 OFFCURVE",
"241 -14 CURVE"
);
},
{
closed = 1;
nodes = (
"107 10 OFFCURVE",
"52 117 OFFCURVE",
"52 280 CURVE",
"52 450 OFFCURVE",
"111 549 OFFCURVE",
"241 549 CURVE",
"375 549 OFFCURVE",
"430 443 OFFCURVE",
"430 280 CURVE",
"430 116 OFFCURVE",
"372 10 OFFCURVE",
"241 10 CURVE"
);
}
);
width = 482;
},
{
guideLines = (
{
position = "{505, 106}";
},
{
position = "{433, -14}";
},
{
position = "{505, 573}";
},
{
position = "{433, 453}";
},
{
angle = 90;
position = "{42, 628}";
},
{
angle = 90;
position = "{166, 171}";
},
{
angle = 90;
position = "{410, 628}";
},
{
angle = 90;
position = "{534, 171}";
}
);
layerId = "F5474A38-5AEA-454E-84E5-A62166EBBEA7";
paths = (
{
closed = 1;
nodes = (
"464 -14 OFFCURVE",
"546 106 OFFCURVE",
"546 280 CURVE",
"546 458 OFFCURVE",
"464 573 OFFCURVE",
"288 573 CURVE",
"109 573 OFFCURVE",
"30 457 OFFCURVE",
"30 280 CURVE",
"30 100 OFFCURVE",
"114 -14 OFFCURVE",
"288 -14 CURVE"
);
},
{
closed = 1;
nodes = (
"198 101 OFFCURVE",
"159 158 OFFCURVE",
"159 280 CURVE",
"159 406 OFFCURVE",
"200 458 OFFCURVE",
"287 458 CURVE",
"377 458 OFFCURVE",
"417 402 OFFCURVE",
"417 280 CURVE",
"417 157 OFFCURVE",
"376 101 OFFCURVE",
"287 101 CURVE"
);
}
);
width = 576;
}
);
unicode = 0030;
},
{
glyphname = one;
lastChange = "2019-05-21 02:32:39 +0000";
layers = (
{
guideLines = (
{
position = "{335, -14}";
},
{
position = "{210, 225}";
}
);
layerId = "D86F237C-A043-4FD6-9305-0CC5F899F330";
paths = (
{
closed = 1;
nodes = (
"165 25 LINE",
"165 563 LINE",
"141 563 LINE",
"141 463 OFFCURVE",
"34 437 OFFCURVE",
"20 437 CURVE",
"20 413 LINE",
"34 413 OFFCURVE",
"109 425 OFFCURVE",
"141 493 CURVE",
"141 25 LINE",
"55 25 LINE",
"55 0 LINE",
"248 0 LINE",
"248 25 LINE"
);
}
);
width = 283;
},
{
guideLines = (
{
angle = 90;
position = "{-41, 207}";
},
{
angle = 90;
position = "{227, 44}";
},
{
angle = 90;
position = "{342, 210}";
},
{
position = "{479, 122}";
},
{
angle = 90;
position = "{157, 135}";
},
{
position = "{479, 153}";
},
{
position = "{246, 301}";
},
{
position = "{244, 109}";
}
);
layerId = "F5474A38-5AEA-454E-84E5-A62166EBBEA7";
paths = (
{
closed = 1;
nodes = (
"305 119 LINE",
"305 563 LINE",
"181 563 LINE",
"173 454 OFFCURVE",
"63 461 OFFCURVE",
"45 467 CURVE",
"45 312 LINE",
"59 312 OFFCURVE",
"150 304 OFFCURVE",
"166 414 CURVE",
"166 119 LINE",
"71 119 LINE",
"71 0 LINE",
"379 0 LINE",
"379 119 LINE"
);
}
);
width = 424;
}
);
unicode = 0031;
},
{
glyphname = two;
lastChange = "2019-01-01 19:49:53 +0000";
layers = (
{
layerId = "D86F237C-A043-4FD6-9305-0CC5F899F330";
paths = (
{
closed = 1;
nodes = (
"419 0 LINE",
"419 25 LINE",
"69 25 LINE",
"85 35 OFFCURVE",
"331 229 OFFCURVE",
"385 334 CURVE",
"445 454 OFFCURVE",
"374 563 OFFCURVE",
"230 563 CURVE SMOOTH",
"126 563 OFFCURVE",
"58 503 OFFCURVE",
"53 404 CURVE",
"77 404 LINE",
"82 492 OFFCURVE",
"141 539 OFFCURVE",
"227 541 CURVE SMOOTH",
"351 541 OFFCURVE",
"415 452 OFFCURVE",
"363 345 CURVE",
"300 221 OFFCURVE",
"37 24 OFFCURVE",
"35 22 CURVE",
"35 0 LINE"
);
}
);
width = 464;
},
{
guideLines = (
{
position = "{223, 315}";
},
{
position = "{223, 294}";
}
);
layerId = "F5474A38-5AEA-454E-84E5-A62166EBBEA7";
paths = (
{
closed = 1;
nodes = (
"502 0 LINE",
"502 119 LINE",
"182 119 LINE",
"219 126 OFFCURVE",
"402 171 OFFCURVE",
"472 312 CURVE",
"542 454 OFFCURVE",
"429 573 OFFCURVE",
"285 573 CURVE SMOOTH",
"139 573 OFFCURVE",
"28 481 OFFCURVE",
"53 323 CURVE",
"183 304 LINE",
"162 409 OFFCURVE",
"206 456 OFFCURVE",
"271 456 CURVE SMOOTH",
"329 456 OFFCURVE",
"382 406 OFFCURVE",
"341 321 CURVE",
"278 195 OFFCURVE",
"47 118 OFFCURVE",
"45 116 CURVE",
"45 0 LINE"
);
}
);
width = 547;
}
);
unicode = 0032;
},
{
glyphname = three;
lastChange = "2019-01-01 20:01:46 +0000";
layers = (
{
guideLines = (
{
position = "{379, -10}";
}
);
layerId = "D86F237C-A043-4FD6-9305-0CC5F899F330";
paths = (
{
closed = 1;
nodes = (
"348 -10 OFFCURVE",
"435 55 OFFCURVE",
"435 152 CURVE",
"435 225 OFFCURVE",
"384 272 OFFCURVE",
"330 291 CURVE",
"380 311 OFFCURVE",
"419 343 OFFCURVE",
"419 409 CURVE",
"419 511 OFFCURVE",
"342 573 OFFCURVE",
"232 573 CURVE",
"90 573 OFFCURVE",
"45 455 OFFCURVE",
"42 412 CURVE",
"67 412 LINE",
"73 456 OFFCURVE",
"110 549 OFFCURVE",
"232 549 CURVE",
"329 549 OFFCURVE",
"392 498 OFFCURVE",
"392 409 CURVE",
"392 348 OFFCURVE",
"355 300 OFFCURVE",
"277 300 CURVE",
"183 300 LINE",
"183 281 LINE",
"277 281 LINE",
"312 281 OFFCURVE",
"410 256 OFFCURVE",
"410 151 CURVE",
"410 65 OFFCURVE",
"327 15 OFFCURVE",
"234 15 CURVE",
"153 15 OFFCURVE",
"62 60 OFFCURVE",
"55 171 CURVE",
"30 171 LINE",
"34 49 OFFCURVE",
"141 -10 OFFCURVE",
"234 -10 CURVE"
);
}
);
width = 467;
},
{
guideLines = (
{
position = "{475, -10}";
},
{
angle = 90;
position = "{373, 628}";
},
{
angle = 90;
position = "{400, 628}";
},
{
position = "{252, 326}";
},
{
angle = 90;
position = "{497, 171}";
},
{
position = "{306, 229}";
},
{
position = "{214, 208}";
},
{
position = "{240, 373}";
},
{
position = "{148, 352}";
}
);
layerId = "F5474A38-5AEA-454E-84E5-A62166EBBEA7";
paths = (
{
closed = 1;
nodes = (
"414 -10 OFFCURVE",
"506 49 OFFCURVE",
"506 154 CURVE",
"506 222 OFFCURVE",
"458 279 OFFCURVE",
"379 283 CURVE",
"461 288 OFFCURVE",
"497 349 OFFCURVE",
"497 414 CURVE",
"497 510 OFFCURVE",
"418 573 OFFCURVE",
"271 573 CURVE",
"90 573 OFFCURVE",
"46 422 OFFCURVE",
"46 380 CURVE",
"170 358 LINE",
"170 408 OFFCURVE",
"209 458 OFFCURVE",
"275 458 CURVE",
"335 458 OFFCURVE",
"373 425 OFFCURVE",
"373 378 CURVE",
"373 330 OFFCURVE",
"322 323 OFFCURVE",
"280 323 CURVE",
"224 323 LINE",
"224 252 LINE",
"277 252 LINE",
"334 252 OFFCURVE",
"375 232 OFFCURVE",
"375 187 CURVE",
"375 146 OFFCURVE",
"342 110 OFFCURVE",
"286 110 CURVE",
"209 110 OFFCURVE",
"169 159 OFFCURVE",
"169 232 CURVE",
"35 212 LINE",
"32 64 OFFCURVE",
"129 -10 OFFCURVE",
"283 -10 CURVE"
);
}
);
width = 541;
}
);
unicode = 0033;
},
{
glyphname = four;
lastChange = "2019-01-09 09:21:10 +0000";
layers = (
{
guideLines = (
{
angle = 90;
position = "{240, 382}";
},
{
position = "{306, 398}";
}
);
layerId = "D86F237C-A043-4FD6-9305-0CC5F899F330";
paths = (
{
closed = 1;
nodes = (
"441 128 LINE",
"441 153 LINE",
"57 153 LINE",
"180 241 OFFCURVE",
"290 403 OFFCURVE",
"290 563 CURVE",
"264 563 LINE",
"262 402 OFFCURVE",
"140 212 OFFCURVE",
"20 153 CURVE",
"20 128 LINE"
);
},
{
closed = 1;
nodes = (
"355 0 LINE",
"355 281 LINE",
"329 281 LINE",
"329 0 LINE"
);
}
);
width = 471;
},
{
layerId = "F5474A38-5AEA-454E-84E5-A62166EBBEA7";
paths = (
{
closed = 1;
nodes = (
"511 101 LINE",
"511 220 LINE",
"171 220 LINE",
"317 308 OFFCURVE",
"394 450 OFFCURVE",
"394 563 CURVE",
"242 563 LINE",
"242 452 OFFCURVE",
"180 280 OFFCURVE",
"35 220 CURVE",
"35 101 LINE"
);
},
{
closed = 1;
nodes = (
"448 0 LINE",
"448 281 LINE",
"309 281 LINE",
"309 0 LINE"
);
}
);
width = 551;
}
);
unicode = 0034;
},
{
glyphname = five;
lastChange = "2019-01-01 20:00:21 +0000";
layers = (
{
guideLines = (
{
position = "{419, -10}";
},
{
angle = 90;
position = "{75, 334}";
}
);
layerId = "D86F237C-A043-4FD6-9305-0CC5F899F330";
paths = (
{
closed = 1;
nodes = (
"377 -10 OFFCURVE",
"448 81 OFFCURVE",
"454 175 CURVE SMOOTH",
"460 273 OFFCURVE",
"395 373 OFFCURVE",
"255 373 CURVE",
"140 373 OFFCURVE",
"95 310 OFFCURVE",
"95 310 CURVE",
"119 537 LINE",
"427 537 LINE",
"427 563 LINE",
"94 563 LINE",
"67 282 LINE",
"88 273 LINE",
"89 275 OFFCURVE",
"132 348 OFFCURVE",
"255 348 CURVE",
"377 348 OFFCURVE",
"435 261 OFFCURVE",
"430 176 CURVE SMOOTH",
"426 95 OFFCURVE",
"364 15 OFFCURVE",
"245 15 CURVE",
"99 15 OFFCURVE",
"75 123 OFFCURVE",
"74 128 CURVE",
"46 128 LINE",
"75 29 OFFCURVE",
"153 -10 OFFCURVE",
"245 -10 CURVE"
);
}
);
width = 493;
},
{
guideLines = (
{
position = "{279, 183}";
},
{
position = "{279, 162}";
}
);
layerId = "F5474A38-5AEA-454E-84E5-A62166EBBEA7";
paths = (
{
closed = 1;
nodes = (
"405 -10 OFFCURVE",
"491 88 OFFCURVE",
"499 184 CURVE SMOOTH",
"507 279 OFFCURVE",
"448 373 OFFCURVE",
"316 373 CURVE",
"205 373 OFFCURVE",
"164 291 OFFCURVE",
"164 291 CURVE",
"181 444 LINE",
"472 444 LINE",
"472 563 LINE",
"86 563 LINE",
"54 258 LINE",
"201 236 LINE",
"202 238 OFFCURVE",
"219 282 OFFCURVE",
"273 282 CURVE",
"336 282 OFFCURVE",
"365 232 OFFCURVE",
"360 186 CURVE SMOOTH",
"355 145 OFFCURVE",
"326 106 OFFCURVE",
"273 106 CURVE",
"209 106 OFFCURVE",
"182 159 OFFCURVE",
"178 183 CURVE",
"40 162 LINE",
"49 87 OFFCURVE",
"115 -10 OFFCURVE",
"269 -10 CURVE"
);
}
);
width = 540;
}
);
unicode = 0035;
},
{
glyphname = six;
lastChange = "2019-01-09 07:45:12 +0000";
layers = (
{
guideLines = (
{
position = "{231, -10}";
},
{
position = "{259, 14}";
}
);
layerId = "D86F237C-A043-4FD6-9305-0CC5F899F330";
paths = (
{
closed = 1;
nodes = (
"521 -10 OFFCURVE",
"538 365 OFFCURVE",
"291 370 CURVE",
"153 377 OFFCURVE",
"87 265 OFFCURVE",
"79 186 CURVE",
"51 361 OFFCURVE",
"120 548 OFFCURVE",
"293 548 CURVE",
"382 548 OFFCURVE",
"419 486 OFFCURVE",
"419 486 CURVE",
"443 498 LINE",
"443 498 OFFCURVE",
"402 573 OFFCURVE",
"293 573 CURVE",
"120 573 OFFCURVE",
"48 408 OFFCURVE",
"48 254 CURVE SMOOTH",
"48 117 OFFCURVE",
"106 -10 OFFCURVE",
"265 -10 CURVE"
);
},
{
closed = 1;
nodes = (
"168 14 OFFCURVE",
"106 70 OFFCURVE",
"87 151 CURVE",
"87 243 OFFCURVE",
"153 349 OFFCURVE",
"287 344 CURVE",
"511 332 OFFCURVE",
"484 14 OFFCURVE",
"265 14 CURVE"
);
}
);
width = 507;
},
{
guideLines = (
{
position = "{505, 427}";
},
{
position = "{413, 406}";
},
{
position = "{245, 229}";
},
{
position = "{153, 208}";
}
);
layerId = "F5474A38-5AEA-454E-84E5-A62166EBBEA7";
paths = (
{
closed = 1;
nodes = (
"579 -10 OFFCURVE",
"601 357 OFFCURVE",
"332 357 CURVE",
"212 358 OFFCURVE",
"176 264 OFFCURVE",
"176 262 CURVE",
"163 433 OFFCURVE",
"261 452 OFFCURVE",
"289 452 CURVE",
"361 452 OFFCURVE",
"374 405 OFFCURVE",
"374 405 CURVE",
"513 428 LINE",
"513 428 OFFCURVE",
"487 573 OFFCURVE",
"297 573 CURVE",
"135 573 OFFCURVE",
"41 436 OFFCURVE",
"41 281 CURVE SMOOTH",
"41 117 OFFCURVE",
"124 -10 OFFCURVE",
"288 -10 CURVE"
);
},
{
closed = 1;
nodes = (
"256 105 OFFCURVE",
"204 122 OFFCURVE",
"193 174 CURVE",
"193 229 OFFCURVE",
"240 276 OFFCURVE",
"300 276 CURVE",
"422 273 OFFCURVE",
"421 105 OFFCURVE",
"297 105 CURVE"
);
}
);
width = 566;
}
);
unicode = 0036;
},
{
glyphname = seven;
lastChange = "2019-01-09 09:21:48 +0000";
layers = (
{
layerId = "D86F237C-A043-4FD6-9305-0CC5F899F330";
paths = (
{
closed = 1;
nodes = (
"131 0 LINE",
"131 231 OFFCURVE",
"221 391 OFFCURVE",
"370 539 CURVE",
"35 539 LINE",
"35 563 LINE",
"403 563 LINE",
"403 541 LINE",
"326 466 OFFCURVE",
"158 312 OFFCURVE",
"158 0 CURVE"
);
}
);
width = 438;
},
{
layerId = "F5474A38-5AEA-454E-84E5-A62166EBBEA7";
paths = (
{
closed = 1;
nodes = (
"101 0 LINE",
"101 230 OFFCURVE",
"227 397 OFFCURVE",
"380 442 CURVE",
"49 442 LINE",
"49 563 LINE",
"506 563 LINE",
"506 444 LINE",
"425 415 OFFCURVE",
"240 314 OFFCURVE",
"240 0 CURVE"
);
}
);
width = 551;
}
);
unicode = 0037;
},
{
glyphname = eight;
lastChange = "2018-12-28 19:41:57 +0000";
layers = (
{
guideLines = (
{
position = "{548, -10}";
}
);
layerId = "D86F237C-A043-4FD6-9305-0CC5F899F330";
paths = (
{
closed = 1;
nodes = (
"379 -10 OFFCURVE",
"474 41 OFFCURVE",
"474 150 CURVE",
"474 223 OFFCURVE",
"421 278 OFFCURVE",
"343 298 CURVE",
"422 320 OFFCURVE",
"440 378 OFFCURVE",
"440 422 CURVE",
"440 508 OFFCURVE",
"365 573 OFFCURVE",
"256 573 CURVE",
"151 573 OFFCURVE",
"73 510 OFFCURVE",
"73 422 CURVE",
"73 378 OFFCURVE",
"92 320 OFFCURVE",
"170 298 CURVE",
"93 279 OFFCURVE",
"40 222 OFFCURVE",
"40 150 CURVE",
"40 44 OFFCURVE",
"133 -10 OFFCURVE",
"256 -10 CURVE"
);
},
{
closed = 1;
nodes = (
"138 17 OFFCURVE",
"67 74 OFFCURVE",
"67 155 CURVE",
"67 241 OFFCURVE",
"138 288 OFFCURVE",
"256 288 CURVE",
"375 288 OFFCURVE",
"447 241 OFFCURVE",
"447 155 CURVE",
"447 74 OFFCURVE",
"375 17 OFFCURVE",
"256 17 CURVE"
);
},
{
closed = 1;
nodes = (
"171 307 OFFCURVE",
"98 335 OFFCURVE",
"98 417 CURVE",
"98 494 OFFCURVE",
"163 547 OFFCURVE",
"256 547 CURVE",
"346 547 OFFCURVE",
"414 495 OFFCURVE",
"414 417 CURVE",
"414 338 OFFCURVE",
"349 307 OFFCURVE",
"256 307 CURVE"
);
}
);
width = 519;
},
{
guideLines = (
{
angle = 90;
position = "{104, 52}";
},
{
angle = 90;
position = "{236, 52}";
},
{
angle = 90;
position = "{371, 52}";
},
{
angle = 90;
position = "{503, 52}";
},
{
position = "{479, 573}";
},
{
position = "{407, 453}";
},
{
position = "{423, 573}";
},
{
position = "{271, 298}";
},
{
position = "{350, 330}";
}
);
layerId = "F5474A38-5AEA-454E-84E5-A62166EBBEA7";
paths = (
{
closed = 1;
nodes = (
"432 -11 OFFCURVE",
"541 47 OFFCURVE",
"541 156 CURVE",
"541 233 OFFCURVE",
"488 287 OFFCURVE",
"393 298 CURVE",
"495 312 OFFCURVE",
"508 391 OFFCURVE",
"508 422 CURVE",
"508 511 OFFCURVE",
"424 573 OFFCURVE",
"289 573 CURVE",
"159 573 OFFCURVE",
"72 513 OFFCURVE",
"72 422 CURVE",
"72 391 OFFCURVE",
"86 312 OFFCURVE",
"187 298 CURVE",
"94 289 OFFCURVE",
"40 230 OFFCURVE",
"40 156 CURVE",
"40 50 OFFCURVE",
"147 -11 OFFCURVE",
"289 -11 CURVE"
);
},
{
closed = 1;
nodes = (
"220 95 OFFCURVE",
"175 128 OFFCURVE",
"175 179 CURVE",
"175 240 OFFCURVE",
"220 266 OFFCURVE",
"290 266 CURVE",
"360 266 OFFCURVE",
"405 240 OFFCURVE",
"405 179 CURVE",
"405 128 OFFCURVE",
"360 95 OFFCURVE",
"290 95 CURVE"
);
},
{
closed = 1;
nodes = (
"232 330 OFFCURVE",
"195 355 OFFCURVE",
"195 395 CURVE",
"195 447 OFFCURVE",
"232 468 OFFCURVE",
"289 468 CURVE",
"347 468 OFFCURVE",
"385 447 OFFCURVE",
"385 395 CURVE",
"385 355 OFFCURVE",
"350 330 OFFCURVE",
"289 330 CURVE"
);
}
);
width = 581;
}
);
unicode = 0038;
},
{
glyphname = nine;
lastChange = "2018-12-29 03:43:54 +0000";
layers = (
{
guideLines = (
{
position = "{263, -10}";
}
);
layerId = "D86F237C-A043-4FD6-9305-0CC5F899F330";
paths = (
{
closed = 1;
nodes = (
"408 -10 OFFCURVE",
"452 101 OFFCURVE",
"465 262 CURVE",
"481 433 OFFCURVE",
"410 563 OFFCURVE",
"255 563 CURVE",
"-14 563 OFFCURVE",
"-19 189 OFFCURVE",
"247 189 CURVE",
"361 189 OFFCURVE",
"430 281 OFFCURVE",
"442 361 CURVE",
"450 183 OFFCURVE",
"427 13 OFFCURVE",
"253 13 CURVE",
"134 13 OFFCURVE",
"88 91 OFFCURVE",
"87 93 CURVE",
"65 82 LINE",
"67 79 OFFCURVE",
"117 -10 OFFCURVE",
"253 -10 CURVE"
);
},
{
closed = 1;
nodes = (
"17 213 OFFCURVE",
"19 539 OFFCURVE",
"255 539 CURVE",
"351 539 OFFCURVE",
"412 481 OFFCURVE",
"436 387 CURVE",
"418 288 OFFCURVE",
"358 213 OFFCURVE",
"248 213 CURVE"
);
}
);
width = 512;
},
{
guideLines = (
{
position = "{-41, 165}";
},
{
position = "{709, 316}";
},
{
angle = 90;
position = "{188, 38}";
},
{
angle = 90;
position = "{63, 38}";
}
);
layerId = "F5474A38-5AEA-454E-84E5-A62166EBBEA7";
paths = (
{
closed = 1;
nodes = (
"446 -10 OFFCURVE",
"517 131 OFFCURVE",
"517 286 CURVE SMOOTH",
"517 432 OFFCURVE",
"451 573 OFFCURVE",
"266 573 CURVE",
"-25 573 OFFCURVE",
"-46 205 OFFCURVE",
"222 205 CURVE",
"342 205 OFFCURVE",
"378 301 OFFCURVE",
"378 301 CURVE",
"381 130 OFFCURVE",
"299 115 OFFCURVE",
"265 115 CURVE",
"193 115 OFFCURVE",
"180 162 OFFCURVE",
"180 162 CURVE",
"41 135 LINE",
"41 135 OFFCURVE",
"67 -10 OFFCURVE",
"265 -10 CURVE"
);
},
{
closed = 1;
nodes = (
"135 288 OFFCURVE",
"147 461 OFFCURVE",
"265 461 CURVE",
"306 461 OFFCURVE",
"349 444 OFFCURVE",
"361 387 CURVE",
"361 328 OFFCURVE",
"319 285 OFFCURVE",
"256 285 CURVE"
);
}
);
width = 564;
}
);
unicode = 0039;
},
{
glyphname = zero.subs;
lastChange = "2019-01-11 03:19:23 +0000";
layers = (
{
layerId = "D86F237C-A043-4FD6-9305-0CC5F899F330";
paths = (
{
closed = 1;
nodes = (
"197 -139 OFFCURVE",
"230 -82 OFFCURVE",
"230 0 CURVE",
"230 84 OFFCURVE",
"197 138 OFFCURVE",
"122 138 CURVE",
"47 138 OFFCURVE",
"15 83 OFFCURVE",
"15 0 CURVE",
"15 -85 OFFCURVE",
"49 -139 OFFCURVE",
"122 -139 CURVE"
);
},
{
closed = 1;
nodes = (
"65 -116 OFFCURVE",
"41 -72 OFFCURVE",
"41 0 CURVE",
"41 74 OFFCURVE",
"67 115 OFFCURVE",
"122 115 CURVE",
"180 115 OFFCURVE",
"204 72 OFFCURVE",
"204 0 CURVE",
"204 -73 OFFCURVE",
"179 -116 OFFCURVE",
"122 -116 CURVE"
);
}
);
width = 245;
},
{
layerId = "F5474A38-5AEA-454E-84E5-A62166EBBEA7";
paths = (
{
closed = 1;
nodes = (
"220 -139 OFFCURVE",
"258 -82 OFFCURVE",
"258 0 CURVE",
"258 84 OFFCURVE",
"220 138 OFFCURVE",
"137 138 CURVE",
"52 138 OFFCURVE",
"15 83 OFFCURVE",
"15 0 CURVE",
"15 -85 OFFCURVE",
"55 -139 OFFCURVE",
"137 -139 CURVE"
);
},
{
closed = 1;
nodes = (
"94 -85 OFFCURVE",
"76 -58 OFFCURVE",
"76 0 CURVE",
"76 59 OFFCURVE",
"95 84 OFFCURVE",
"136 84 CURVE",
"179 84 OFFCURVE",
"198 57 OFFCURVE",
"198 0 CURVE",
"198 -58 OFFCURVE",
"178 -85 OFFCURVE",
"136 -85 CURVE"
);
}
);
width = 273;
}
);
},
{
glyphname = one.subs;
lastChange = "2019-01-11 03:19:30 +0000";
layers = (
{
layerId = "D86F237C-A043-4FD6-9305-0CC5F899F330";
paths = (
{
closed = 1;
nodes = (
"101 -127 LINE",
"101 138 LINE",
"77 138 LINE",
"76 88 OFFCURVE",
"22 80 OFFCURVE",
"15 80 CURVE",
"15 51 LINE",
"22 51 OFFCURVE",
"61 58 OFFCURVE",
"75 97 CURVE",
"75 -127 LINE"
);
},
{
closed = 1;
nodes = (
"141 -139 LINE",
"141 -114 LINE",
"31 -114 LINE",
"31 -139 LINE"
);
}
);
width = 156;
},
{
layerId = "F5474A38-5AEA-454E-84E5-A62166EBBEA7";
paths = (
{
closed = 1;
nodes = (
"143 -127 LINE",
"143 138 LINE",
"82 138 LINE",
"78 84 OFFCURVE",
"24 88 OFFCURVE",
"15 91 CURVE",
"15 15 LINE",
"22 15 OFFCURVE",
"67 25 OFFCURVE",
"75 79 CURVE",
"75 -127 LINE"
);
},
{
closed = 1;
nodes = (
"179 -139 LINE",
"179 -80 LINE",
"28 -80 LINE",
"28 -139 LINE"
);
}
);
width = 194;
}
);
},
{
glyphname = two.subs;
lastChange = "2019-01-11 03:19:30 +0000";
layers = (
{
layerId = "D86F237C-A043-4FD6-9305-0CC5F899F330";
paths = (
{
closed = 1;
nodes = (
"213 -139 LINE",
"213 -115 LINE",
"45 -115 LINE",
"56 -110 OFFCURVE",
"168 -34 OFFCURVE",
"196 21 CURVE",
"227 83 OFFCURVE",
"188 138 OFFCURVE",
"116 138 CURVE SMOOTH",
"60 138 OFFCURVE",
"21 104 OFFCURVE",
"23 48 CURVE",
"48 46 LINE",
"47 91 OFFCURVE",
"75 115 OFFCURVE",
"113 115 CURVE SMOOTH",
"167 115 OFFCURVE",
"195 74 OFFCURVE",
"171 27 CURVE",
"140 -34 OFFCURVE",
"16 -115 OFFCURVE",
"15 -116 CURVE",
"15 -139 LINE"
);
}
);
width = 228;
},
{
layerId = "F5474A38-5AEA-454E-84E5-A62166EBBEA7";
paths = (
{
closed = 1;
nodes = (
"236 -139 LINE",
"236 -81 LINE",
"81 -81 LINE",
"99 -78 OFFCURVE",
"188 -56 OFFCURVE",
"222 12 CURVE",
"255 80 OFFCURVE",
"201 138 OFFCURVE",
"131 138 CURVE SMOOTH",
"61 138 OFFCURVE",
"7 94 OFFCURVE",
"19 17 CURVE",
"82 8 LINE",
"72 59 OFFCURVE",
"93 81 OFFCURVE",
"124 81 CURVE SMOOTH",
"153 81 OFFCURVE",
"178 57 OFFCURVE",
"158 16 CURVE",
"128 -45 OFFCURVE",
"16 -82 OFFCURVE",
"15 -83 CURVE",
"15 -139 LINE"
);
}
);
width = 251;
}
);
},
{
glyphname = three.subs;
lastChange = "2019-01-11 03:19:30 +0000";
layers = (
{
layerId = "D86F237C-A043-4FD6-9305-0CC5F899F330";
paths = (
{
closed = 1;
nodes = (
"174 -149 OFFCURVE",
"216 -119 OFFCURVE",
"216 -72 CURVE",
"216 -38 OFFCURVE",
"192 -14 OFFCURVE",
"164 -7 CURVE",
"191 1 OFFCURVE",
"209 20 OFFCURVE",
"209 51 CURVE",
"209 99 OFFCURVE",
"172 128 OFFCURVE",
"116 128 CURVE",
"44 128 OFFCURVE",
"22 68 OFFCURVE",
"21 48 CURVE",
"46 45 LINE",
"47 66 OFFCURVE",
"66 105 OFFCURVE",
"116 105 CURVE",
"157 105 OFFCURVE",
"184 83 OFFCURVE",
"184 46 CURVE",
"184 19 OFFCURVE",
"164 1 OFFCURVE",
"132 1 CURVE",
"93 1 LINE",
"93 -15 LINE",
"131 -15 LINE",
"151 -15 OFFCURVE",
"191 -26 OFFCURVE",
"191 -68 CURVE",
"191 -103 OFFCURVE",
"157 -125 OFFCURVE",
"118 -125 CURVE",
"80 -125 OFFCURVE",
"43 -103 OFFCURVE",
"41 -55 CURVE",
"15 -58 LINE",
"16 -119 OFFCURVE",
"66 -149 OFFCURVE",
"118 -149 CURVE"
);
}
);
width = 231;
},
{
layerId = "F5474A38-5AEA-454E-84E5-A62166EBBEA7";
paths = (
{
closed = 1;
nodes = (
"195 -149 OFFCURVE",
"239 -121 OFFCURVE",
"239 -71 CURVE",
"239 -39 OFFCURVE",
"216 -12 OFFCURVE",
"179 -10 CURVE",
"218 -7 OFFCURVE",
"235 22 OFFCURVE",
"235 52 CURVE",
"235 98 OFFCURVE",
"197 128 OFFCURVE",
"128 128 CURVE",
"42 128 OFFCURVE",
"21 56 OFFCURVE",
"21 36 CURVE",
"80 26 LINE",
"80 50 OFFCURVE",
"98 73 OFFCURVE",
"129 73 CURVE",
"158 73 OFFCURVE",
"176 58 OFFCURVE",
"176 35 CURVE",
"176 13 OFFCURVE",
"152 9 OFFCURVE",
"132 9 CURVE",
"105 9 LINE",
"105 -25 LINE",
"130 -25 LINE",
"157 -25 OFFCURVE",
"177 -34 OFFCURVE",
"177 -55 CURVE",
"177 -75 OFFCURVE",
"161 -92 OFFCURVE",
"135 -92 CURVE",
"98 -92 OFFCURVE",
"79 -69 OFFCURVE",
"79 -34 CURVE",
"15 -44 LINE",
"14 -114 OFFCURVE",
"60 -149 OFFCURVE",
"133 -149 CURVE"
);
}
);
width = 254;
}
);
},
{
glyphname = four.subs;
lastChange = "2019-01-11 03:19:30 +0000";
layers = (
{
layerId = "D86F237C-A043-4FD6-9305-0CC5F899F330";
paths = (
{
closed = 1;
nodes = (
"229 -80 LINE",
"229 -55 LINE",
"46 -55 LINE",
"110 -11 OFFCURVE",
"160 65 OFFCURVE",
"160 138 CURVE",
"130 138 LINE",
"129 66 OFFCURVE",
"78 -25 OFFCURVE",
"15 -55 CURVE",
"15 -80 LINE"
);
},
{
closed = 1;
nodes = (
"190 -139 LINE",
"190 -1 LINE",
"162 -1 LINE",
"162 -139 LINE"
);
}
);
width = 244;
},
{
layerId = "F5474A38-5AEA-454E-84E5-A62166EBBEA7";
paths = (
{
closed = 1;
nodes = (
"249 -89 LINE",
"249 -31 LINE",
"82 -31 LINE",
"154 13 OFFCURVE",
"192 82 OFFCURVE",
"192 138 CURVE",
"117 138 LINE",
"117 83 OFFCURVE",
"86 -1 OFFCURVE",
"15 -31 CURVE",
"15 -89 LINE"
);
},
{
closed = 1;
nodes = (
"218 -139 LINE",
"218 -1 LINE",
"150 -1 LINE",
"150 -139 LINE"
);
}
);
width = 264;
}
);
},
{
glyphname = five.subs;
lastChange = "2019-01-11 03:19:30 +0000";
layers = (
{
layerId = "D86F237C-A043-4FD6-9305-0CC5F899F330";
paths = (
{
closed = 1;
nodes = (
"180 -149 OFFCURVE",
"216 -103 OFFCURVE",
"219 -58 CURVE SMOOTH",
"222 -11 OFFCURVE",
"191 36 OFFCURVE",
"125 36 CURVE",
"69 36 OFFCURVE",
"49 4 OFFCURVE",
"49 4 CURVE",
"59 103 LINE",
"206 103 LINE",
"206 128 LINE",
"38 128 LINE",
"24 -11 LINE",
"51 -17 LINE",
"51 -16 OFFCURVE",
"69 15 OFFCURVE",
"119 15 CURVE",
"169 15 OFFCURVE",
"195 -22 OFFCURVE",
"193 -57 CURVE SMOOTH",
"191 -90 OFFCURVE",
"165 -125 OFFCURVE",
"116 -125 CURVE",
"56 -125 OFFCURVE",
"44 -80 OFFCURVE",
"43 -75 CURVE",
"15 -78 LINE",
"26 -121 OFFCURVE",
"61 -149 OFFCURVE",
"115 -149 CURVE"
);
}
);
width = 234;
},
{
layerId = "F5474A38-5AEA-454E-84E5-A62166EBBEA7";
paths = (
{
closed = 1;
nodes = (
"191 -149 OFFCURVE",
"233 -102 OFFCURVE",
"237 -55 CURVE SMOOTH",
"241 -9 OFFCURVE",
"212 36 OFFCURVE",
"148 36 CURVE",
"95 36 OFFCURVE",
"75 -3 OFFCURVE",
"75 -3 CURVE",
"83 70 LINE",
"224 70 LINE",
"224 128 LINE",
"37 128 LINE",
"22 -19 LINE",
"93 -30 LINE",
"93 -29 OFFCURVE",
"102 -8 OFFCURVE",
"128 -8 CURVE",
"158 -8 OFFCURVE",
"172 -32 OFFCURVE",
"170 -54 CURVE SMOOTH",
"167 -74 OFFCURVE",
"153 -93 OFFCURVE",
"128 -93 CURVE",
"97 -93 OFFCURVE",
"84 -67 OFFCURVE",
"82 -56 CURVE",
"15 -66 LINE",
"19 -102 OFFCURVE",
"51 -149 OFFCURVE",
"126 -149 CURVE"
);
}
);
width = 252;
}
);
},
{
glyphname = six.subs;
lastChange = "2019-01-11 03:19:30 +0000";
layers = (
{
layerId = "D86F237C-A043-4FD6-9305-0CC5F899F330";
paths = (
{
closed = 1;
nodes = (
"248 -149 OFFCURVE",
"257 28 OFFCURVE",
"136 30 CURVE",
"74 33 OFFCURVE",
"46 -18 OFFCURVE",
"43 -46 CURVE",
"31 36 OFFCURVE",
"69 104 OFFCURVE",
"132 104 CURVE",
"172 104 OFFCURVE",
"186 76 OFFCURVE",
"186 76 CURVE",
"213 83 LINE",
"213 83 OFFCURVE",
"195 128 OFFCURVE",
"133 128 CURVE",
"52 128 OFFCURVE",
"15 53 OFFCURVE",
"15 -20 CURVE SMOOTH",
"15 -89 OFFCURVE",
"46 -149 OFFCURVE",
"122 -149 CURVE"
);
},
{
closed = 1;
nodes = (
"85 -126 OFFCURVE",
"56 -104 OFFCURVE",
"48 -70 CURVE",
"48 -29 OFFCURVE",
"78 12 OFFCURVE",
"131 10 CURVE",
"224 5 OFFCURVE",
"215 -126 OFFCURVE",
"123 -126 CURVE"
);
}
);
width = 237;
},
{
layerId = "F5474A38-5AEA-454E-84E5-A62166EBBEA7";
paths = (
{
closed = 1;
nodes = (
"271 -149 OFFCURVE",
"281 25 OFFCURVE",
"153 25 CURVE",
"96 26 OFFCURVE",
"79 -19 OFFCURVE",
"79 -20 CURVE",
"73 61 OFFCURVE",
"120 71 OFFCURVE",
"133 71 CURVE",
"167 71 OFFCURVE",
"173 48 OFFCURVE",
"173 48 CURVE",
"239 59 LINE",
"239 59 OFFCURVE",
"227 128 OFFCURVE",
"137 128 CURVE",
"60 128 OFFCURVE",
"15 63 OFFCURVE",
"15 -11 CURVE SMOOTH",
"15 -89 OFFCURVE",
"54 -149 OFFCURVE",
"132 -149 CURVE"
);
},
{
closed = 1;
nodes = (
"117 -94 OFFCURVE",
"92 -86 OFFCURVE",
"87 -62 CURVE",
"87 -35 OFFCURVE",
"110 -13 OFFCURVE",
"138 -13 CURVE",
"196 -15 OFFCURVE",
"196 -94 OFFCURVE",
"137 -94 CURVE"
);
}
);
width = 258;
}
);
},
{
glyphname = seven.subs;
lastChange = "2019-01-11 03:19:30 +0000";
layers = (
{
layerId = "D86F237C-A043-4FD6-9305-0CC5F899F330";
paths = (
{
closed = 1;
nodes = (
"56 -139 LINE",
"56 -26 OFFCURVE",
"106 54 OFFCURVE",
"179 113 CURVE",
"15 113 LINE",
"15 138 LINE",
"208 138 LINE",
"208 114 LINE",
"169 83 OFFCURVE",
"85 14 OFFCURVE",
"85 -139 CURVE"
);
}
);
width = 223;
},
{
layerId = "F5474A38-5AEA-454E-84E5-A62166EBBEA7";
paths = (
{
closed = 1;
nodes = (
"41 -139 LINE",
"41 -26 OFFCURVE",
"103 56 OFFCURVE",
"178 78 CURVE",
"15 78 LINE",
"15 138 LINE",
"240 138 LINE",
"240 79 LINE",
"200 65 OFFCURVE",
"109 15 OFFCURVE",
"109 -139 CURVE"
);
}
);
width = 255;
}
);
},
{
glyphname = eight.subs;
lastChange = "2019-01-11 03:19:30 +0000";
layers = (
{
layerId = "D86F237C-A043-4FD6-9305-0CC5F899F330";
paths = (
{
closed = 1;
nodes = (
"183 -149 OFFCURVE",
"230 -124 OFFCURVE",
"230 -72 CURVE",
"230 -36 OFFCURVE",
"204 -11 OFFCURVE",
"165 -3 CURVE",
"206 7 OFFCURVE",
"214 37 OFFCURVE",
"214 56 CURVE",
"214 97 OFFCURVE",
"177 128 OFFCURVE",
"122 128 CURVE",
"69 128 OFFCURVE",
"31 98 OFFCURVE",
"31 56 CURVE",
"31 37 OFFCURVE",
"39 7 OFFCURVE",
"79 -3 CURVE",
"40 -11 OFFCURVE",
"15 -38 OFFCURVE",
"15 -72 CURVE",
"15 -122 OFFCURVE",
"61 -149 OFFCURVE",
"122 -149 CURVE"
);
},
{
closed = 1;
nodes = (
"72 -126 OFFCURVE",
"42 -102 OFFCURVE",
"42 -68 CURVE",
"42 -30 OFFCURVE",
"72 -10 OFFCURVE",
"122 -10 CURVE",
"172 -10 OFFCURVE",
"203 -30 OFFCURVE",
"203 -68 CURVE",
"203 -102 OFFCURVE",
"172 -126 OFFCURVE",
"122 -126 CURVE"
);
},
{
closed = 1;
nodes = (
"85 5 OFFCURVE",
"55 17 OFFCURVE",
"55 51 CURVE",
"55 84 OFFCURVE",
"82 105 OFFCURVE",
"122 105 CURVE",
"160 105 OFFCURVE",
"189 85 OFFCURVE",
"189 51 CURVE",
"189 18 OFFCURVE",
"162 5 OFFCURVE",
"122 5 CURVE"
);
}
);
width = 245;
},
{
layerId = "F5474A38-5AEA-454E-84E5-A62166EBBEA7";
paths = (
{
closed = 1;
nodes = (
"201 -150 OFFCURVE",
"253 -122 OFFCURVE",
"253 -71 CURVE",
"253 -34 OFFCURVE",
"227 -9 OFFCURVE",
"182 -3 CURVE",
"231 3 OFFCURVE",
"237 41 OFFCURVE",
"237 55 CURVE",
"237 98 OFFCURVE",
"197 127 OFFCURVE",
"133 127 CURVE",
"71 127 OFFCURVE",
"30 99 OFFCURVE",
"30 55 CURVE",
"30 41 OFFCURVE",
"37 3 OFFCURVE",
"85 -3 CURVE",
"41 -8 OFFCURVE",
"15 -36 OFFCURVE",
"15 -71 CURVE",
"15 -121 OFFCURVE",
"66 -150 OFFCURVE",
"133 -150 CURVE"
);
},
{
closed = 1;
nodes = (
"100 -100 OFFCURVE",
"79 -84 OFFCURVE",
"79 -60 CURVE",
"79 -31 OFFCURVE",
"100 -19 OFFCURVE",
"134 -19 CURVE",
"167 -19 OFFCURVE",
"188 -31 OFFCURVE",
"188 -60 CURVE",
"188 -84 OFFCURVE",
"167 -100 OFFCURVE",
"134 -100 CURVE"
);
},
{
closed = 1;
nodes = (
"106 12 OFFCURVE",
"89 24 OFFCURVE",
"89 43 CURVE",
"89 67 OFFCURVE",
"106 77 OFFCURVE",
"133 77 CURVE",
"161 77 OFFCURVE",
"179 67 OFFCURVE",
"179 43 CURVE",
"179 24 OFFCURVE",
"162 12 OFFCURVE",
"133 12 CURVE"
);
}
);
width = 268;
}
);
},
{
glyphname = nine.subs;
lastChange = "2019-01-11 03:19:30 +0000";
layers = (
{
layerId = "D86F237C-A043-4FD6-9305-0CC5F899F330";
paths = (
{
closed = 1;
nodes = (
"194 -149 OFFCURVE",
"219 -93 OFFCURVE",
"224 -15 CURVE",
"230 64 OFFCURVE",
"195 128 OFFCURVE",
"117 128 CURVE",
"-15 128 OFFCURVE",
"-19 -51 OFFCURVE",
"109 -51 CURVE",
"164 -51 OFFCURVE",
"194 -6 OFFCURVE",
"198 22 CURVE",
"202 -66 OFFCURVE",
"181 -125 OFFCURVE",
"117 -125 CURVE",
"66 -125 OFFCURVE",
"48 -91 OFFCURVE",
"47 -90 CURVE",
"22 -98 LINE",
"23 -100 OFFCURVE",
"45 -149 OFFCURVE",
"117 -149 CURVE"
);
},
{
closed = 1;
nodes = (
"17 -32 OFFCURVE",
"19 105 OFFCURVE",
"117 105 CURVE",
"159 105 OFFCURVE",
"184 80 OFFCURVE",
"194 42 CURVE",
"187 0 OFFCURVE",
"161 -32 OFFCURVE",
"114 -32 CURVE"
);
}
);
width = 240;
},
{
layerId = "F5474A38-5AEA-454E-84E5-A62166EBBEA7";
paths = (
{
closed = 1;
nodes = (
"211 -149 OFFCURVE",
"244 -82 OFFCURVE",
"244 -8 CURVE SMOOTH",
"244 61 OFFCURVE",
"213 128 OFFCURVE",
"125 128 CURVE",
"-13 128 OFFCURVE",
"-23 -47 OFFCURVE",
"104 -47 CURVE",
"161 -47 OFFCURVE",
"178 -1 OFFCURVE",
"178 -1 CURVE",
"180 -82 OFFCURVE",
"141 -90 OFFCURVE",
"125 -90 CURVE",
"91 -90 OFFCURVE",
"84 -67 OFFCURVE",
"84 -67 CURVE",
"18 -80 LINE",
"18 -80 OFFCURVE",
"31 -149 OFFCURVE",
"125 -149 CURVE"
);
},
{
closed = 1;
nodes = (
"63 -7 OFFCURVE",
"69 75 OFFCURVE",
"125 75 CURVE",
"144 75 OFFCURVE",
"165 67 OFFCURVE",
"170 40 CURVE",
"170 12 OFFCURVE",
"150 -9 OFFCURVE",
"120 -9 CURVE"
);
}
);
width = 259;
}
);
},
{
glyphname = zero.dnom;
lastChange = "2019-01-01 19:35:15 +0000";
layers = (
{
layerId = "D86F237C-A043-4FD6-9305-0CC5F899F330";
paths = (
{
closed = 1;
nodes = (
"197 -14 OFFCURVE",
"230 43 OFFCURVE",
"230 125 CURVE",
"230 209 OFFCURVE",
"197 263 OFFCURVE",
"122 263 CURVE",
"47 263 OFFCURVE",
"15 208 OFFCURVE",
"15 125 CURVE",
"15 40 OFFCURVE",
"49 -14 OFFCURVE",
"122 -14 CURVE"
);
},
{
closed = 1;
nodes = (
"65 9 OFFCURVE",
"41 53 OFFCURVE",
"41 125 CURVE",
"41 199 OFFCURVE",
"67 240 OFFCURVE",
"122 240 CURVE",
"180 240 OFFCURVE",
"204 197 OFFCURVE",
"204 125 CURVE",
"204 52 OFFCURVE",
"179 9 OFFCURVE",
"122 9 CURVE"
);
}
);
width = 245;
},
{
layerId = "F5474A38-5AEA-454E-84E5-A62166EBBEA7";
paths = (
{
closed = 1;
nodes = (
"220 -14 OFFCURVE",
"258 43 OFFCURVE",
"258 125 CURVE",
"258 209 OFFCURVE",
"220 263 OFFCURVE",
"137 263 CURVE",
"52 263 OFFCURVE",
"15 208 OFFCURVE",
"15 125 CURVE",
"15 40 OFFCURVE",
"55 -14 OFFCURVE",
"137 -14 CURVE"
);
},
{
closed = 1;
nodes = (
"94 40 OFFCURVE",
"76 67 OFFCURVE",
"76 125 CURVE",
"76 184 OFFCURVE",
"95 209 OFFCURVE",
"136 209 CURVE",
"179 209 OFFCURVE",
"198 182 OFFCURVE",
"198 125 CURVE",
"198 67 OFFCURVE",
"178 40 OFFCURVE",
"136 40 CURVE"
);
}
);
width = 273;
}
);
},
{
glyphname = one.dnom;
lastChange = "2019-01-01 19:35:15 +0000";
layers = (
{
guideLines = (
{
position = "{384, 277}";
}
);
layerId = "D86F237C-A043-4FD6-9305-0CC5F899F330";
paths = (
{
closed = 1;
nodes = (
"101 12 LINE",
"101 277 LINE",
"77 277 LINE",
"76 227 OFFCURVE",
"22 219 OFFCURVE",
"15 219 CURVE",
"15 190 LINE",
"22 190 OFFCURVE",
"61 197 OFFCURVE",
"75 236 CURVE",
"75 12 LINE"
);
},
{
closed = 1;
nodes = (
"141 0 LINE",
"141 25 LINE",
"31 25 LINE",
"31 0 LINE"
);
}
);
width = 156;
},
{
layerId = "F5474A38-5AEA-454E-84E5-A62166EBBEA7";
paths = (
{
closed = 1;
nodes = (
"143 12 LINE",
"143 277 LINE",
"82 277 LINE",
"78 223 OFFCURVE",
"24 227 OFFCURVE",
"15 230 CURVE",
"15 154 LINE",
"22 154 OFFCURVE",
"67 164 OFFCURVE",
"75 218 CURVE",
"75 12 LINE"
);
},
{
closed = 1;
nodes = (
"179 0 LINE",
"179 59 LINE",
"28 59 LINE",
"28 0 LINE"
);
}
);
width = 194;
}
);
},
{
glyphname = two.dnom;
lastChange = "2019-01-01 19:35:15 +0000";
layers = (
{
layerId = "D86F237C-A043-4FD6-9305-0CC5F899F330";
paths = (
{
closed = 1;
nodes = (
"213 0 LINE",
"213 24 LINE",
"45 24 LINE",
"56 29 OFFCURVE",
"168 105 OFFCURVE",
"196 160 CURVE",
"227 222 OFFCURVE",
"187 277 OFFCURVE",
"116 277 CURVE SMOOTH",
"60 277 OFFCURVE",
"21 243 OFFCURVE",
"23 187 CURVE",
"48 185 LINE",
"47 230 OFFCURVE",
"75 254 OFFCURVE",
"113 254 CURVE SMOOTH",
"167 254 OFFCURVE",
"195 213 OFFCURVE",
"171 166 CURVE",
"140 105 OFFCURVE",
"16 24 OFFCURVE",
"15 23 CURVE",
"15 0 LINE"
);
}
);
width = 228;
},
{
layerId = "F5474A38-5AEA-454E-84E5-A62166EBBEA7";
paths = (
{
closed = 1;
nodes = (
"236 0 LINE",
"236 58 LINE",
"81 58 LINE",
"99 61 OFFCURVE",
"188 83 OFFCURVE",
"222 151 CURVE",
"255 219 OFFCURVE",
"201 277 OFFCURVE",
"131 277 CURVE SMOOTH",
"61 277 OFFCURVE",
"7 233 OFFCURVE",
"19 156 CURVE",
"82 147 LINE",
"72 198 OFFCURVE",
"93 220 OFFCURVE",
"124 220 CURVE SMOOTH",
"153 220 OFFCURVE",
"178 196 OFFCURVE",
"158 155 CURVE",
"128 94 OFFCURVE",
"16 57 OFFCURVE",
"15 56 CURVE",
"15 0 LINE"
);
}
);
width = 251;
}
);
},
{
glyphname = three.dnom;
lastChange = "2019-01-01 19:35:15 +0000";
layers = (
{
layerId = "D86F237C-A043-4FD6-9305-0CC5F899F330";
paths = (
{
closed = 1;
nodes = (
"174 -10 OFFCURVE",
"216 20 OFFCURVE",
"216 67 CURVE",
"216 101 OFFCURVE",
"192 125 OFFCURVE",
"164 132 CURVE",
"191 140 OFFCURVE",
"209 159 OFFCURVE",
"209 190 CURVE",
"209 238 OFFCURVE",
"172 267 OFFCURVE",
"116 267 CURVE",
"44 267 OFFCURVE",
"22 207 OFFCURVE",
"21 187 CURVE",
"46 184 LINE",
"47 205 OFFCURVE",
"66 244 OFFCURVE",
"116 244 CURVE",
"157 244 OFFCURVE",
"184 222 OFFCURVE",
"184 185 CURVE",
"184 158 OFFCURVE",
"164 140 OFFCURVE",
"132 140 CURVE",
"93 140 LINE",
"93 124 LINE",
"131 124 LINE",
"151 124 OFFCURVE",
"191 113 OFFCURVE",
"191 71 CURVE",
"191 36 OFFCURVE",
"157 14 OFFCURVE",
"118 14 CURVE",
"80 14 OFFCURVE",
"43 36 OFFCURVE",
"41 84 CURVE",
"15 81 LINE",
"16 20 OFFCURVE",
"65 -10 OFFCURVE",
"118 -10 CURVE"
);
}
);
width = 231;
},
{
layerId = "F5474A38-5AEA-454E-84E5-A62166EBBEA7";
paths = (
{
closed = 1;
nodes = (
"195 -10 OFFCURVE",
"239 18 OFFCURVE",
"239 68 CURVE",
"239 100 OFFCURVE",
"216 127 OFFCURVE",
"179 129 CURVE",
"218 132 OFFCURVE",
"235 161 OFFCURVE",
"235 191 CURVE",
"235 237 OFFCURVE",
"197 267 OFFCURVE",
"128 267 CURVE",
"42 267 OFFCURVE",
"21 195 OFFCURVE",
"21 175 CURVE",
"80 165 LINE",
"80 189 OFFCURVE",
"98 212 OFFCURVE",
"129 212 CURVE",
"158 212 OFFCURVE",
"176 197 OFFCURVE",
"176 174 CURVE",
"176 152 OFFCURVE",
"152 148 OFFCURVE",
"132 148 CURVE",
"105 148 LINE",
"105 114 LINE",
"130 114 LINE",
"157 114 OFFCURVE",
"177 105 OFFCURVE",
"177 84 CURVE",
"177 64 OFFCURVE",
"161 47 OFFCURVE",
"135 47 CURVE",
"98 47 OFFCURVE",
"79 70 OFFCURVE",
"79 105 CURVE",
"15 95 LINE",
"14 25 OFFCURVE",
"60 -10 OFFCURVE",
"133 -10 CURVE"
);
}
);
width = 254;
}
);
},
{
glyphname = four.dnom;
lastChange = "2019-01-01 19:35:15 +0000";
layers = (
{
layerId = "D86F237C-A043-4FD6-9305-0CC5F899F330";
paths = (
{
closed = 1;
nodes = (
"229 59 LINE",
"229 84 LINE",
"46 84 LINE",
"110 128 OFFCURVE",
"160 204 OFFCURVE",
"160 277 CURVE",
"130 277 LINE",
"129 205 OFFCURVE",
"78 114 OFFCURVE",
"15 84 CURVE",
"15 59 LINE"
);
},
{
closed = 1;
nodes = (
"190 0 LINE",
"190 138 LINE",
"162 138 LINE",
"162 0 LINE"
);
}
);
width = 244;
},
{
layerId = "F5474A38-5AEA-454E-84E5-A62166EBBEA7";
paths = (
{
closed = 1;
nodes = (
"249 50 LINE",
"249 108 LINE",
"82 108 LINE",
"154 152 OFFCURVE",
"192 221 OFFCURVE",
"192 277 CURVE",
"117 277 LINE",
"117 222 OFFCURVE",
"86 138 OFFCURVE",
"15 108 CURVE",
"15 50 LINE"
);
},
{
closed = 1;
nodes = (
"218 0 LINE",
"218 138 LINE",
"150 138 LINE",
"150 0 LINE"
);
}
);
width = 264;
}
);
},
{
glyphname = five.dnom;
lastChange = "2019-01-01 19:35:15 +0000";
layers = (
{
layerId = "D86F237C-A043-4FD6-9305-0CC5F899F330";
paths = (
{
closed = 1;
nodes = (
"180 -10 OFFCURVE",
"216 36 OFFCURVE",
"219 81 CURVE SMOOTH",
"222 128 OFFCURVE",
"191 175 OFFCURVE",
"125 175 CURVE",
"69 175 OFFCURVE",
"49 143 OFFCURVE",
"49 143 CURVE",
"59 242 LINE",
"206 242 LINE",
"206 267 LINE",
"38 267 LINE",
"24 128 LINE",
"51 122 LINE",
"51 123 OFFCURVE",
"69 154 OFFCURVE",
"119 154 CURVE",
"169 154 OFFCURVE",
"195 117 OFFCURVE",
"193 82 CURVE SMOOTH",
"191 49 OFFCURVE",
"165 14 OFFCURVE",
"116 14 CURVE",
"56 14 OFFCURVE",
"44 59 OFFCURVE",
"43 64 CURVE",
"15 61 LINE",
"26 18 OFFCURVE",
"61 -10 OFFCURVE",
"115 -10 CURVE"
);
}
);
width = 234;
},
{
layerId = "F5474A38-5AEA-454E-84E5-A62166EBBEA7";
paths = (
{
closed = 1;
nodes = (
"191 -10 OFFCURVE",
"233 37 OFFCURVE",
"237 84 CURVE SMOOTH",
"241 130 OFFCURVE",
"212 175 OFFCURVE",
"148 175 CURVE",
"95 175 OFFCURVE",
"75 136 OFFCURVE",
"75 136 CURVE",
"83 209 LINE",
"224 209 LINE",
"224 267 LINE",
"37 267 LINE",
"22 120 LINE",
"93 109 LINE",
"93 110 OFFCURVE",
"102 131 OFFCURVE",
"128 131 CURVE",
"158 131 OFFCURVE",
"172 107 OFFCURVE",
"170 85 CURVE SMOOTH",
"167 65 OFFCURVE",
"153 46 OFFCURVE",
"128 46 CURVE",
"97 46 OFFCURVE",
"84 72 OFFCURVE",
"82 83 CURVE",
"15 73 LINE",
"19 37 OFFCURVE",
"51 -10 OFFCURVE",
"126 -10 CURVE"
);
}
);
width = 252;
}
);
},
{
glyphname = six.dnom;
lastChange = "2019-01-01 19:35:15 +0000";
layers = (
{
layerId = "D86F237C-A043-4FD6-9305-0CC5F899F330";
paths = (
{
closed = 1;
nodes = (
"248 -10 OFFCURVE",
"257 167 OFFCURVE",
"136 169 CURVE",
"74 172 OFFCURVE",
"46 121 OFFCURVE",
"43 93 CURVE",
"31 175 OFFCURVE",
"69 243 OFFCURVE",
"132 243 CURVE",
"172 243 OFFCURVE",
"186 215 OFFCURVE",
"186 215 CURVE",
"213 222 LINE",
"213 222 OFFCURVE",
"195 267 OFFCURVE",
"133 267 CURVE",
"52 267 OFFCURVE",
"15 192 OFFCURVE",
"15 119 CURVE SMOOTH",
"15 50 OFFCURVE",
"46 -10 OFFCURVE",
"122 -10 CURVE"
);
},
{
closed = 1;
nodes = (
"85 13 OFFCURVE",
"56 35 OFFCURVE",
"48 69 CURVE",
"48 110 OFFCURVE",
"78 151 OFFCURVE",
"131 149 CURVE",
"224 144 OFFCURVE",
"215 13 OFFCURVE",
"123 13 CURVE"
);
}
);
width = 237;
},
{
layerId = "F5474A38-5AEA-454E-84E5-A62166EBBEA7";
paths = (
{
closed = 1;
nodes = (
"271 -10 OFFCURVE",
"281 164 OFFCURVE",
"153 164 CURVE",
"96 165 OFFCURVE",
"79 120 OFFCURVE",
"79 119 CURVE",
"73 200 OFFCURVE",
"120 210 OFFCURVE",
"133 210 CURVE",
"167 210 OFFCURVE",
"173 187 OFFCURVE",
"173 187 CURVE",
"239 198 LINE",
"239 198 OFFCURVE",
"227 267 OFFCURVE",
"137 267 CURVE",
"60 267 OFFCURVE",
"15 202 OFFCURVE",
"15 128 CURVE SMOOTH",
"15 50 OFFCURVE",
"54 -10 OFFCURVE",
"132 -10 CURVE"
);
},
{
closed = 1;
nodes = (
"117 45 OFFCURVE",
"92 53 OFFCURVE",
"87 77 CURVE",
"87 104 OFFCURVE",
"110 126 OFFCURVE",
"138 126 CURVE",
"196 124 OFFCURVE",
"196 45 OFFCURVE",
"137 45 CURVE"
);
}
);
width = 258;
}
);
},
{
glyphname = seven.dnom;
lastChange = "2019-01-01 19:35:15 +0000";
layers = (
{
layerId = "D86F237C-A043-4FD6-9305-0CC5F899F330";
paths = (
{
closed = 1;
nodes = (
"56 0 LINE",
"56 113 OFFCURVE",
"106 193 OFFCURVE",
"179 252 CURVE",
"15 252 LINE",
"15 277 LINE",
"208 277 LINE",
"208 253 LINE",
"169 222 OFFCURVE",
"85 153 OFFCURVE",
"85 0 CURVE"
);
}
);
width = 223;
},
{
layerId = "F5474A38-5AEA-454E-84E5-A62166EBBEA7";
paths = (
{
closed = 1;
nodes = (
"41 0 LINE",
"41 113 OFFCURVE",
"103 195 OFFCURVE",
"178 217 CURVE",
"15 217 LINE",
"15 277 LINE",
"240 277 LINE",
"240 218 LINE",
"200 204 OFFCURVE",
"109 154 OFFCURVE",
"109 0 CURVE"
);
}
);
width = 255;
}
);
},
{
glyphname = eight.dnom;
lastChange = "2019-01-01 19:35:15 +0000";
layers = (
{
layerId = "D86F237C-A043-4FD6-9305-0CC5F899F330";
paths = (
{
closed = 1;
nodes = (
"183 -10 OFFCURVE",
"230 15 OFFCURVE",
"230 67 CURVE",
"230 103 OFFCURVE",
"204 128 OFFCURVE",
"165 136 CURVE",
"206 146 OFFCURVE",
"214 176 OFFCURVE",
"214 195 CURVE",
"214 236 OFFCURVE",
"177 267 OFFCURVE",
"122 267 CURVE",
"69 267 OFFCURVE",
"31 237 OFFCURVE",
"31 195 CURVE",
"31 176 OFFCURVE",
"39 146 OFFCURVE",
"79 136 CURVE",
"40 128 OFFCURVE",
"15 101 OFFCURVE",
"15 67 CURVE",
"15 17 OFFCURVE",
"61 -10 OFFCURVE",
"122 -10 CURVE"
);
},
{
closed = 1;
nodes = (
"72 13 OFFCURVE",
"42 37 OFFCURVE",
"42 71 CURVE",
"42 109 OFFCURVE",
"72 129 OFFCURVE",
"122 129 CURVE",
"172 129 OFFCURVE",
"203 109 OFFCURVE",
"203 71 CURVE",
"203 37 OFFCURVE",
"172 13 OFFCURVE",
"122 13 CURVE"
);
},
{
closed = 1;
nodes = (
"85 144 OFFCURVE",
"55 156 OFFCURVE",
"55 190 CURVE",
"55 223 OFFCURVE",
"82 244 OFFCURVE",
"122 244 CURVE",
"160 244 OFFCURVE",
"189 224 OFFCURVE",
"189 190 CURVE",
"189 157 OFFCURVE",
"162 144 OFFCURVE",
"122 144 CURVE"
);
}
);
width = 245;
},
{
layerId = "F5474A38-5AEA-454E-84E5-A62166EBBEA7";
paths = (
{
closed = 1;
nodes = (
"201 -11 OFFCURVE",
"253 17 OFFCURVE",
"253 68 CURVE",
"253 105 OFFCURVE",
"227 130 OFFCURVE",
"182 136 CURVE",
"231 142 OFFCURVE",
"237 180 OFFCURVE",
"237 194 CURVE",
"237 237 OFFCURVE",
"197 266 OFFCURVE",
"133 266 CURVE",
"71 266 OFFCURVE",
"30 238 OFFCURVE",
"30 194 CURVE",
"30 180 OFFCURVE",
"37 142 OFFCURVE",
"85 136 CURVE",
"41 131 OFFCURVE",
"15 103 OFFCURVE",
"15 68 CURVE",
"15 18 OFFCURVE",
"66 -11 OFFCURVE",
"133 -11 CURVE"
);
},
{
closed = 1;
nodes = (
"100 39 OFFCURVE",
"79 55 OFFCURVE",
"79 79 CURVE",
"79 108 OFFCURVE",
"100 120 OFFCURVE",
"134 120 CURVE",
"167 120 OFFCURVE",
"188 108 OFFCURVE",
"188 79 CURVE",
"188 55 OFFCURVE",
"167 39 OFFCURVE",
"134 39 CURVE"
);
},
{
closed = 1;
nodes = (
"106 151 OFFCURVE",
"89 163 OFFCURVE",
"89 182 CURVE",
"89 206 OFFCURVE",
"106 216 OFFCURVE",
"133 216 CURVE",
"161 216 OFFCURVE",
"179 206 OFFCURVE",
"179 182 CURVE",
"179 163 OFFCURVE",
"162 151 OFFCURVE",
"133 151 CURVE"
);
}
);
width = 268;
}
);
},
{
glyphname = nine.dnom;
lastChange = "2019-01-01 19:35:15 +0000";
layers = (
{
layerId = "D86F237C-A043-4FD6-9305-0CC5F899F330";
paths = (
{
closed = 1;
nodes = (
"194 -10 OFFCURVE",
"219 46 OFFCURVE",
"224 124 CURVE",
"230 203 OFFCURVE",
"195 267 OFFCURVE",
"117 267 CURVE",
"-15 267 OFFCURVE",
"-19 88 OFFCURVE",
"109 88 CURVE",
"164 88 OFFCURVE",
"194 133 OFFCURVE",
"198 161 CURVE",
"202 73 OFFCURVE",
"181 14 OFFCURVE",
"117 14 CURVE",
"66 14 OFFCURVE",
"48 48 OFFCURVE",
"47 49 CURVE",
"22 41 LINE",
"23 39 OFFCURVE",
"45 -10 OFFCURVE",
"117 -10 CURVE"
);
},
{
closed = 1;
nodes = (
"17 107 OFFCURVE",
"19 244 OFFCURVE",
"117 244 CURVE",
"159 244 OFFCURVE",
"184 219 OFFCURVE",
"194 181 CURVE",
"187 139 OFFCURVE",
"161 107 OFFCURVE",
"114 107 CURVE"
);
}
);
width = 240;
},
{
layerId = "F5474A38-5AEA-454E-84E5-A62166EBBEA7";
paths = (
{
closed = 1;
nodes = (
"211 -10 OFFCURVE",
"244 57 OFFCURVE",
"244 131 CURVE SMOOTH",
"244 200 OFFCURVE",
"213 267 OFFCURVE",
"125 267 CURVE",
"-13 267 OFFCURVE",
"-23 92 OFFCURVE",
"104 92 CURVE",
"161 92 OFFCURVE",
"178 138 OFFCURVE",
"178 138 CURVE",
"180 57 OFFCURVE",
"141 49 OFFCURVE",
"125 49 CURVE",
"91 49 OFFCURVE",
"84 72 OFFCURVE",
"84 72 CURVE",
"18 59 LINE",
"18 59 OFFCURVE",
"31 -10 OFFCURVE",
"125 -10 CURVE"
);
},
{
closed = 1;
nodes = (
"63 132 OFFCURVE",
"69 214 OFFCURVE",
"125 214 CURVE",
"144 214 OFFCURVE",
"165 206 OFFCURVE",
"170 179 CURVE",
"170 151 OFFCURVE",
"150 130 OFFCURVE",
"120 130 CURVE"
);
}
);
width = 259;
}
);
},
{
glyphname = zero.numr;
lastChange = "2019-01-01 19:35:15 +0000";
layers = (
{
layerId = "D86F237C-A043-4FD6-9305-0CC5F899F330";
paths = (
{
closed = 1;
nodes = (
"197 -14 OFFCURVE",
"230 43 OFFCURVE",
"230 125 CURVE",
"230 209 OFFCURVE",
"197 263 OFFCURVE",
"122 263 CURVE",
"47 263 OFFCURVE",
"15 208 OFFCURVE",
"15 125 CURVE",
"15 40 OFFCURVE",
"49 -14 OFFCURVE",
"122 -14 CURVE"
);
},
{
closed = 1;
nodes = (
"65 9 OFFCURVE",
"41 53 OFFCURVE",
"41 125 CURVE",
"41 199 OFFCURVE",
"67 240 OFFCURVE",
"122 240 CURVE",
"180 240 OFFCURVE",
"204 197 OFFCURVE",
"204 125 CURVE",
"204 52 OFFCURVE",
"179 9 OFFCURVE",
"122 9 CURVE"
);
}
);
width = 245;
},
{
layerId = "F5474A38-5AEA-454E-84E5-A62166EBBEA7";
paths = (
{
closed = 1;
nodes = (
"220 -14 OFFCURVE",
"258 43 OFFCURVE",
"258 125 CURVE",
"258 209 OFFCURVE",
"220 263 OFFCURVE",
"137 263 CURVE",
"52 263 OFFCURVE",
"15 208 OFFCURVE",
"15 125 CURVE",
"15 40 OFFCURVE",
"55 -14 OFFCURVE",
"137 -14 CURVE"
);
},
{
closed = 1;
nodes = (
"94 40 OFFCURVE",
"76 67 OFFCURVE",
"76 125 CURVE",
"76 184 OFFCURVE",
"95 209 OFFCURVE",
"136 209 CURVE",
"179 209 OFFCURVE",
"198 182 OFFCURVE",
"198 125 CURVE",
"198 67 OFFCURVE",
"178 40 OFFCURVE",
"136 40 CURVE"
);
}
);
width = 273;
}
);
},
{
glyphname = one.numr;
lastChange = "2019-01-01 19:35:15 +0000";
layers = (
{
layerId = "D86F237C-A043-4FD6-9305-0CC5F899F330";
paths = (
{
closed = 1;
nodes = (
"101 12 LINE",
"101 277 LINE",
"77 277 LINE",
"76 227 OFFCURVE",
"22 219 OFFCURVE",
"15 219 CURVE",
"15 190 LINE",
"22 190 OFFCURVE",
"61 197 OFFCURVE",
"75 236 CURVE",
"75 12 LINE"
);
},
{
closed = 1;
nodes = (
"141 0 LINE",
"141 25 LINE",
"31 25 LINE",
"31 0 LINE"
);
}
);
width = 156;
},
{
layerId = "F5474A38-5AEA-454E-84E5-A62166EBBEA7";
paths = (
{
closed = 1;
nodes = (
"143 12 LINE",
"143 277 LINE",
"82 277 LINE",
"78 223 OFFCURVE",
"24 227 OFFCURVE",
"15 230 CURVE",
"15 154 LINE",
"22 154 OFFCURVE",
"67 164 OFFCURVE",
"75 218 CURVE",
"75 12 LINE"
);
},
{
closed = 1;
nodes = (
"179 0 LINE",
"179 59 LINE",
"28 59 LINE",
"28 0 LINE"
);
}
);
width = 194;
}
);
},
{
glyphname = two.numr;
lastChange = "2019-01-01 19:35:15 +0000";
layers = (
{
layerId = "D86F237C-A043-4FD6-9305-0CC5F899F330";
paths = (
{
closed = 1;
nodes = (
"213 0 LINE",
"213 24 LINE",
"45 24 LINE",
"56 29 OFFCURVE",
"168 105 OFFCURVE",
"196 160 CURVE",
"227 222 OFFCURVE",
"188 277 OFFCURVE",
"116 277 CURVE SMOOTH",
"60 277 OFFCURVE",
"21 243 OFFCURVE",
"23 187 CURVE",
"48 185 LINE",
"47 230 OFFCURVE",
"75 254 OFFCURVE",
"113 254 CURVE SMOOTH",
"167 254 OFFCURVE",
"195 213 OFFCURVE",
"171 166 CURVE",
"140 105 OFFCURVE",
"16 24 OFFCURVE",
"15 23 CURVE",
"15 0 LINE"
);
}
);
width = 228;
},
{
layerId = "F5474A38-5AEA-454E-84E5-A62166EBBEA7";
paths = (
{
closed = 1;
nodes = (
"236 0 LINE",
"236 58 LINE",
"81 58 LINE",
"99 61 OFFCURVE",
"188 83 OFFCURVE",
"222 151 CURVE",
"255 219 OFFCURVE",
"201 277 OFFCURVE",
"131 277 CURVE SMOOTH",
"61 277 OFFCURVE",
"7 233 OFFCURVE",
"19 156 CURVE",
"82 147 LINE",
"72 198 OFFCURVE",
"93 220 OFFCURVE",
"124 220 CURVE SMOOTH",
"153 220 OFFCURVE",
"178 196 OFFCURVE",
"158 155 CURVE",
"128 94 OFFCURVE",
"16 57 OFFCURVE",
"15 56 CURVE",
"15 0 LINE"
);
}
);
width = 251;
}
);
},
